<?xml version="1.0" encoding="utf-8" standalone="no"?>
<!DOCTYPE svg PUBLIC "-//W3C//DTD SVG 1.1//EN"
  "http://www.w3.org/Graphics/SVG/1.1/DTD/svg11.dtd">
<svg xmlns:xlink="http://www.w3.org/1999/xlink" width="407.015703pt" height="395.186094pt" viewBox="0 0 407.015703 395.186094" xmlns="http://www.w3.org/2000/svg" version="1.1">
 <metadata>
  <rdf:RDF xmlns:dc="http://purl.org/dc/elements/1.1/" xmlns:cc="http://creativecommons.org/ns#" xmlns:rdf="http://www.w3.org/1999/02/22-rdf-syntax-ns#">
   <cc:Work>
    <dc:type rdf:resource="http://purl.org/dc/dcmitype/StillImage"/>
    <dc:date>2024-02-25T21:28:41.265706</dc:date>
    <dc:format>image/svg+xml</dc:format>
    <dc:creator>
     <cc:Agent>
      <dc:title>Matplotlib v3.8.2, https://matplotlib.org/</dc:title>
     </cc:Agent>
    </dc:creator>
   </cc:Work>
  </rdf:RDF>
 </metadata>
 <defs>
  <style type="text/css">*{stroke-linejoin: round; stroke-linecap: butt}</style>
 </defs>
 <g id="figure_1">
  <g id="patch_1">
   <path d="M 0 395.186094 
L 407.015703 395.186094 
L 407.015703 0 
L 0 0 
z
" style="fill: #ffffff"/>
  </g>
  <g id="axes_1">
   <g id="patch_2">
    <path d="M 59.766641 359.517188 
L 394.566641 359.517188 
L 394.566641 26.877187 
L 59.766641 26.877187 
z
" style="fill: #ffffff"/>
   </g>
   <g id="matplotlib.axis_1">
    <g id="xtick_1">
     <g id="line2d_1">
      <defs>
       <path id="mfd31111d23" d="M 0 0 
L 0 9 
" style="stroke: #000000; stroke-width: 1.875"/>
      </defs>
      <g>
       <use xlink:href="#mfd31111d23" x="59.766641" y="359.517188" style="stroke: #000000; stroke-width: 1.875"/>
      </g>
     </g>
     <g id="text_1">
      <!-- −2 -->
      <g transform="translate(47.604336 384.554609) scale(0.165 -0.165)">
       <defs>
        <path id="DejaVuSans-2212" d="M 678 2272 
L 4684 2272 
L 4684 1741 
L 678 1741 
L 678 2272 
z
" transform="scale(0.015625)"/>
        <path id="DejaVuSans-32" d="M 1228 531 
L 3431 531 
L 3431 0 
L 469 0 
L 469 531 
Q 828 903 1448 1529 
Q 2069 2156 2228 2338 
Q 2531 2678 2651 2914 
Q 2772 3150 2772 3378 
Q 2772 3750 2511 3984 
Q 2250 4219 1831 4219 
Q 1534 4219 1204 4116 
Q 875 4013 500 3803 
L 500 4441 
Q 881 4594 1212 4672 
Q 1544 4750 1819 4750 
Q 2544 4750 2975 4387 
Q 3406 4025 3406 3419 
Q 3406 3131 3298 2873 
Q 3191 2616 2906 2266 
Q 2828 2175 2409 1742 
Q 1991 1309 1228 531 
z
" transform="scale(0.015625)"/>
       </defs>
       <use xlink:href="#DejaVuSans-2212"/>
       <use xlink:href="#DejaVuSans-32" x="83.789062"/>
      </g>
     </g>
    </g>
    <g id="xtick_2">
     <g id="line2d_2">
      <g>
       <use xlink:href="#mfd31111d23" x="143.466641" y="359.517188" style="stroke: #000000; stroke-width: 1.875"/>
      </g>
     </g>
     <g id="text_2">
      <!-- −1 -->
      <g transform="translate(131.304336 384.554609) scale(0.165 -0.165)">
       <defs>
        <path id="DejaVuSans-31" d="M 794 531 
L 1825 531 
L 1825 4091 
L 703 3866 
L 703 4441 
L 1819 4666 
L 2450 4666 
L 2450 531 
L 3481 531 
L 3481 0 
L 794 0 
L 794 531 
z
" transform="scale(0.015625)"/>
       </defs>
       <use xlink:href="#DejaVuSans-2212"/>
       <use xlink:href="#DejaVuSans-31" x="83.789062"/>
      </g>
     </g>
    </g>
    <g id="xtick_3">
     <g id="line2d_3">
      <g>
       <use xlink:href="#mfd31111d23" x="227.166641" y="359.517188" style="stroke: #000000; stroke-width: 1.875"/>
      </g>
     </g>
     <g id="text_3">
      <!-- 0 -->
      <g transform="translate(221.917578 384.554609) scale(0.165 -0.165)">
       <defs>
        <path id="DejaVuSans-30" d="M 2034 4250 
Q 1547 4250 1301 3770 
Q 1056 3291 1056 2328 
Q 1056 1369 1301 889 
Q 1547 409 2034 409 
Q 2525 409 2770 889 
Q 3016 1369 3016 2328 
Q 3016 3291 2770 3770 
Q 2525 4250 2034 4250 
z
M 2034 4750 
Q 2819 4750 3233 4129 
Q 3647 3509 3647 2328 
Q 3647 1150 3233 529 
Q 2819 -91 2034 -91 
Q 1250 -91 836 529 
Q 422 1150 422 2328 
Q 422 3509 836 4129 
Q 1250 4750 2034 4750 
z
" transform="scale(0.015625)"/>
       </defs>
       <use xlink:href="#DejaVuSans-30"/>
      </g>
     </g>
    </g>
    <g id="xtick_4">
     <g id="line2d_4">
      <g>
       <use xlink:href="#mfd31111d23" x="310.866641" y="359.517188" style="stroke: #000000; stroke-width: 1.875"/>
      </g>
     </g>
     <g id="text_4">
      <!-- 1 -->
      <g transform="translate(305.617578 384.554609) scale(0.165 -0.165)">
       <use xlink:href="#DejaVuSans-31"/>
      </g>
     </g>
    </g>
    <g id="xtick_5">
     <g id="line2d_5">
      <g>
       <use xlink:href="#mfd31111d23" x="394.566641" y="359.517188" style="stroke: #000000; stroke-width: 1.875"/>
      </g>
     </g>
     <g id="text_5">
      <!-- 2 -->
      <g transform="translate(389.317578 384.554609) scale(0.165 -0.165)">
       <use xlink:href="#DejaVuSans-32"/>
      </g>
     </g>
    </g>
   </g>
   <g id="matplotlib.axis_2">
    <g id="ytick_1">
     <g id="line2d_6">
      <defs>
       <path id="m9abc152683" d="M 0 0 
L -9 0 
" style="stroke: #000000; stroke-width: 1.875"/>
      </defs>
      <g>
       <use xlink:href="#m9abc152683" x="59.766641" y="359.517188" style="stroke: #000000; stroke-width: 1.875"/>
      </g>
     </g>
     <g id="text_6">
      <!-- −2.0 -->
      <g transform="translate(7.2 365.785898) scale(0.165 -0.165)">
       <defs>
        <path id="DejaVuSans-2e" d="M 684 794 
L 1344 794 
L 1344 0 
L 684 0 
L 684 794 
z
" transform="scale(0.015625)"/>
       </defs>
       <use xlink:href="#DejaVuSans-2212"/>
       <use xlink:href="#DejaVuSans-32" x="83.789062"/>
       <use xlink:href="#DejaVuSans-2e" x="147.412109"/>
       <use xlink:href="#DejaVuSans-30" x="179.199219"/>
      </g>
     </g>
    </g>
    <g id="ytick_2">
     <g id="line2d_7">
      <g>
       <use xlink:href="#m9abc152683" x="59.766641" y="317.937188" style="stroke: #000000; stroke-width: 1.875"/>
      </g>
     </g>
     <g id="text_7">
      <!-- −1.5 -->
      <g transform="translate(7.2 324.205898) scale(0.165 -0.165)">
       <defs>
        <path id="DejaVuSans-35" d="M 691 4666 
L 3169 4666 
L 3169 4134 
L 1269 4134 
L 1269 2991 
Q 1406 3038 1543 3061 
Q 1681 3084 1819 3084 
Q 2600 3084 3056 2656 
Q 3513 2228 3513 1497 
Q 3513 744 3044 326 
Q 2575 -91 1722 -91 
Q 1428 -91 1123 -41 
Q 819 9 494 109 
L 494 744 
Q 775 591 1075 516 
Q 1375 441 1709 441 
Q 2250 441 2565 725 
Q 2881 1009 2881 1497 
Q 2881 1984 2565 2268 
Q 2250 2553 1709 2553 
Q 1456 2553 1204 2497 
Q 953 2441 691 2322 
L 691 4666 
z
" transform="scale(0.015625)"/>
       </defs>
       <use xlink:href="#DejaVuSans-2212"/>
       <use xlink:href="#DejaVuSans-31" x="83.789062"/>
       <use xlink:href="#DejaVuSans-2e" x="147.412109"/>
       <use xlink:href="#DejaVuSans-35" x="179.199219"/>
      </g>
     </g>
    </g>
    <g id="ytick_3">
     <g id="line2d_8">
      <g>
       <use xlink:href="#m9abc152683" x="59.766641" y="276.357188" style="stroke: #000000; stroke-width: 1.875"/>
      </g>
     </g>
     <g id="text_8">
      <!-- −1.0 -->
      <g transform="translate(7.2 282.625898) scale(0.165 -0.165)">
       <use xlink:href="#DejaVuSans-2212"/>
       <use xlink:href="#DejaVuSans-31" x="83.789062"/>
       <use xlink:href="#DejaVuSans-2e" x="147.412109"/>
       <use xlink:href="#DejaVuSans-30" x="179.199219"/>
      </g>
     </g>
    </g>
    <g id="ytick_4">
     <g id="line2d_9">
      <g>
       <use xlink:href="#m9abc152683" x="59.766641" y="234.777188" style="stroke: #000000; stroke-width: 1.875"/>
      </g>
     </g>
     <g id="text_9">
      <!-- −0.5 -->
      <g transform="translate(7.2 241.045898) scale(0.165 -0.165)">
       <use xlink:href="#DejaVuSans-2212"/>
       <use xlink:href="#DejaVuSans-30" x="83.789062"/>
       <use xlink:href="#DejaVuSans-2e" x="147.412109"/>
       <use xlink:href="#DejaVuSans-35" x="179.199219"/>
      </g>
     </g>
    </g>
    <g id="ytick_5">
     <g id="line2d_10">
      <g>
       <use xlink:href="#m9abc152683" x="59.766641" y="193.197188" style="stroke: #000000; stroke-width: 1.875"/>
      </g>
     </g>
     <g id="text_10">
      <!-- 0.0 -->
      <g transform="translate(21.026484 199.465898) scale(0.165 -0.165)">
       <use xlink:href="#DejaVuSans-30"/>
       <use xlink:href="#DejaVuSans-2e" x="63.623047"/>
       <use xlink:href="#DejaVuSans-30" x="95.410156"/>
      </g>
     </g>
    </g>
    <g id="ytick_6">
     <g id="line2d_11">
      <g>
       <use xlink:href="#m9abc152683" x="59.766641" y="151.617188" style="stroke: #000000; stroke-width: 1.875"/>
      </g>
     </g>
     <g id="text_11">
      <!-- 0.5 -->
      <g transform="translate(21.026484 157.885898) scale(0.165 -0.165)">
       <use xlink:href="#DejaVuSans-30"/>
       <use xlink:href="#DejaVuSans-2e" x="63.623047"/>
       <use xlink:href="#DejaVuSans-35" x="95.410156"/>
      </g>
     </g>
    </g>
    <g id="ytick_7">
     <g id="line2d_12">
      <g>
       <use xlink:href="#m9abc152683" x="59.766641" y="110.037188" style="stroke: #000000; stroke-width: 1.875"/>
      </g>
     </g>
     <g id="text_12">
      <!-- 1.0 -->
      <g transform="translate(21.026484 116.305898) scale(0.165 -0.165)">
       <use xlink:href="#DejaVuSans-31"/>
       <use xlink:href="#DejaVuSans-2e" x="63.623047"/>
       <use xlink:href="#DejaVuSans-30" x="95.410156"/>
      </g>
     </g>
    </g>
    <g id="ytick_8">
     <g id="line2d_13">
      <g>
       <use xlink:href="#m9abc152683" x="59.766641" y="68.457188" style="stroke: #000000; stroke-width: 1.875"/>
      </g>
     </g>
     <g id="text_13">
      <!-- 1.5 -->
      <g transform="translate(21.026484 74.725898) scale(0.165 -0.165)">
       <use xlink:href="#DejaVuSans-31"/>
       <use xlink:href="#DejaVuSans-2e" x="63.623047"/>
       <use xlink:href="#DejaVuSans-35" x="95.410156"/>
      </g>
     </g>
    </g>
    <g id="ytick_9">
     <g id="line2d_14">
      <g>
       <use xlink:href="#m9abc152683" x="59.766641" y="26.877188" style="stroke: #000000; stroke-width: 1.875"/>
      </g>
     </g>
     <g id="text_14">
      <!-- 2.0 -->
      <g transform="translate(21.026484 33.145898) scale(0.165 -0.165)">
       <use xlink:href="#DejaVuSans-32"/>
       <use xlink:href="#DejaVuSans-2e" x="63.623047"/>
       <use xlink:href="#DejaVuSans-30" x="95.410156"/>
      </g>
     </g>
    </g>
   </g>
   <g id="QuadContourSet_1">
    <path d="M 348.15119 26.877188 
L 344.797773 36.533404 
L 341.586251 45.523674 
L 332.77072 68.831782 
L 328.613539 79.153944 
L 325.834779 85.813404 
L 318.802758 101.796106 
L 312.311974 115.447998 
L 308.772046 122.460292 
L 302.691807 133.761512 
L 298.047722 141.776476 
L 292.865758 150.077188 
L 289.527633 155.071782 
L 286.229213 159.733404 
L 282.717822 164.395025 
L 279.502795 168.390701 
L 276.054784 172.386377 
L 272.638819 176.049079 
L 269.561235 179.094467 
L 266.209884 182.134248 
L 262.858533 184.885477 
L 259.507181 187.347698 
L 256.396939 189.367998 
L 253.139614 191.208867 
L 250.458533 192.5112 
L 247.567911 193.696647 
L 244.761235 194.621453 
L 242.080154 195.293155 
L 239.399073 195.747859 
L 236.717992 195.970044 
L 234.372046 195.9536 
L 231.939455 195.694485 
L 230.015289 195.246111 
L 228.581318 194.695566 
L 227.589556 194.02962 
L 227.183649 193.363674 
L 227.183515 193.030701 
L 227.334208 192.677073 
L 228.004478 192.017142 
L 229.345019 191.262268 
L 231.690965 190.261575 
L 239.520586 187.037188 
L 242.750424 185.484342 
L 247.188998 183.041512 
L 250.458533 181.00223 
L 254.145019 178.443714 
L 258.166641 175.330264 
L 261.989153 172.053404 
L 265.54332 168.723674 
L 269.469932 164.727998 
L 273.10044 160.732323 
L 277.036796 156.070701 
L 281.290965 150.645618 
L 283.761418 147.310238 
M 291.4285 136.09169 
L 296.036911 128.711268 
L 299.547643 122.773404 
L 305.293106 112.451242 
L 311.453127 100.553209 
L 314.606997 94.137728 
L 320.676186 81.151782 
L 328.086697 64.17016 
L 337.09757 41.860971 
L 342.773012 26.877188 
L 342.773012 26.877188 
" clip-path="url(#p99ab480948)" style="fill: none; stroke: #fde725; stroke-width: 2.25"/>
    <path d="M 350.843389 26.877188 
L 346.378103 39.863133 
L 342.95583 49.48866 
L 335.095877 70.496647 
L 330.880308 81.151782 
L 324.188262 97.168214 
L 317.793286 111.452323 
L 312.210649 123.106377 
L 308.673317 130.098809 
L 304.415289 138.114269 
L 299.34357 147.080431 
L 294.909336 154.405836 
L 291.266818 160.066377 
L 287.323397 165.830017 
L 282.966641 171.756165 
L 278.750838 177.047998 
L 275.258533 181.105381 
L 271.572046 185.064375 
L 267.873964 188.702052 
L 264.199073 191.985407 
L 260.843577 194.695566 
L 257.49637 197.123375 
L 254.145019 199.28012 
L 251.060459 201.022052 
L 247.777451 202.619201 
L 244.761235 203.853164 
L 241.745019 204.863903 
L 238.583477 205.683674 
L 235.712587 206.213759 
L 232.69637 206.552339 
L 229.680154 206.667068 
L 226.663938 206.555251 
L 223.647722 206.218868 
L 220.631505 205.657443 
L 217.615289 204.868338 
L 214.599073 203.853223 
L 211.582857 202.611123 
L 208.341444 201.022052 
L 205.215289 199.238329 
L 202.199073 197.284242 
L 198.847722 194.841742 
L 195.790324 192.364755 
L 192.433631 189.367998 
L 189.036836 186.038269 
L 185.611742 182.375566 
L 182.090965 178.288168 
L 178.404478 173.6506 
L 174.543824 168.390701 
L 171.353518 163.729079 
L 167.32244 157.402593 
L 163.210959 150.41016 
L 160.292693 145.082593 
L 156.437147 137.424215 
L 154.754773 133.761512 
L 153.494333 130.764755 
L 152.538744 128.100971 
L 152.224032 126.769079 
L 152.263938 126.14264 
L 152.599073 126.072028 
L 153.604478 126.869983 
L 155.819874 129.432863 
L 157.961235 132.134959 
L 163.658533 139.437438 
L 167.970316 144.74962 
L 173.377451 150.984705 
L 177.203731 155.071782 
L 181.238251 159.067458 
L 185.107181 162.586806 
L 188.893993 165.726917 
L 192.480154 168.418984 
L 195.890793 170.721512 
L 199.211325 172.71935 
L 202.534208 174.476905 
L 206.00327 176.049079 
L 208.901776 177.159201 
L 212.253127 178.207572 
L 215.604478 179.003205 
L 218.95583 179.547169 
L 221.972046 179.819204 
L 224.988262 179.885551 
L 228.004478 179.744708 
L 231.141964 179.378809 
L 234.036911 178.844224 
L 237.388262 177.984835 
L 240.404478 176.99232 
L 243.593239 175.716106 
L 246.436911 174.382454 
L 249.533081 172.71935 
L 252.807179 170.721512 
L 256.201146 168.390701 
L 259.680029 165.726917 
L 262.858533 163.049519 
L 266.545019 159.653584 
L 270.231505 155.944289 
L 274.076058 151.742052 
L 277.939614 147.175641 
L 281.68605 142.418809 
L 285.845858 136.758269 
L 290.004478 130.698476 
L 293.831338 124.771242 
L 298.480911 117.112863 
L 303.074749 109.054388 
L 306.994295 101.796106 
L 312.265131 91.473944 
L 314.173113 87.577278 
M 319.91066 75.357635 
L 323.860659 66.500971 
L 327.717739 57.510701 
L 334.104783 41.860971 
L 339.887362 26.877188 
L 339.887362 26.877188 
" clip-path="url(#p99ab480948)" style="fill: none; stroke: #b5de2b; stroke-width: 2.25"/>
    <path d="M 121.768369 38.090259 
L 125.879626 47.854485 
L 130.815289 59.057425 
L 134.865854 67.832863 
L 139.210503 76.823133 
L 143.434962 85.147458 
L 148.43864 94.470701 
L 153.269343 102.919967 
L 157.290965 109.541823 
L 161.312587 115.787833 
L 165.334208 121.658867 
L 169.35583 127.153258 
L 173.234677 132.096647 
L 177.173943 136.758269 
L 180.822819 140.753944 
L 184.448076 144.416647 
L 188.123397 147.817855 
L 191.809884 150.912978 
L 195.49637 153.690842 
L 199.053544 156.070701 
L 202.199073 157.930132 
L 205.713866 159.733404 
L 208.901776 161.120709 
L 211.917992 162.214646 
L 215.269343 163.180726 
L 218.28556 163.825931 
L 221.301776 164.258754 
L 224.317992 164.478876 
L 227.334208 164.486562 
L 230.350424 164.281682 
L 233.366641 163.864162 
L 236.382857 163.233976 
L 239.399073 162.390654 
L 242.415289 161.335326 
L 245.432259 160.066377 
L 248.447722 158.586128 
L 251.799073 156.690711 
L 255.150424 154.533048 
L 258.550234 152.075025 
L 261.873794 149.411242 
L 265.27846 146.414485 
L 268.890965 142.938589 
L 272.577451 139.075866 
L 276.378731 134.760431 
L 280.28556 129.972707 
L 284.233671 124.771242 
L 288.246595 119.110701 
L 292.350424 112.931928 
L 296.394216 106.457728 
L 300.516253 99.465296 
L 305.143411 91.140971 
L 309.514919 82.816647 
L 313.992755 73.826377 
L 319.172944 62.838269 
L 323.517992 53.138301 
L 327.781346 43.192863 
L 333.489767 29.207998 
L 334.412248 26.877188 
M 355.622116 26.877188 
L 349.56893 44.986585 
M 342.962314 63.746968 
L 338.934208 74.668193 
L 332.564565 91.140971 
L 326.534208 105.835742 
L 320.748085 119.110701 
L 315.985986 129.432863 
L 311.78403 138.09016 
L 306.653778 148.07935 
L 302.294674 156.070701 
L 298.047722 163.417919 
L 293.35583 171.028413 
L 288.934802 177.713944 
L 284.922812 183.374485 
L 280.95583 188.590595 
L 276.934208 193.491523 
L 273.201152 197.692323 
L 269.561235 201.465217 
L 265.812093 205.017728 
L 262.188262 208.129832 
L 258.836911 210.726604 
L 255.48556 213.052675 
L 252.134208 215.10799 
L 248.782857 216.892889 
L 245.602114 218.336647 
L 242.415289 219.53867 
L 239.399073 220.450945 
L 236.382857 221.143905 
L 233.366641 221.617844 
L 230.350424 221.872024 
L 227.334208 221.907145 
L 224.317992 221.72294 
L 221.301776 221.319412 
L 218.168755 220.667458 
L 215.269343 219.853218 
L 212.253127 218.791109 
L 209.236911 217.509387 
L 206.215558 216.005836 
L 202.869343 214.082592 
L 199.517992 211.885591 
L 196.075333 209.346377 
L 192.815289 206.678389 
L 189.463938 203.667403 
L 185.75933 200.023133 
L 182.037469 196.027458 
L 178.317313 191.698809 
L 174.598595 187.037188 
L 170.881122 182.042593 
L 167.164753 176.715025 
L 163.323397 170.85764 
L 158.936071 163.729079 
L 154.514011 156.070701 
L 150.253127 148.244551 
L 145.216133 138.423133 
L 140.078694 127.767998 
L 135.669132 118.111782 
L 131.603052 108.788539 
L 127.702167 99.465296 
L 122.768779 87.145296 
L 116.404478 70.36921 
L 109.663389 51.517188 
L 103.138306 32.204755 
L 101.397226 26.877188 
L 101.397226 26.877188 
" clip-path="url(#p99ab480948)" style="fill: none; stroke: #6ece58; stroke-width: 2.25"/>
    <path d="M 129.772739 26.877188 
L 134.874924 38.198269 
L 139.528803 47.990185 
L 143.962399 56.844755 
L 148.540632 65.502052 
L 153.018974 73.493404 
L 157.378396 80.818809 
L 161.647722 87.559082 
L 165.669343 93.515752 
L 169.721406 99.132323 
L 173.712587 104.28679 
L 177.463461 108.788539 
L 181.362586 113.117188 
L 184.946332 116.77989 
L 188.495959 120.10962 
L 192.145019 123.223509 
L 195.49637 125.806664 
L 198.847722 128.125359 
L 202.199073 130.17963 
L 205.550424 131.96926 
L 208.901776 133.494178 
L 212.253127 134.754443 
L 215.604478 135.75026 
L 218.648439 136.425296 
L 221.636911 136.87611 
L 224.653127 137.117276 
L 227.669343 137.144317 
L 230.68556 136.957057 
L 233.701776 136.55534 
L 236.717992 135.939282 
L 239.782559 135.093404 
L 242.750424 134.063912 
L 245.858841 132.762593 
L 249.117992 131.154354 
L 252.469343 129.239333 
L 255.820695 127.059425 
L 259.172046 124.615122 
L 262.677736 121.774485 
L 266.040728 118.777728 
L 269.561235 115.355362 
L 273.252944 111.452323 
L 277.032696 107.123674 
L 280.95583 102.274961 
L 284.977451 96.92781 
L 289.038749 91.140971 
L 293.196432 84.814485 
L 297.377451 78.041429 
L 301.573784 70.82962 
L 306.090965 62.602129 
L 310.463118 54.180971 
L 314.591417 45.816548 
M 322.906395 27.749054 
L 323.289802 26.877188 
M 364.145641 26.877188 
L 359.471047 41.860971 
L 354.843558 56.178809 
L 349.813261 71.162593 
L 344.924035 85.147458 
L 339.197925 100.797188 
L 333.819788 114.782052 
L 328.707126 127.435025 
L 324.188262 138.100015 
L 318.8261 150.119569 
L 313.651626 161.065296 
L 309.327391 169.722593 
L 304.941172 178.046917 
L 300.673451 185.705296 
L 296.34302 193.030701 
L 291.936953 200.023133 
L 287.904087 206.016647 
L 283.972046 211.486257 
L 279.950424 216.697722 
L 275.928803 221.522047 
L 272.188268 225.662052 
L 268.55583 229.362483 
L 264.869343 232.794949 
L 261.496078 235.651242 
L 258.012232 238.315025 
L 254.59567 240.645836 
L 251.463938 242.537213 
L 248.097782 244.308539 
L 244.761235 245.796509 
L 241.564767 246.972323 
L 238.728803 247.811148 
L 235.712587 248.492063 
L 232.568143 248.97016 
L 229.680154 249.201086 
L 226.663938 249.229197 
L 223.647722 249.039655 
L 220.631505 248.632632 
L 217.467303 247.971242 
L 214.599073 247.165163 
L 211.582857 246.105094 
L 208.566641 244.827369 
L 205.508248 243.30962 
L 202.199073 241.41525 
L 198.847722 239.229774 
L 195.334811 236.65016 
L 192.067633 233.986377 
L 188.717519 230.98962 
L 185.107181 227.459608 
L 181.420695 223.533161 
L 177.734208 219.281613 
L 173.765712 214.340971 
L 170.0261 209.340996 
L 165.844795 203.352863 
L 161.924346 197.35935 
L 157.826056 190.69989 
L 153.766562 183.707458 
L 149.739971 176.382052 
L 145.561235 168.370697 
L 140.642039 158.401512 
L 136.432313 149.411242 
L 131.681907 138.756106 
L 127.017242 127.767998 
L 122.101776 115.626623 
L 116.392737 100.797188 
L 110.551532 84.814485 
L 105.668338 70.82962 
L 105.507953 70.358588 
M 99.221807 51.488298 
L 93.514991 33.536647 
L 91.458862 26.877188 
L 91.458862 26.877188 
" clip-path="url(#p99ab480948)" style="fill: none; stroke: #35b779; stroke-width: 2.25"/>
    <path d="M 156.057948 26.877188 
L 160.366703 33.86962 
L 164.521266 40.196106 
L 168.488692 45.856647 
L 172.486625 51.184215 
L 176.393668 56.025754 
L 180.302199 60.507458 
L 183.766641 64.178353 
L 187.517971 67.832863 
L 191.139614 71.045715 
L 194.601579 73.826377 
L 197.842316 76.173087 
L 201.193668 78.338533 
L 204.545019 80.238248 
L 207.89637 81.872367 
L 211.247722 83.240947 
L 214.263938 84.245557 
L 217.280154 85.035035 
L 220.29637 85.609375 
L 223.312587 85.968576 
L 226.328803 86.112552 
L 229.345019 86.041535 
L 232.361235 85.755277 
L 235.377451 85.253955 
L 238.595127 84.481512 
L 241.409884 83.605822 
L 244.4261 82.458955 
L 247.777451 80.932507 
L 251.128803 79.140275 
L 254.480154 77.082599 
L 257.831505 74.759239 
L 261.19351 72.161512 
L 264.702825 69.164755 
L 268.220695 65.868863 
L 271.907181 62.100707 
L 275.738478 57.843674 
L 279.34861 53.515025 
L 283.301776 48.42165 
L 285.658224 45.209518 
M 378.960711 26.877188 
L 377.754807 31.214042 
M 370.525718 56.479994 
L 365.039177 74.825296 
L 359.016153 94.137728 
L 353.009884 112.535637 
L 347.111112 129.765836 
L 342.222795 143.417728 
L 336.861352 157.735566 
L 331.561235 171.216813 
L 326.199073 184.17398 
L 321.024424 196.027458 
L 316.430752 206.016647 
L 311.586097 216.005836 
L 307.324848 224.33016 
L 303.00823 232.321512 
L 298.625929 239.97989 
L 294.361235 246.993923 
L 290.004478 253.711166 
L 285.900017 259.625296 
L 281.938851 264.952863 
L 277.939614 269.9521 
L 274.204909 274.276106 
L 270.466295 278.271782 
L 266.880154 281.791902 
L 263.193668 285.090755 
L 259.686791 287.927998 
L 256.490965 290.258994 
L 253.139614 292.4414 
L 249.788262 294.35627 
L 246.436911 296.003451 
L 243.08556 297.382912 
L 240.069343 298.395577 
L 236.79618 299.249079 
L 234.036911 299.770442 
L 231.020695 300.132647 
L 228.004478 300.278092 
L 224.988262 300.206622 
L 221.947184 299.915025 
L 218.95583 299.413156 
L 215.939614 298.691234 
L 212.923397 297.752452 
L 209.879565 296.585296 
L 206.55583 295.058559 
L 203.204478 293.252687 
L 199.853127 291.178912 
L 196.501776 288.837525 
L 193.150424 286.228504 
L 189.704517 283.266377 
L 186.112587 279.878069 
L 182.4261 276.080465 
L 178.727775 271.945296 
L 174.869794 267.283674 
L 171.275565 262.622052 
L 167.345019 257.171997 
L 163.16296 250.967998 
L 159.16112 244.641512 
L 154.994412 237.649079 
L 150.923397 230.417529 
L 146.269626 221.666377 
L 142.077985 213.342052 
L 137.517992 203.811848 
L 132.476559 192.697728 
L 127.462682 181.043674 
L 122.156881 168.057728 
L 117.6132 156.403674 
L 112.640029 143.084755 
L 107.291004 128.100971 
L 101.725054 111.785296 
L 96.822345 96.801512 
L 91.479231 79.81989 
L 85.907181 61.387246 
L 79.478139 39.197188 
L 76.026571 26.877188 
L 76.026571 26.877188 
" clip-path="url(#p99ab480948)" style="fill: none; stroke: #1f9e89; stroke-width: 2.25"/>
    <path d="M 171.472388 359.517188 
L 167.680154 354.306602 
L 163.519942 348.196106 
L 159.480644 341.86962 
L 155.473601 335.21016 
L 151.258533 327.79322 
L 146.66467 319.227458 
L 142.43794 310.903133 
L 137.853127 301.393562 
L 132.915421 290.591782 
L 128.426733 280.26962 
L 123.442316 268.245882 
L 118.200914 254.963674 
L 113.30881 241.977728 
L 108.0261 227.316035 
L 102.413908 211.011242 
L 97.301776 195.508402 
L 91.465563 177.047998 
L 85.907181 158.714938 
L 79.809881 137.757188 
L 73.766867 116.113944 
L 67.601998 93.138809 
L 65.877504 86.550595 
M 390.434989 80.231851 
L 384.155755 104.126917 
L 377.778206 127.435025 
L 371.603789 149.078269 
L 365.963406 168.057728 
L 360.2943 186.371242 
L 354.68556 203.737936 
L 348.853638 221.000431 
L 343.554909 235.984215 
L 338.255506 250.302052 
L 332.901776 264.08779 
L 327.653354 276.93989 
L 322.93819 287.927998 
L 318.440203 297.917188 
L 313.708113 307.906377 
L 309.044749 317.22962 
L 304.415289 325.973542 
L 299.783394 334.211242 
L 295.701776 341.047737 
L 291.345019 347.907553 
L 287.076865 354.18962 
L 283.202467 359.517188 
L 283.202467 359.517188 
" clip-path="url(#p99ab480948)" style="fill: none; stroke: #26828e; stroke-width: 2.25"/>
    <path d="M 91.32056 359.517188 
L 85.963675 341.86962 
L 80.515828 323.223133 
L 74.435919 301.57989 
L 68.412219 279.270701 
L 66.156213 270.693815 
M 389.395877 266.704263 
L 383.343123 289.592863 
L 377.474749 310.953729 
L 371.299465 332.546377 
L 365.543091 351.858809 
L 363.19291 359.517188 
L 363.19291 359.517188 
" clip-path="url(#p99ab480948)" style="fill: none; stroke: #31688e; stroke-width: 2.25"/>
    <path clip-path="url(#p99ab480948)" style="fill: none; stroke: #3e4989; stroke-width: 2.25"/>
    <path clip-path="url(#p99ab480948)" style="fill: none; stroke: #482878; stroke-width: 2.25"/>
    <path clip-path="url(#p99ab480948)" style="fill: none; stroke: #440154; stroke-width: 2.25"/>
   </g>
   <g id="QuadContourSet_2">
    <path d="M 272.912587 169.175937 
L 273.247722 169.244333 
L 273.582857 169.129301 
L 273.688428 169.056647 
L 273.917992 168.959968 
L 274.235593 168.723674 
L 274.253127 168.715371 
L 274.588262 168.501324 
L 274.711036 168.390701 
L 274.923397 168.250667 
L 275.132637 168.057728 
L 275.258533 167.969486 
L 275.518859 167.724755 
L 275.593668 167.669237 
L 275.884055 167.391782 
L 275.928803 167.356733 
L 276.236395 167.058809 
L 276.263938 167.036101 
L 276.580627 166.725836 
L 276.599073 166.709864 
L 276.919544 166.392863 
L 276.934208 166.379553 
L 277.254778 166.05989 
L 277.269343 166.046055 
L 277.587241 165.726917 
L 277.604478 165.709806 
L 277.917357 165.393944 
L 277.939614 165.370882 
L 278.24518 165.060971 
L 278.274749 165.029021 
L 278.570428 164.727998 
L 278.609884 164.683579 
L 278.892443 164.395025 
L 278.945019 164.333403 
L 279.210078 164.062052 
L 279.280154 163.976599 
L 279.521468 163.729079 
L 279.615289 163.610113 
L 279.823621 163.396106 
L 279.950424 163.228997 
L 280.111713 163.063133 
L 280.28556 162.825118 
L 280.377829 162.73016 
L 280.619558 162.397188 
L 280.620695 162.395653 
L 280.940802 162.064215 
L 280.95583 162.043132 
L 281.256858 161.731242 
L 281.290965 161.68155 
L 281.564285 161.398269 
L 281.6261 161.304774 
L 281.857138 161.065296 
L 281.961235 160.901895 
L 282.124854 160.732323 
L 282.29637 160.452984 
L 282.348139 160.39935 
L 282.62129 160.066377 
L 282.631505 160.049932 
L 282.934655 159.733404 
L 282.966641 159.679983 
L 283.234523 159.400431 
L 283.301776 159.283933 
L 283.509361 159.067458 
L 283.636911 158.838343 
L 283.736589 158.734485 
L 283.965244 158.401512 
L 283.972046 158.389416 
L 284.277222 158.068539 
L 284.307181 158.01331 
L 284.571631 157.735566 
L 284.642316 157.600495 
L 284.83098 157.402593 
L 284.977451 157.112504 
L 285.018388 157.06962 
L 285.296525 156.736647 
L 285.312587 156.705116 
L 285.597386 156.403674 
L 285.647722 156.30129 
L 285.865945 156.070701 
L 285.982857 155.824333 
L 286.06496 155.737728 
L 286.304869 155.404755 
L 286.317992 155.377304 
L 286.604219 155.071782 
L 286.653127 154.965825 
L 286.866264 154.738809 
L 286.988262 154.465102 
L 287.044027 154.405836 
L 287.304341 154.072863 
L 287.323397 154.030351 
L 287.593023 153.73989 
L 287.658533 153.588615 
L 287.827649 153.406917 
L 287.989421 153.073944 
L 287.993668 153.06417 
L 288.289714 152.740971 
L 288.328803 152.6479 
L 288.549273 152.407998 
L 288.663938 152.125551 
L 288.710523 152.075025 
L 288.97214 151.742052 
L 288.999073 151.675789 
L 289.240549 151.409079 
L 289.334208 151.170844 
L 289.420325 151.076106 
L 289.645634 150.743133 
L 289.669343 150.682703 
L 289.911798 150.41016 
L 290.004478 150.166134 
L 290.083992 150.077188 
L 290.310307 149.744215 
L 290.339614 149.666589 
L 290.562093 149.411242 
L 290.674749 149.103302 
L 290.696691 149.078269 
L 290.961099 148.745296 
L 291.009884 148.610496 
L 291.178326 148.412323 
L 291.330034 148.07935 
L 291.345019 148.03716 
L 291.582679 147.746377 
L 291.680154 147.464074 
L 291.721965 147.413404 
L 291.953091 147.080431 
L 292.015289 146.895355 
L 292.131631 146.747458 
L 292.305009 146.414485 
L 292.350424 146.273583 
L 292.492251 146.081512 
L 292.641286 145.748539 
L 292.68556 145.602087 
L 292.811855 145.415566 
L 292.953781 145.082593 
L 293.020695 144.837807 
L 293.073405 144.74962 
L 293.212739 144.416647 
L 293.290263 144.083674 
L 293.33429 143.750701 
L 293.292224 143.417728 
L 293.020695 143.219884 
L 292.68556 143.27559 
L 292.435506 143.417728 
L 292.350424 143.445946 
L 292.015289 143.628768 
L 291.868326 143.750701 
L 291.680154 143.855973 
L 291.416042 144.083674 
L 291.345019 144.126578 
L 291.019021 144.416647 
L 291.009884 144.422566 
L 290.674749 144.689554 
L 290.612457 144.74962 
L 290.339614 144.968899 
L 290.223039 145.082593 
L 290.004478 145.26704 
L 289.85364 145.415566 
L 289.669343 145.578583 
L 289.498128 145.748539 
L 289.334208 145.900272 
L 289.152857 146.081512 
L 288.999073 146.23028 
L 288.815797 146.414485 
L 288.663938 146.567835 
L 288.486061 146.747458 
L 288.328803 146.913064 
L 288.163708 147.080431 
L 287.993668 147.267008 
L 287.849719 147.413404 
L 287.658533 147.631821 
L 287.546183 147.746377 
L 287.323397 148.011202 
L 287.2567 148.07935 
L 286.988262 148.411184 
L 286.987149 148.412323 
L 286.663555 148.745296 
L 286.653127 148.757988 
L 286.341606 149.078269 
L 286.317992 149.108161 
L 286.023678 149.411242 
L 285.982857 149.464957 
L 285.711999 149.744215 
L 285.647722 149.832098 
L 285.4102 150.077188 
L 285.312587 150.215803 
L 285.124326 150.41016 
L 284.977451 150.626711 
L 284.864708 150.743133 
L 284.642922 151.076106 
L 284.642316 151.076988 
L 284.32294 151.409079 
L 284.307181 151.432898 
L 284.009892 151.742052 
L 283.972046 151.801419 
L 283.708899 152.075025 
L 283.636911 152.192195 
L 283.429282 152.407998 
L 283.301776 152.623279 
L 283.188482 152.740971 
L 282.970459 153.073944 
L 282.966641 153.080321 
L 282.654873 153.406917 
L 282.631505 153.447392 
L 282.352072 153.73989 
L 282.29637 153.839934 
L 282.073641 154.072863 
L 281.961235 154.282172 
L 281.842862 154.405836 
L 281.631507 154.738809 
L 281.6261 154.748782 
L 281.319899 155.071782 
L 281.290965 155.127095 
L 281.02739 155.404755 
L 280.95583 155.546532 
L 280.77407 155.737728 
L 280.620695 156.052608 
L 280.603468 156.070701 
L 280.305549 156.403674 
L 280.28556 156.444375 
L 280.010307 156.736647 
L 279.950424 156.862955 
L 279.755425 157.06962 
L 279.615289 157.375785 
L 279.589946 157.402593 
L 279.301767 157.735566 
L 279.280154 157.78247 
L 279.013062 158.068539 
L 278.945019 158.221436 
L 278.776487 158.401512 
L 278.613425 158.734485 
L 278.609884 158.742406 
L 278.310121 159.067458 
L 278.274749 159.149342 
L 278.042515 159.400431 
L 277.939614 159.64694 
L 277.859408 159.733404 
L 277.623995 160.066377 
L 277.604478 160.113012 
L 277.343286 160.39935 
L 277.269343 160.582087 
L 277.13181 160.732323 
L 276.946578 161.065296 
L 276.934208 161.095878 
L 276.662832 161.398269 
L 276.599073 161.561181 
L 276.445786 161.731242 
L 276.275573 162.064215 
L 276.263938 162.094062 
L 275.997091 162.397188 
L 275.928803 162.578075 
L 275.794199 162.73016 
L 275.612347 163.063133 
L 275.593668 163.11303 
L 275.350103 163.396106 
L 275.258533 163.648383 
L 275.188639 163.729079 
L 274.96329 164.062052 
L 274.923397 164.173484 
L 274.737912 164.395025 
L 274.599271 164.727998 
L 274.588262 164.759463 
L 274.346588 165.060971 
L 274.253127 165.335447 
L 274.205732 165.393944 
L 273.983566 165.726917 
L 273.917992 165.925851 
L 273.815047 166.05989 
L 273.638756 166.392863 
L 273.582857 166.571104 
L 273.472238 166.725836 
L 273.313932 167.058809 
L 273.247722 167.286786 
L 273.179795 167.391782 
L 273.025995 167.724755 
L 272.936831 168.057728 
L 272.912587 168.180797 
L 272.828775 168.390701 
L 272.775318 168.723674 
L 272.825698 169.056647 
L 272.912587 169.175937 
z
" clip-path="url(#p99ab480948)" style="fill: none; stroke-dasharray: 2.25,3.7125; stroke-dashoffset: 0; stroke: #000000; stroke-width: 2.25"/>
    <path d="M 273.917992 168.391234 
L 273.918952 168.390701 
L 274.253127 168.280557 
L 274.588262 168.069827 
L 274.602824 168.057728 
L 274.923397 167.874478 
L 275.096568 167.724755 
L 275.258533 167.624623 
L 275.519214 167.391782 
L 275.593668 167.342369 
L 275.902733 167.058809 
L 275.928803 167.040344 
L 276.263938 166.726224 
L 276.264334 166.725836 
L 276.599073 166.435994 
L 276.642676 166.392863 
L 276.934208 166.128259 
L 277.002771 166.05989 
L 277.269343 165.806682 
L 277.348799 165.726917 
L 277.604478 165.473107 
L 277.682893 165.393944 
L 277.939614 165.127926 
L 278.00563 165.060971 
L 278.274749 164.770173 
L 278.316175 164.727998 
L 278.609884 164.397339 
L 278.61215 164.395025 
L 278.936482 164.062052 
L 278.945019 164.052608 
L 279.260695 163.729079 
L 279.280154 163.706643 
L 279.582178 163.396106 
L 279.615289 163.356351 
L 279.899744 163.063133 
L 279.950424 162.999815 
L 280.211509 162.73016 
L 280.28556 162.633949 
L 280.514462 162.397188 
L 280.620695 162.253728 
L 280.803729 162.064215 
L 280.95583 161.850826 
L 281.071249 161.731242 
L 281.290965 161.41113 
L 281.303374 161.398269 
L 281.611693 161.065296 
L 281.6261 161.04456 
L 281.925065 160.732323 
L 281.961235 160.678264 
L 282.228243 160.39935 
L 282.29637 160.293657 
L 282.513971 160.066377 
L 282.631505 159.877159 
L 282.769185 159.733404 
L 282.966641 159.403629 
L 282.969705 159.400431 
L 283.282975 159.067458 
L 283.301776 159.036377 
L 283.588381 158.734485 
L 283.636911 158.651271 
L 283.874215 158.401512 
L 283.972046 158.227559 
L 284.123285 158.068539 
L 284.306709 157.735566 
L 284.307181 157.734734 
L 284.61961 157.402593 
L 284.642316 157.361093 
L 284.916856 157.06962 
L 284.977451 156.954832 
L 285.183264 156.736647 
L 285.312587 156.482778 
L 285.387323 156.403674 
L 285.633585 156.070701 
L 285.647722 156.04314 
L 285.932672 155.737728 
L 285.982857 155.636372 
L 286.199393 155.404755 
L 286.317992 155.156658 
L 286.397508 155.071782 
L 286.63714 154.738809 
L 286.653127 154.705532 
L 286.92986 154.405836 
L 286.988262 154.27998 
L 287.180011 154.072863 
L 287.323397 153.752989 
L 287.335557 153.73989 
L 287.628447 153.406917 
L 287.658533 153.339994 
L 287.90143 153.073944 
L 287.993668 152.861661 
L 288.104218 152.740971 
L 288.312607 152.407998 
L 288.328803 152.370722 
L 288.59436 152.075025 
L 288.663938 151.909448 
L 288.814886 151.742052 
L 288.988466 151.409079 
L 288.999073 151.383744 
L 289.270017 151.076106 
L 289.334208 150.91772 
L 289.488751 150.743133 
L 289.657016 150.41016 
L 289.669343 150.379494 
L 289.929476 150.077188 
L 290.004478 149.884665 
L 290.126101 149.744215 
L 290.314979 149.411242 
L 290.339614 149.347128 
L 290.564611 149.078269 
L 290.674749 148.782942 
L 290.706504 148.745296 
L 290.951516 148.412323 
L 291.009884 148.252516 
L 291.150007 148.07935 
L 291.315431 147.746377 
L 291.345019 147.662647 
L 291.53601 147.413404 
L 291.666442 147.080431 
L 291.680154 147.039589 
L 291.888121 146.747458 
L 292.005311 146.414485 
L 292.015289 146.382292 
L 292.208281 146.081512 
L 292.322575 145.748539 
L 292.350424 145.646153 
L 292.476923 145.415566 
L 292.584833 145.082593 
L 292.651681 144.74962 
L 292.680987 144.416647 
L 292.437956 144.083674 
L 292.350424 144.052922 
L 292.265976 144.083674 
L 292.015289 144.135155 
L 291.680154 144.289228 
L 291.51342 144.416647 
L 291.345019 144.501258 
L 291.038268 144.74962 
L 291.009884 144.765332 
L 290.674749 145.01379 
L 290.601039 145.082593 
L 290.339614 145.27428 
L 290.190977 145.415566 
L 290.004478 145.560192 
L 289.80932 145.748539 
L 289.669343 145.86299 
L 289.44578 146.081512 
L 289.334208 146.177452 
L 289.094274 146.414485 
L 288.999073 146.500393 
L 288.751199 146.747458 
L 288.663938 146.829942 
L 288.414486 147.080431 
L 288.328803 147.165139 
L 288.083083 147.413404 
L 287.993668 147.505736 
L 287.756701 147.746377 
L 287.658533 147.85214 
L 287.43572 148.07935 
L 287.323397 148.205484 
L 287.121245 148.412323 
L 286.988262 148.567847 
L 286.815301 148.745296 
L 286.653127 148.94268 
L 286.521247 149.078269 
L 286.317992 149.335564 
L 286.244503 149.411242 
L 285.98422 149.744215 
L 285.982857 149.745915 
L 285.663051 150.077188 
L 285.647722 150.097081 
L 285.345959 150.41016 
L 285.312587 150.455182 
L 285.035355 150.743133 
L 284.977451 150.824298 
L 284.735192 151.076106 
L 284.642316 151.211316 
L 284.452125 151.409079 
L 284.307181 151.628151 
L 284.197651 151.742052 
L 283.973952 152.075025 
L 283.972046 152.077874 
L 283.65725 152.407998 
L 283.636911 152.439548 
L 283.349451 152.740971 
L 283.301776 152.817715 
L 283.057325 153.073944 
L 282.966641 153.225386 
L 282.793352 153.406917 
L 282.631505 153.687244 
L 282.581211 153.73989 
L 282.309976 154.072863 
L 282.29637 154.096206 
L 282.003519 154.405836 
L 281.961235 154.481062 
L 281.717193 154.738809 
L 281.6261 154.906818 
L 281.469715 155.071782 
L 281.291637 155.404755 
L 281.290965 155.405984 
L 280.98015 155.737728 
L 280.95583 155.783856 
L 280.686648 156.070701 
L 280.620695 156.20032 
L 280.429532 156.403674 
L 280.28556 156.696823 
L 280.248054 156.736647 
L 279.971219 157.06962 
L 279.950424 157.111702 
L 279.680089 157.402593 
L 279.615289 157.5384 
L 279.431635 157.735566 
L 279.280154 158.064312 
L 279.276208 158.068539 
L 278.97423 158.401512 
L 278.945019 158.464643 
L 278.696895 158.734485 
L 278.609884 158.929114 
L 278.482303 159.067458 
L 278.286298 159.400431 
L 278.274749 159.426227 
L 277.996564 159.733404 
L 277.939614 159.864974 
L 277.756558 160.066377 
L 277.6071 160.39935 
L 277.604478 160.405417 
L 277.313714 160.732323 
L 277.269343 160.838464 
L 277.066679 161.065296 
L 276.934208 161.392805 
L 276.929305 161.398269 
L 276.643242 161.731242 
L 276.599073 161.840979 
L 276.403632 162.064215 
L 276.266571 162.397188 
L 276.263938 162.4038 
L 275.986998 162.73016 
L 275.928803 162.880895 
L 275.773068 163.063133 
L 275.610232 163.396106 
L 275.593668 163.439758 
L 275.355614 163.729079 
L 275.258533 163.99245 
L 275.200753 164.062052 
L 274.977855 164.395025 
L 274.923397 164.546559 
L 274.779597 164.727998 
L 274.619417 165.060971 
L 274.588262 165.151165 
L 274.407309 165.393944 
L 274.274227 165.726917 
L 274.253127 165.791865 
L 274.069507 166.05989 
L 273.945771 166.392863 
L 273.917992 166.487091 
L 273.773178 166.725836 
L 273.652824 167.058809 
L 273.582857 167.33826 
L 273.556025 167.391782 
L 273.456676 167.724755 
L 273.438183 168.057728 
L 273.582857 168.370102 
L 273.902584 168.390701 
L 273.917992 168.391234 
z
" clip-path="url(#p99ab480948)" style="fill: none; stroke-dasharray: 2.25,3.7125; stroke-dashoffset: 0; stroke: #000000; stroke-width: 2.25"/>
    <path d="M 274.253127 167.836715 
L 274.588262 167.725669 
L 274.589556 167.724755 
L 274.923397 167.572907 
L 275.160716 167.391782 
L 275.258533 167.341742 
L 275.593668 167.078973 
L 275.615645 167.058809 
L 275.928803 166.837005 
L 276.047311 166.725836 
L 276.263938 166.562869 
L 276.441854 166.392863 
L 276.599073 166.267725 
L 276.813263 166.05989 
L 276.934208 165.958363 
L 277.169699 165.726917 
L 277.269343 165.638934 
L 277.515971 165.393944 
L 277.604478 165.311926 
L 277.854883 165.060971 
L 277.939614 164.978721 
L 278.187957 164.727998 
L 278.274749 164.639882 
L 278.515817 164.395025 
L 278.609884 164.295277 
L 278.838366 164.062052 
L 278.945019 163.944065 
L 279.154787 163.729079 
L 279.280154 163.584533 
L 279.463416 163.396106 
L 279.615289 163.21376 
L 279.761414 163.063133 
L 279.950424 162.82699 
L 280.044176 162.73016 
L 280.28556 162.416539 
L 280.304269 162.397188 
L 280.609027 162.064215 
L 280.620695 162.04926 
L 280.926058 161.731242 
L 280.95583 161.691558 
L 281.237058 161.398269 
L 281.290965 161.323584 
L 281.538403 161.065296 
L 281.6261 160.939076 
L 281.824065 160.732323 
L 281.961235 160.527313 
L 282.083736 160.39935 
L 282.29637 160.069469 
L 282.299331 160.066377 
L 282.612616 159.733404 
L 282.631505 159.704405 
L 282.919815 159.400431 
L 282.966641 159.32582 
L 283.211773 159.067458 
L 283.301776 158.918669 
L 283.476633 158.734485 
L 283.636911 158.459657 
L 283.692157 158.401512 
L 283.957903 158.068539 
L 283.972046 158.044493 
L 284.262303 157.735566 
L 284.307181 157.656448 
L 284.54597 157.402593 
L 284.642316 157.226505 
L 284.790087 157.06962 
L 284.975553 156.736647 
L 284.977451 156.733199 
L 285.283769 156.403674 
L 285.312587 156.349449 
L 285.572162 156.070701 
L 285.647722 155.923391 
L 285.820946 155.737728 
L 285.982857 155.410726 
L 285.988439 155.404755 
L 286.289704 155.071782 
L 286.317992 155.014917 
L 286.572294 154.738809 
L 286.653127 154.570555 
L 286.805225 154.405836 
L 286.982882 154.072863 
L 286.988262 154.061687 
L 287.28015 153.73989 
L 287.323397 153.646916 
L 287.541795 153.406917 
L 287.658533 153.147239 
L 287.725449 153.073944 
L 287.968668 152.740971 
L 287.993668 152.68532 
L 288.241705 152.407998 
L 288.328803 152.207525 
L 288.447797 152.075025 
L 288.646409 151.742052 
L 288.663938 151.701522 
L 288.920179 151.409079 
L 288.999073 151.220631 
L 289.12636 151.076106 
L 289.315148 150.743133 
L 289.334208 150.697176 
L 289.57959 150.41016 
L 289.669343 150.186879 
L 289.763732 150.077188 
L 289.971458 149.744215 
L 290.004478 149.660793 
L 290.211613 149.411242 
L 290.339592 149.078269 
L 290.339614 149.078214 
L 290.603297 148.745296 
L 290.674749 148.554999 
L 290.788998 148.412323 
L 290.969248 148.07935 
L 291.009884 147.967108 
L 291.176624 147.746377 
L 291.319824 147.413404 
L 291.345019 147.339751 
L 291.525886 147.080431 
L 291.654445 146.747458 
L 291.680154 146.665234 
L 291.836091 146.414485 
L 291.958839 146.081512 
L 292.015289 145.871596 
L 292.079328 145.748539 
L 292.184118 145.415566 
L 292.224462 145.082593 
L 292.136597 144.74962 
L 292.015289 144.648217 
L 291.680154 144.675759 
L 291.55349 144.74962 
L 291.345019 144.824177 
L 291.009884 145.034587 
L 290.95327 145.082593 
L 290.674749 145.250463 
L 290.487196 145.415566 
L 290.339614 145.511547 
L 290.078506 145.748539 
L 290.004478 145.800124 
L 289.702155 146.081512 
L 289.669343 146.105873 
L 289.344586 146.414485 
L 289.334208 146.422657 
L 288.999073 146.744734 
L 288.99634 146.747458 
L 288.663938 147.061662 
L 288.645247 147.080431 
L 288.328803 147.393275 
L 288.308881 147.413404 
L 287.993668 147.738901 
L 287.986306 147.746377 
L 287.66252 148.07935 
L 287.658533 148.083383 
L 287.33511 148.412323 
L 287.323397 148.424703 
L 287.009895 148.745296 
L 286.988262 148.769166 
L 286.687327 149.078269 
L 286.653127 149.117618 
L 286.368269 149.411242 
L 286.317992 149.471503 
L 286.054157 149.744215 
L 285.982857 149.833167 
L 285.747283 150.077188 
L 285.647722 150.20639 
L 285.451317 150.41016 
L 285.312587 150.597316 
L 285.172198 150.743133 
L 284.977451 151.016113 
L 284.919734 151.076106 
L 284.650125 151.409079 
L 284.642316 151.419893 
L 284.334881 151.742052 
L 284.307181 151.781909 
L 284.027619 152.075025 
L 283.972046 152.158068 
L 283.73372 152.407998 
L 283.636911 152.55817 
L 283.462578 152.740971 
L 283.301776 152.99982 
L 283.231059 153.073944 
L 282.976613 153.406917 
L 282.966641 153.422815 
L 282.667213 153.73989 
L 282.631505 153.798955 
L 282.372671 154.072863 
L 282.29637 154.203771 
L 282.105255 154.405836 
L 281.961235 154.662057 
L 281.888564 154.738809 
L 281.63883 155.071782 
L 281.6261 155.094256 
L 281.335615 155.404755 
L 281.290965 155.486469 
L 281.055557 155.737728 
L 280.95583 155.926879 
L 280.820864 156.070701 
L 280.62582 156.403674 
L 280.620695 156.413341 
L 280.321527 156.736647 
L 280.28556 156.806921 
L 280.041963 157.06962 
L 279.950424 157.254868 
L 279.813138 157.402593 
L 279.62226 157.735566 
L 279.615289 157.749625 
L 279.323708 158.068539 
L 279.280154 158.159474 
L 279.058236 158.401512 
L 278.945019 158.646196 
L 278.863836 158.734485 
L 278.630052 159.067458 
L 278.609884 159.111005 
L 278.348719 159.400431 
L 278.274749 159.565647 
L 278.122825 159.733404 
L 277.948137 160.066377 
L 277.939614 160.085463 
L 277.661692 160.39935 
L 277.604478 160.531773 
L 277.4261 160.732323 
L 277.273697 161.065296 
L 277.269343 161.075443 
L 276.989897 161.398269 
L 276.934208 161.532272 
L 276.760987 161.731242 
L 276.606938 162.064215 
L 276.599073 162.083374 
L 276.334702 162.397188 
L 276.263938 162.574937 
L 276.132219 162.73016 
L 275.952822 163.063133 
L 275.928803 163.124634 
L 275.707489 163.396106 
L 275.593668 163.696062 
L 275.566501 163.729079 
L 275.326204 164.062052 
L 275.258533 164.245454 
L 275.14139 164.395025 
L 274.966888 164.727998 
L 274.923397 164.85114 
L 274.769563 165.060971 
L 274.623888 165.393944 
L 274.588262 165.501948 
L 274.437822 165.726917 
L 274.30337 166.05989 
L 274.253127 166.229931 
L 274.158004 166.392863 
L 274.032681 166.725836 
L 273.954582 167.058809 
L 273.917992 167.324439 
L 273.901561 167.391782 
L 273.917992 167.515731 
L 273.990941 167.724755 
L 274.253127 167.836715 
z
" clip-path="url(#p99ab480948)" style="fill: none; stroke-dasharray: 2.25,3.7125; stroke-dashoffset: 0; stroke: #000000; stroke-width: 2.25"/>
    <path d="M 275.258533 166.208283 
L 275.593668 166.232778 
L 275.928803 166.072464 
L 275.94479 166.05989 
L 276.263938 165.882808 
L 276.4507 165.726917 
L 276.599073 165.635992 
L 276.875806 165.393944 
L 276.934208 165.35493 
L 277.257999 165.060971 
L 277.269343 165.052791 
L 277.604478 164.754867 
L 277.631694 164.727998 
L 277.939614 164.450509 
L 277.995153 164.395025 
L 278.274749 164.130221 
L 278.342325 164.062052 
L 278.609884 163.796316 
L 278.676006 163.729079 
L 278.945019 163.449413 
L 278.997101 163.396106 
L 279.280154 163.08857 
L 279.304875 163.063133 
L 279.610974 162.73016 
L 279.615289 162.72556 
L 279.933048 162.397188 
L 279.950424 162.377812 
L 280.252199 162.064215 
L 280.28556 162.025372 
L 280.56736 161.731242 
L 280.620695 161.666478 
L 280.876788 161.398269 
L 280.95583 161.298277 
L 281.177718 161.065296 
L 281.290965 160.91618 
L 281.465744 160.732323 
L 281.6261 160.512722 
L 281.733739 160.39935 
L 281.961235 160.075537 
L 281.969926 160.066377 
L 282.275718 159.733404 
L 282.29637 159.704293 
L 282.581449 159.400431 
L 282.631505 159.327101 
L 282.874982 159.067458 
L 282.966641 158.927995 
L 283.148097 158.734485 
L 283.301776 158.491744 
L 283.386418 158.401512 
L 283.627139 158.068539 
L 283.636911 158.053206 
L 283.930739 157.735566 
L 283.972046 157.668304 
L 284.218032 157.402593 
L 284.307181 157.252006 
L 284.476216 157.06962 
L 284.642316 156.778685 
L 284.681331 156.736647 
L 284.953893 156.403674 
L 284.977451 156.362568 
L 285.243872 156.070701 
L 285.312587 155.946429 
L 285.503467 155.737728 
L 285.647722 155.467413 
L 285.705154 155.404755 
L 285.95905 155.071782 
L 285.982857 155.027208 
L 286.242063 154.738809 
L 286.317992 154.591598 
L 286.48544 154.405836 
L 286.65267 154.072863 
L 286.653127 154.071974 
L 286.945402 153.73989 
L 286.988262 153.653645 
L 287.206264 153.406917 
L 287.323397 153.163106 
L 287.402495 153.073944 
L 287.630777 152.740971 
L 287.658533 152.682782 
L 287.895555 152.407998 
L 287.993668 152.195448 
L 288.098088 152.075025 
L 288.303254 151.742052 
L 288.328803 151.685971 
L 288.560784 151.409079 
L 288.663938 151.175445 
L 288.747738 151.076106 
L 288.960406 150.743133 
L 288.999073 150.653716 
L 289.195983 150.41016 
L 289.334208 150.080983 
L 289.337304 150.077188 
L 289.589824 149.744215 
L 289.669343 149.548916 
L 289.775853 149.411242 
L 289.956911 149.078269 
L 290.004478 148.955585 
L 290.155771 148.745296 
L 290.304994 148.412323 
L 290.339614 148.315734 
L 290.492841 148.07935 
L 290.627205 147.746377 
L 290.674749 147.59488 
L 290.774824 147.413404 
L 290.889601 147.080431 
L 290.959064 146.747458 
L 290.957613 146.414485 
L 290.674749 146.213178 
L 290.339614 146.310627 
L 290.188275 146.414485 
L 290.004478 146.499178 
L 289.675535 146.747458 
L 289.669343 146.750727 
L 289.334208 146.98796 
L 289.234604 147.080431 
L 288.999073 147.257427 
L 288.835032 147.413404 
L 288.663938 147.550256 
L 288.461675 147.746377 
L 288.328803 147.85899 
L 288.105163 148.07935 
L 287.993668 148.179111 
L 287.760084 148.412323 
L 287.658533 148.507962 
L 287.423377 148.745296 
L 287.323397 148.844156 
L 287.093474 149.078269 
L 286.988262 149.187271 
L 286.769876 149.411242 
L 286.653127 149.537752 
L 286.452978 149.744215 
L 286.317992 149.89698 
L 286.144104 150.077188 
L 285.982857 150.267538 
L 285.845737 150.41016 
L 285.647722 150.653732 
L 285.562012 150.743133 
L 285.312587 151.06254 
L 285.299608 151.076106 
L 284.993167 151.409079 
L 284.977451 151.428952 
L 284.68058 151.742052 
L 284.642316 151.792433 
L 284.374909 152.075025 
L 284.307181 152.167792 
L 284.080189 152.407998 
L 283.972046 152.56198 
L 283.803036 152.740971 
L 283.636911 152.986718 
L 283.554576 153.073944 
L 283.309252 153.406917 
L 283.301776 153.417883 
L 283.001577 153.73989 
L 282.966641 153.793122 
L 282.705844 154.072863 
L 282.631505 154.190453 
L 282.430625 154.405836 
L 282.29637 154.626203 
L 282.191266 154.738809 
L 281.968472 155.071782 
L 281.961235 155.083597 
L 281.665992 155.404755 
L 281.6261 155.472311 
L 281.381793 155.737728 
L 281.290965 155.897213 
L 281.131028 156.070701 
L 280.95583 156.389567 
L 280.942801 156.403674 
L 280.65164 156.736647 
L 280.620695 156.792823 
L 280.369574 157.06962 
L 280.28556 157.22762 
L 280.126431 157.402593 
L 279.951647 157.735566 
L 279.950424 157.737867 
L 279.656131 158.068539 
L 279.615289 158.148129 
L 279.38904 158.401512 
L 279.280154 158.621127 
L 279.178588 158.734485 
L 278.964233 159.067458 
L 278.945019 159.106393 
L 278.688187 159.400431 
L 278.609884 159.564506 
L 278.461692 159.733404 
L 278.284569 160.066377 
L 278.274749 160.087161 
L 278.009225 160.39935 
L 277.939614 160.551501 
L 277.784908 160.732323 
L 277.615554 161.065296 
L 277.604478 161.089913 
L 277.350584 161.398269 
L 277.269343 161.584447 
L 277.147528 161.731242 
L 276.961991 162.064215 
L 276.934208 162.129535 
L 276.722453 162.397188 
L 276.599073 162.695588 
L 276.571436 162.73016 
L 276.340007 163.063133 
L 276.263938 163.254122 
L 276.157062 163.396106 
L 275.981543 163.729079 
L 275.928803 163.869593 
L 275.795565 164.062052 
L 275.645457 164.395025 
L 275.593668 164.547013 
L 275.482921 164.727998 
L 275.348872 165.060971 
L 275.258533 165.375077 
L 275.24908 165.393944 
L 275.155066 165.726917 
L 275.163244 166.05989 
L 275.258533 166.208283 
z
" clip-path="url(#p99ab480948)" style="fill: none; stroke-dasharray: 2.25,3.7125; stroke-dashoffset: 0; stroke: #000000; stroke-width: 2.25"/>
   </g>
   <g id="patch_3">
    <path d="M 59.766641 359.517188 
L 59.766641 26.877188 
" style="fill: none; stroke: #000000; stroke-width: 1.875; stroke-linejoin: miter; stroke-linecap: square"/>
   </g>
   <g id="patch_4">
    <path d="M 394.566641 359.517188 
L 394.566641 26.877188 
" style="fill: none; stroke: #000000; stroke-width: 1.875; stroke-linejoin: miter; stroke-linecap: square"/>
   </g>
   <g id="patch_5">
    <path d="M 59.766641 359.517188 
L 394.566641 359.517188 
" style="fill: none; stroke: #000000; stroke-width: 1.875; stroke-linejoin: miter; stroke-linecap: square"/>
   </g>
   <g id="patch_6">
    <path d="M 59.766641 26.877187 
L 394.566641 26.877187 
" style="fill: none; stroke: #000000; stroke-width: 1.875; stroke-linejoin: miter; stroke-linecap: square"/>
   </g>
   <g id="text_15">
    <!-- Iteration 7 -->
    <g transform="translate(180.404609 20.877187) scale(0.18 -0.18)">
     <defs>
      <path id="DejaVuSans-49" d="M 628 4666 
L 1259 4666 
L 1259 0 
L 628 0 
L 628 4666 
z
" transform="scale(0.015625)"/>
      <path id="DejaVuSans-74" d="M 1172 4494 
L 1172 3500 
L 2356 3500 
L 2356 3053 
L 1172 3053 
L 1172 1153 
Q 1172 725 1289 603 
Q 1406 481 1766 481 
L 2356 481 
L 2356 0 
L 1766 0 
Q 1100 0 847 248 
Q 594 497 594 1153 
L 594 3053 
L 172 3053 
L 172 3500 
L 594 3500 
L 594 4494 
L 1172 4494 
z
" transform="scale(0.015625)"/>
      <path id="DejaVuSans-65" d="M 3597 1894 
L 3597 1613 
L 953 1613 
Q 991 1019 1311 708 
Q 1631 397 2203 397 
Q 2534 397 2845 478 
Q 3156 559 3463 722 
L 3463 178 
Q 3153 47 2828 -22 
Q 2503 -91 2169 -91 
Q 1331 -91 842 396 
Q 353 884 353 1716 
Q 353 2575 817 3079 
Q 1281 3584 2069 3584 
Q 2775 3584 3186 3129 
Q 3597 2675 3597 1894 
z
M 3022 2063 
Q 3016 2534 2758 2815 
Q 2500 3097 2075 3097 
Q 1594 3097 1305 2825 
Q 1016 2553 972 2059 
L 3022 2063 
z
" transform="scale(0.015625)"/>
      <path id="DejaVuSans-72" d="M 2631 2963 
Q 2534 3019 2420 3045 
Q 2306 3072 2169 3072 
Q 1681 3072 1420 2755 
Q 1159 2438 1159 1844 
L 1159 0 
L 581 0 
L 581 3500 
L 1159 3500 
L 1159 2956 
Q 1341 3275 1631 3429 
Q 1922 3584 2338 3584 
Q 2397 3584 2469 3576 
Q 2541 3569 2628 3553 
L 2631 2963 
z
" transform="scale(0.015625)"/>
      <path id="DejaVuSans-61" d="M 2194 1759 
Q 1497 1759 1228 1600 
Q 959 1441 959 1056 
Q 959 750 1161 570 
Q 1363 391 1709 391 
Q 2188 391 2477 730 
Q 2766 1069 2766 1631 
L 2766 1759 
L 2194 1759 
z
M 3341 1997 
L 3341 0 
L 2766 0 
L 2766 531 
Q 2569 213 2275 61 
Q 1981 -91 1556 -91 
Q 1019 -91 701 211 
Q 384 513 384 1019 
Q 384 1609 779 1909 
Q 1175 2209 1959 2209 
L 2766 2209 
L 2766 2266 
Q 2766 2663 2505 2880 
Q 2244 3097 1772 3097 
Q 1472 3097 1187 3025 
Q 903 2953 641 2809 
L 641 3341 
Q 956 3463 1253 3523 
Q 1550 3584 1831 3584 
Q 2591 3584 2966 3190 
Q 3341 2797 3341 1997 
z
" transform="scale(0.015625)"/>
      <path id="DejaVuSans-69" d="M 603 3500 
L 1178 3500 
L 1178 0 
L 603 0 
L 603 3500 
z
M 603 4863 
L 1178 4863 
L 1178 4134 
L 603 4134 
L 603 4863 
z
" transform="scale(0.015625)"/>
      <path id="DejaVuSans-6f" d="M 1959 3097 
Q 1497 3097 1228 2736 
Q 959 2375 959 1747 
Q 959 1119 1226 758 
Q 1494 397 1959 397 
Q 2419 397 2687 759 
Q 2956 1122 2956 1747 
Q 2956 2369 2687 2733 
Q 2419 3097 1959 3097 
z
M 1959 3584 
Q 2709 3584 3137 3096 
Q 3566 2609 3566 1747 
Q 3566 888 3137 398 
Q 2709 -91 1959 -91 
Q 1206 -91 779 398 
Q 353 888 353 1747 
Q 353 2609 779 3096 
Q 1206 3584 1959 3584 
z
" transform="scale(0.015625)"/>
      <path id="DejaVuSans-6e" d="M 3513 2113 
L 3513 0 
L 2938 0 
L 2938 2094 
Q 2938 2591 2744 2837 
Q 2550 3084 2163 3084 
Q 1697 3084 1428 2787 
Q 1159 2491 1159 1978 
L 1159 0 
L 581 0 
L 581 3500 
L 1159 3500 
L 1159 2956 
Q 1366 3272 1645 3428 
Q 1925 3584 2291 3584 
Q 2894 3584 3203 3211 
Q 3513 2838 3513 2113 
z
" transform="scale(0.015625)"/>
      <path id="DejaVuSans-20" transform="scale(0.015625)"/>
      <path id="DejaVuSans-37" d="M 525 4666 
L 3525 4666 
L 3525 4397 
L 1831 0 
L 1172 0 
L 2766 4134 
L 525 4134 
L 525 4666 
z
" transform="scale(0.015625)"/>
     </defs>
     <use xlink:href="#DejaVuSans-49"/>
     <use xlink:href="#DejaVuSans-74" x="29.492188"/>
     <use xlink:href="#DejaVuSans-65" x="68.701172"/>
     <use xlink:href="#DejaVuSans-72" x="130.224609"/>
     <use xlink:href="#DejaVuSans-61" x="171.337891"/>
     <use xlink:href="#DejaVuSans-74" x="232.617188"/>
     <use xlink:href="#DejaVuSans-69" x="271.826172"/>
     <use xlink:href="#DejaVuSans-6f" x="299.609375"/>
     <use xlink:href="#DejaVuSans-6e" x="360.791016"/>
     <use xlink:href="#DejaVuSans-20" x="424.169922"/>
     <use xlink:href="#DejaVuSans-37" x="455.957031"/>
    </g>
   </g>
   <g id="text_16">
    <g clip-path="url(#p99ab480948)">
     <!-- 1 -->
     <g style="fill: #fde725" transform="translate(288.155885 145.936074) rotate(-55.675721) scale(0.1 -0.1)">
      <use xlink:href="#DejaVuSans-31"/>
     </g>
    </g>
   </g>
   <g id="text_17">
    <g clip-path="url(#p99ab480948)">
     <!-- 4 -->
     <g style="fill: #b5de2b" transform="translate(318.224892 85.537014) rotate(-64.855421) scale(0.1 -0.1)">
      <defs>
       <path id="DejaVuSans-34" d="M 2419 4116 
L 825 1625 
L 2419 1625 
L 2419 4116 
z
M 2253 4666 
L 3047 4666 
L 3047 1625 
L 3713 1625 
L 3713 1100 
L 3047 1100 
L 3047 0 
L 2419 0 
L 2419 1100 
L 313 1100 
L 313 1709 
L 2253 4666 
z
" transform="scale(0.015625)"/>
      </defs>
      <use xlink:href="#DejaVuSans-34"/>
     </g>
    </g>
   </g>
   <g id="text_18">
    <g clip-path="url(#p99ab480948)">
     <!-- 13 -->
     <g style="fill: #6ece58" transform="translate(113.096851 23.999967) rotate(-291.889393) scale(0.1 -0.1)">
      <defs>
       <path id="DejaVuSans-33" d="M 2597 2516 
Q 3050 2419 3304 2112 
Q 3559 1806 3559 1356 
Q 3559 666 3084 287 
Q 2609 -91 1734 -91 
Q 1441 -91 1130 -33 
Q 819 25 488 141 
L 488 750 
Q 750 597 1062 519 
Q 1375 441 1716 441 
Q 2309 441 2620 675 
Q 2931 909 2931 1356 
Q 2931 1769 2642 2001 
Q 2353 2234 1838 2234 
L 1294 2234 
L 1294 2753 
L 1863 2753 
Q 2328 2753 2575 2939 
Q 2822 3125 2822 3475 
Q 2822 3834 2567 4026 
Q 2313 4219 1838 4219 
Q 1578 4219 1281 4162 
Q 984 4106 628 3988 
L 628 4550 
Q 988 4650 1302 4700 
Q 1616 4750 1894 4750 
Q 2613 4750 3031 4423 
Q 3450 4097 3450 3541 
Q 3450 3153 3228 2886 
Q 3006 2619 2597 2516 
z
" transform="scale(0.015625)"/>
      </defs>
      <use xlink:href="#DejaVuSans-31"/>
      <use xlink:href="#DejaVuSans-33" x="63.623047"/>
     </g>
    </g>
   </g>
   <g id="text_19">
    <g clip-path="url(#p99ab480948)">
     <!-- 13 -->
     <g style="fill: #6ece58" transform="translate(346.796573 61.299219) rotate(-70.600511) scale(0.1 -0.1)">
      <use xlink:href="#DejaVuSans-31"/>
      <use xlink:href="#DejaVuSans-33" x="63.623047"/>
     </g>
    </g>
   </g>
   <g id="text_20">
    <g clip-path="url(#p99ab480948)">
     <!-- 46 -->
     <g style="fill: #35b779" transform="translate(318.674001 43.751769) rotate(-65.297236) scale(0.1 -0.1)">
      <defs>
       <path id="DejaVuSans-36" d="M 2113 2584 
Q 1688 2584 1439 2293 
Q 1191 2003 1191 1497 
Q 1191 994 1439 701 
Q 1688 409 2113 409 
Q 2538 409 2786 701 
Q 3034 994 3034 1497 
Q 3034 2003 2786 2293 
Q 2538 2584 2113 2584 
z
M 3366 4563 
L 3366 3988 
Q 3128 4100 2886 4159 
Q 2644 4219 2406 4219 
Q 1781 4219 1451 3797 
Q 1122 3375 1075 2522 
Q 1259 2794 1537 2939 
Q 1816 3084 2150 3084 
Q 2853 3084 3261 2657 
Q 3669 2231 3669 1497 
Q 3669 778 3244 343 
Q 2819 -91 2113 -91 
Q 1303 -91 875 529 
Q 447 1150 447 2328 
Q 447 3434 972 4092 
Q 1497 4750 2381 4750 
Q 2619 4750 2861 4703 
Q 3103 4656 3366 4563 
z
" transform="scale(0.015625)"/>
      </defs>
      <use xlink:href="#DejaVuSans-34"/>
      <use xlink:href="#DejaVuSans-36" x="63.623047"/>
     </g>
    </g>
   </g>
   <g id="text_21">
    <g clip-path="url(#p99ab480948)">
     <!-- 46 -->
     <g style="fill: #35b779" transform="translate(97.700294 55.770923) rotate(-288.420927) scale(0.1 -0.1)">
      <use xlink:href="#DejaVuSans-34"/>
      <use xlink:href="#DejaVuSans-36" x="63.623047"/>
     </g>
    </g>
   </g>
   <g id="text_22">
    <g clip-path="url(#p99ab480948)">
     <!-- 167 -->
     <g style="fill: #1f9e89" transform="translate(290.184875 43.849168) rotate(-57.288295) scale(0.1 -0.1)">
      <use xlink:href="#DejaVuSans-31"/>
      <use xlink:href="#DejaVuSans-36" x="63.623047"/>
      <use xlink:href="#DejaVuSans-37" x="127.246094"/>
     </g>
    </g>
   </g>
   <g id="text_23">
    <g clip-path="url(#p99ab480948)">
     <!-- 167 -->
     <g style="fill: #1f9e89" transform="translate(374.209329 53.793422) rotate(-74.03457) scale(0.1 -0.1)">
      <use xlink:href="#DejaVuSans-31"/>
      <use xlink:href="#DejaVuSans-36" x="63.623047"/>
      <use xlink:href="#DejaVuSans-37" x="127.246094"/>
     </g>
    </g>
   </g>
   <g id="text_24">
    <g clip-path="url(#p99ab480948)">
     <!-- 599 -->
     <g style="fill: #26828e" transform="translate(57.564768 65.261256) rotate(-284.315487) scale(0.1 -0.1)">
      <defs>
       <path id="DejaVuSans-39" d="M 703 97 
L 703 672 
Q 941 559 1184 500 
Q 1428 441 1663 441 
Q 2288 441 2617 861 
Q 2947 1281 2994 2138 
Q 2813 1869 2534 1725 
Q 2256 1581 1919 1581 
Q 1219 1581 811 2004 
Q 403 2428 403 3163 
Q 403 3881 828 4315 
Q 1253 4750 1959 4750 
Q 2769 4750 3195 4129 
Q 3622 3509 3622 2328 
Q 3622 1225 3098 567 
Q 2575 -91 1691 -91 
Q 1453 -91 1209 -44 
Q 966 3 703 97 
z
M 1959 2075 
Q 2384 2075 2632 2365 
Q 2881 2656 2881 3163 
Q 2881 3666 2632 3958 
Q 2384 4250 1959 4250 
Q 1534 4250 1286 3958 
Q 1038 3666 1038 3163 
Q 1038 2656 1286 2365 
Q 1534 2075 1959 2075 
z
" transform="scale(0.015625)"/>
      </defs>
      <use xlink:href="#DejaVuSans-35"/>
      <use xlink:href="#DejaVuSans-39" x="63.623047"/>
      <use xlink:href="#DejaVuSans-39" x="127.246094"/>
     </g>
    </g>
   </g>
   <g id="text_25">
    <g clip-path="url(#p99ab480948)">
     <!-- 599 -->
     <g style="fill: #26828e" transform="translate(394.010444 77.429179) rotate(-75.756627) scale(0.1 -0.1)">
      <use xlink:href="#DejaVuSans-35"/>
      <use xlink:href="#DejaVuSans-39" x="63.623047"/>
      <use xlink:href="#DejaVuSans-39" x="127.246094"/>
     </g>
    </g>
   </g>
   <g id="text_26">
    <g clip-path="url(#p99ab480948)">
     <!-- 2154 -->
     <g style="fill: #31688e" transform="translate(56.276387 243.317291) rotate(-284.327359) scale(0.1 -0.1)">
      <use xlink:href="#DejaVuSans-32"/>
      <use xlink:href="#DejaVuSans-31" x="63.623047"/>
      <use xlink:href="#DejaVuSans-35" x="127.246094"/>
      <use xlink:href="#DejaVuSans-34" x="190.869141"/>
     </g>
    </g>
   </g>
   <g id="text_27">
    <g clip-path="url(#p99ab480948)">
     <!-- 2154 -->
     <g style="fill: #31688e" transform="translate(392.962031 263.980352) rotate(-75.708056) scale(0.1 -0.1)">
      <use xlink:href="#DejaVuSans-32"/>
      <use xlink:href="#DejaVuSans-31" x="63.623047"/>
      <use xlink:href="#DejaVuSans-35" x="127.246094"/>
      <use xlink:href="#DejaVuSans-34" x="190.869141"/>
     </g>
    </g>
   </g>
  </g>
 </g>
 <defs>
  <clipPath id="p99ab480948">
   <rect x="59.766641" y="26.877187" width="334.8" height="332.64"/>
  </clipPath>
 </defs>
</svg>
