<?xml version="1.0" encoding="utf-8" standalone="no"?>
<!DOCTYPE svg PUBLIC "-//W3C//DTD SVG 1.1//EN"
  "http://www.w3.org/Graphics/SVG/1.1/DTD/svg11.dtd">
<svg xmlns:xlink="http://www.w3.org/1999/xlink" width="407.015703pt" height="395.186094pt" viewBox="0 0 407.015703 395.186094" xmlns="http://www.w3.org/2000/svg" version="1.1">
 <metadata>
  <rdf:RDF xmlns:dc="http://purl.org/dc/elements/1.1/" xmlns:cc="http://creativecommons.org/ns#" xmlns:rdf="http://www.w3.org/1999/02/22-rdf-syntax-ns#">
   <cc:Work>
    <dc:type rdf:resource="http://purl.org/dc/dcmitype/StillImage"/>
    <dc:date>2024-02-25T21:28:39.409197</dc:date>
    <dc:format>image/svg+xml</dc:format>
    <dc:creator>
     <cc:Agent>
      <dc:title>Matplotlib v3.8.2, https://matplotlib.org/</dc:title>
     </cc:Agent>
    </dc:creator>
   </cc:Work>
  </rdf:RDF>
 </metadata>
 <defs>
  <style type="text/css">*{stroke-linejoin: round; stroke-linecap: butt}</style>
 </defs>
 <g id="figure_1">
  <g id="patch_1">
   <path d="M 0 395.186094 
L 407.015703 395.186094 
L 407.015703 0 
L 0 0 
z
" style="fill: #ffffff"/>
  </g>
  <g id="axes_1">
   <g id="patch_2">
    <path d="M 59.766641 359.517188 
L 394.566641 359.517188 
L 394.566641 26.877187 
L 59.766641 26.877187 
z
" style="fill: #ffffff"/>
   </g>
   <g id="matplotlib.axis_1">
    <g id="xtick_1">
     <g id="line2d_1">
      <defs>
       <path id="ma2f04cca89" d="M 0 0 
L 0 9 
" style="stroke: #000000; stroke-width: 1.875"/>
      </defs>
      <g>
       <use xlink:href="#ma2f04cca89" x="59.766641" y="359.517188" style="stroke: #000000; stroke-width: 1.875"/>
      </g>
     </g>
     <g id="text_1">
      <!-- −2 -->
      <g transform="translate(47.604336 384.554609) scale(0.165 -0.165)">
       <defs>
        <path id="DejaVuSans-2212" d="M 678 2272 
L 4684 2272 
L 4684 1741 
L 678 1741 
L 678 2272 
z
" transform="scale(0.015625)"/>
        <path id="DejaVuSans-32" d="M 1228 531 
L 3431 531 
L 3431 0 
L 469 0 
L 469 531 
Q 828 903 1448 1529 
Q 2069 2156 2228 2338 
Q 2531 2678 2651 2914 
Q 2772 3150 2772 3378 
Q 2772 3750 2511 3984 
Q 2250 4219 1831 4219 
Q 1534 4219 1204 4116 
Q 875 4013 500 3803 
L 500 4441 
Q 881 4594 1212 4672 
Q 1544 4750 1819 4750 
Q 2544 4750 2975 4387 
Q 3406 4025 3406 3419 
Q 3406 3131 3298 2873 
Q 3191 2616 2906 2266 
Q 2828 2175 2409 1742 
Q 1991 1309 1228 531 
z
" transform="scale(0.015625)"/>
       </defs>
       <use xlink:href="#DejaVuSans-2212"/>
       <use xlink:href="#DejaVuSans-32" x="83.789062"/>
      </g>
     </g>
    </g>
    <g id="xtick_2">
     <g id="line2d_2">
      <g>
       <use xlink:href="#ma2f04cca89" x="143.466641" y="359.517188" style="stroke: #000000; stroke-width: 1.875"/>
      </g>
     </g>
     <g id="text_2">
      <!-- −1 -->
      <g transform="translate(131.304336 384.554609) scale(0.165 -0.165)">
       <defs>
        <path id="DejaVuSans-31" d="M 794 531 
L 1825 531 
L 1825 4091 
L 703 3866 
L 703 4441 
L 1819 4666 
L 2450 4666 
L 2450 531 
L 3481 531 
L 3481 0 
L 794 0 
L 794 531 
z
" transform="scale(0.015625)"/>
       </defs>
       <use xlink:href="#DejaVuSans-2212"/>
       <use xlink:href="#DejaVuSans-31" x="83.789062"/>
      </g>
     </g>
    </g>
    <g id="xtick_3">
     <g id="line2d_3">
      <g>
       <use xlink:href="#ma2f04cca89" x="227.166641" y="359.517188" style="stroke: #000000; stroke-width: 1.875"/>
      </g>
     </g>
     <g id="text_3">
      <!-- 0 -->
      <g transform="translate(221.917578 384.554609) scale(0.165 -0.165)">
       <defs>
        <path id="DejaVuSans-30" d="M 2034 4250 
Q 1547 4250 1301 3770 
Q 1056 3291 1056 2328 
Q 1056 1369 1301 889 
Q 1547 409 2034 409 
Q 2525 409 2770 889 
Q 3016 1369 3016 2328 
Q 3016 3291 2770 3770 
Q 2525 4250 2034 4250 
z
M 2034 4750 
Q 2819 4750 3233 4129 
Q 3647 3509 3647 2328 
Q 3647 1150 3233 529 
Q 2819 -91 2034 -91 
Q 1250 -91 836 529 
Q 422 1150 422 2328 
Q 422 3509 836 4129 
Q 1250 4750 2034 4750 
z
" transform="scale(0.015625)"/>
       </defs>
       <use xlink:href="#DejaVuSans-30"/>
      </g>
     </g>
    </g>
    <g id="xtick_4">
     <g id="line2d_4">
      <g>
       <use xlink:href="#ma2f04cca89" x="310.866641" y="359.517188" style="stroke: #000000; stroke-width: 1.875"/>
      </g>
     </g>
     <g id="text_4">
      <!-- 1 -->
      <g transform="translate(305.617578 384.554609) scale(0.165 -0.165)">
       <use xlink:href="#DejaVuSans-31"/>
      </g>
     </g>
    </g>
    <g id="xtick_5">
     <g id="line2d_5">
      <g>
       <use xlink:href="#ma2f04cca89" x="394.566641" y="359.517188" style="stroke: #000000; stroke-width: 1.875"/>
      </g>
     </g>
     <g id="text_5">
      <!-- 2 -->
      <g transform="translate(389.317578 384.554609) scale(0.165 -0.165)">
       <use xlink:href="#DejaVuSans-32"/>
      </g>
     </g>
    </g>
   </g>
   <g id="matplotlib.axis_2">
    <g id="ytick_1">
     <g id="line2d_6">
      <defs>
       <path id="m3180bd6c67" d="M 0 0 
L -9 0 
" style="stroke: #000000; stroke-width: 1.875"/>
      </defs>
      <g>
       <use xlink:href="#m3180bd6c67" x="59.766641" y="359.517188" style="stroke: #000000; stroke-width: 1.875"/>
      </g>
     </g>
     <g id="text_6">
      <!-- −2.0 -->
      <g transform="translate(7.2 365.785898) scale(0.165 -0.165)">
       <defs>
        <path id="DejaVuSans-2e" d="M 684 794 
L 1344 794 
L 1344 0 
L 684 0 
L 684 794 
z
" transform="scale(0.015625)"/>
       </defs>
       <use xlink:href="#DejaVuSans-2212"/>
       <use xlink:href="#DejaVuSans-32" x="83.789062"/>
       <use xlink:href="#DejaVuSans-2e" x="147.412109"/>
       <use xlink:href="#DejaVuSans-30" x="179.199219"/>
      </g>
     </g>
    </g>
    <g id="ytick_2">
     <g id="line2d_7">
      <g>
       <use xlink:href="#m3180bd6c67" x="59.766641" y="317.937188" style="stroke: #000000; stroke-width: 1.875"/>
      </g>
     </g>
     <g id="text_7">
      <!-- −1.5 -->
      <g transform="translate(7.2 324.205898) scale(0.165 -0.165)">
       <defs>
        <path id="DejaVuSans-35" d="M 691 4666 
L 3169 4666 
L 3169 4134 
L 1269 4134 
L 1269 2991 
Q 1406 3038 1543 3061 
Q 1681 3084 1819 3084 
Q 2600 3084 3056 2656 
Q 3513 2228 3513 1497 
Q 3513 744 3044 326 
Q 2575 -91 1722 -91 
Q 1428 -91 1123 -41 
Q 819 9 494 109 
L 494 744 
Q 775 591 1075 516 
Q 1375 441 1709 441 
Q 2250 441 2565 725 
Q 2881 1009 2881 1497 
Q 2881 1984 2565 2268 
Q 2250 2553 1709 2553 
Q 1456 2553 1204 2497 
Q 953 2441 691 2322 
L 691 4666 
z
" transform="scale(0.015625)"/>
       </defs>
       <use xlink:href="#DejaVuSans-2212"/>
       <use xlink:href="#DejaVuSans-31" x="83.789062"/>
       <use xlink:href="#DejaVuSans-2e" x="147.412109"/>
       <use xlink:href="#DejaVuSans-35" x="179.199219"/>
      </g>
     </g>
    </g>
    <g id="ytick_3">
     <g id="line2d_8">
      <g>
       <use xlink:href="#m3180bd6c67" x="59.766641" y="276.357188" style="stroke: #000000; stroke-width: 1.875"/>
      </g>
     </g>
     <g id="text_8">
      <!-- −1.0 -->
      <g transform="translate(7.2 282.625898) scale(0.165 -0.165)">
       <use xlink:href="#DejaVuSans-2212"/>
       <use xlink:href="#DejaVuSans-31" x="83.789062"/>
       <use xlink:href="#DejaVuSans-2e" x="147.412109"/>
       <use xlink:href="#DejaVuSans-30" x="179.199219"/>
      </g>
     </g>
    </g>
    <g id="ytick_4">
     <g id="line2d_9">
      <g>
       <use xlink:href="#m3180bd6c67" x="59.766641" y="234.777188" style="stroke: #000000; stroke-width: 1.875"/>
      </g>
     </g>
     <g id="text_9">
      <!-- −0.5 -->
      <g transform="translate(7.2 241.045898) scale(0.165 -0.165)">
       <use xlink:href="#DejaVuSans-2212"/>
       <use xlink:href="#DejaVuSans-30" x="83.789062"/>
       <use xlink:href="#DejaVuSans-2e" x="147.412109"/>
       <use xlink:href="#DejaVuSans-35" x="179.199219"/>
      </g>
     </g>
    </g>
    <g id="ytick_5">
     <g id="line2d_10">
      <g>
       <use xlink:href="#m3180bd6c67" x="59.766641" y="193.197188" style="stroke: #000000; stroke-width: 1.875"/>
      </g>
     </g>
     <g id="text_10">
      <!-- 0.0 -->
      <g transform="translate(21.026484 199.465898) scale(0.165 -0.165)">
       <use xlink:href="#DejaVuSans-30"/>
       <use xlink:href="#DejaVuSans-2e" x="63.623047"/>
       <use xlink:href="#DejaVuSans-30" x="95.410156"/>
      </g>
     </g>
    </g>
    <g id="ytick_6">
     <g id="line2d_11">
      <g>
       <use xlink:href="#m3180bd6c67" x="59.766641" y="151.617188" style="stroke: #000000; stroke-width: 1.875"/>
      </g>
     </g>
     <g id="text_11">
      <!-- 0.5 -->
      <g transform="translate(21.026484 157.885898) scale(0.165 -0.165)">
       <use xlink:href="#DejaVuSans-30"/>
       <use xlink:href="#DejaVuSans-2e" x="63.623047"/>
       <use xlink:href="#DejaVuSans-35" x="95.410156"/>
      </g>
     </g>
    </g>
    <g id="ytick_7">
     <g id="line2d_12">
      <g>
       <use xlink:href="#m3180bd6c67" x="59.766641" y="110.037188" style="stroke: #000000; stroke-width: 1.875"/>
      </g>
     </g>
     <g id="text_12">
      <!-- 1.0 -->
      <g transform="translate(21.026484 116.305898) scale(0.165 -0.165)">
       <use xlink:href="#DejaVuSans-31"/>
       <use xlink:href="#DejaVuSans-2e" x="63.623047"/>
       <use xlink:href="#DejaVuSans-30" x="95.410156"/>
      </g>
     </g>
    </g>
    <g id="ytick_8">
     <g id="line2d_13">
      <g>
       <use xlink:href="#m3180bd6c67" x="59.766641" y="68.457188" style="stroke: #000000; stroke-width: 1.875"/>
      </g>
     </g>
     <g id="text_13">
      <!-- 1.5 -->
      <g transform="translate(21.026484 74.725898) scale(0.165 -0.165)">
       <use xlink:href="#DejaVuSans-31"/>
       <use xlink:href="#DejaVuSans-2e" x="63.623047"/>
       <use xlink:href="#DejaVuSans-35" x="95.410156"/>
      </g>
     </g>
    </g>
    <g id="ytick_9">
     <g id="line2d_14">
      <g>
       <use xlink:href="#m3180bd6c67" x="59.766641" y="26.877188" style="stroke: #000000; stroke-width: 1.875"/>
      </g>
     </g>
     <g id="text_14">
      <!-- 2.0 -->
      <g transform="translate(21.026484 33.145898) scale(0.165 -0.165)">
       <use xlink:href="#DejaVuSans-32"/>
       <use xlink:href="#DejaVuSans-2e" x="63.623047"/>
       <use xlink:href="#DejaVuSans-30" x="95.410156"/>
      </g>
     </g>
    </g>
   </g>
   <g id="QuadContourSet_1">
    <path d="M 348.15119 26.877188 
L 344.797773 36.533404 
L 341.586251 45.523674 
L 332.77072 68.831782 
L 328.613539 79.153944 
L 325.834779 85.813404 
L 318.802758 101.796106 
L 312.311974 115.447998 
L 308.772046 122.460292 
L 302.691807 133.761512 
L 298.047722 141.776476 
L 292.865758 150.077188 
L 289.527633 155.071782 
L 286.229213 159.733404 
L 282.717822 164.395025 
L 279.502795 168.390701 
L 276.054784 172.386377 
L 272.638819 176.049079 
L 269.561235 179.094467 
L 266.209884 182.134248 
L 262.858533 184.885477 
L 259.507181 187.347698 
L 256.396939 189.367998 
L 253.139614 191.208867 
L 250.458533 192.5112 
L 247.567911 193.696647 
L 244.761235 194.621453 
L 242.080154 195.293155 
L 239.399073 195.747859 
L 236.717992 195.970044 
L 234.372046 195.9536 
L 231.939455 195.694485 
L 230.015289 195.246111 
L 228.581318 194.695566 
L 227.589556 194.02962 
L 227.183649 193.363674 
L 227.183515 193.030701 
L 227.334208 192.677073 
L 228.004478 192.017142 
L 229.345019 191.262268 
L 231.690965 190.261575 
L 239.520586 187.037188 
L 242.750424 185.484342 
L 247.188998 183.041512 
L 250.458533 181.00223 
L 254.145019 178.443714 
L 258.166641 175.330264 
L 261.989153 172.053404 
L 265.54332 168.723674 
L 269.469932 164.727998 
L 273.10044 160.732323 
L 277.036796 156.070701 
L 281.290965 150.645618 
L 283.761418 147.310238 
M 291.4285 136.09169 
L 296.036911 128.711268 
L 299.547643 122.773404 
L 305.293106 112.451242 
L 311.453127 100.553209 
L 314.606997 94.137728 
L 320.676186 81.151782 
L 328.086697 64.17016 
L 337.09757 41.860971 
L 342.773012 26.877188 
L 342.773012 26.877188 
" clip-path="url(#p135b64fd68)" style="fill: none; stroke: #fde725; stroke-width: 2.25"/>
    <path d="M 350.843389 26.877188 
L 346.378103 39.863133 
L 342.95583 49.48866 
L 335.095877 70.496647 
L 330.880308 81.151782 
L 324.188262 97.168214 
L 317.793286 111.452323 
L 312.210649 123.106377 
L 308.673317 130.098809 
L 304.415289 138.114269 
L 299.34357 147.080431 
L 294.909336 154.405836 
L 291.266818 160.066377 
L 287.323397 165.830017 
L 282.966641 171.756165 
L 278.750838 177.047998 
L 275.258533 181.105381 
L 271.572046 185.064375 
L 267.873964 188.702052 
L 264.199073 191.985407 
L 260.843577 194.695566 
L 257.49637 197.123375 
L 254.145019 199.28012 
L 251.060459 201.022052 
L 247.777451 202.619201 
L 244.761235 203.853164 
L 241.745019 204.863903 
L 238.583477 205.683674 
L 235.712587 206.213759 
L 232.69637 206.552339 
L 229.680154 206.667068 
L 226.663938 206.555251 
L 223.647722 206.218868 
L 220.631505 205.657443 
L 217.615289 204.868338 
L 214.599073 203.853223 
L 211.582857 202.611123 
L 208.341444 201.022052 
L 205.215289 199.238329 
L 202.199073 197.284242 
L 198.847722 194.841742 
L 195.790324 192.364755 
L 192.433631 189.367998 
L 189.036836 186.038269 
L 185.611742 182.375566 
L 182.090965 178.288168 
L 178.404478 173.6506 
L 174.543824 168.390701 
L 171.353518 163.729079 
L 167.32244 157.402593 
L 163.210959 150.41016 
L 160.292693 145.082593 
L 156.437147 137.424215 
L 154.754773 133.761512 
L 153.494333 130.764755 
L 152.538744 128.100971 
L 152.224032 126.769079 
L 152.263938 126.14264 
L 152.599073 126.072028 
L 153.604478 126.869983 
L 155.819874 129.432863 
L 157.961235 132.134959 
L 163.658533 139.437438 
L 167.970316 144.74962 
L 173.377451 150.984705 
L 177.203731 155.071782 
L 181.238251 159.067458 
L 185.107181 162.586806 
L 188.893993 165.726917 
L 192.480154 168.418984 
L 195.890793 170.721512 
L 199.211325 172.71935 
L 202.534208 174.476905 
L 206.00327 176.049079 
L 208.901776 177.159201 
L 212.253127 178.207572 
L 215.604478 179.003205 
L 218.95583 179.547169 
L 221.972046 179.819204 
L 224.988262 179.885551 
L 228.004478 179.744708 
L 231.141964 179.378809 
L 234.036911 178.844224 
L 237.388262 177.984835 
L 240.404478 176.99232 
L 243.593239 175.716106 
L 246.436911 174.382454 
L 249.533081 172.71935 
L 252.807179 170.721512 
L 256.201146 168.390701 
L 259.680029 165.726917 
L 262.858533 163.049519 
L 266.545019 159.653584 
L 270.231505 155.944289 
L 274.076058 151.742052 
L 277.939614 147.175641 
L 281.68605 142.418809 
L 285.845858 136.758269 
L 290.004478 130.698476 
L 293.831338 124.771242 
L 298.480911 117.112863 
L 303.074749 109.054388 
L 306.994295 101.796106 
L 312.265131 91.473944 
L 314.173113 87.577278 
M 319.91066 75.357635 
L 323.860659 66.500971 
L 327.717739 57.510701 
L 334.104783 41.860971 
L 339.887362 26.877188 
L 339.887362 26.877188 
" clip-path="url(#p135b64fd68)" style="fill: none; stroke: #b5de2b; stroke-width: 2.25"/>
    <path d="M 121.768369 38.090259 
L 125.879626 47.854485 
L 130.815289 59.057425 
L 134.865854 67.832863 
L 139.210503 76.823133 
L 143.434962 85.147458 
L 148.43864 94.470701 
L 153.269343 102.919967 
L 157.290965 109.541823 
L 161.312587 115.787833 
L 165.334208 121.658867 
L 169.35583 127.153258 
L 173.234677 132.096647 
L 177.173943 136.758269 
L 180.822819 140.753944 
L 184.448076 144.416647 
L 188.123397 147.817855 
L 191.809884 150.912978 
L 195.49637 153.690842 
L 199.053544 156.070701 
L 202.199073 157.930132 
L 205.713866 159.733404 
L 208.901776 161.120709 
L 211.917992 162.214646 
L 215.269343 163.180726 
L 218.28556 163.825931 
L 221.301776 164.258754 
L 224.317992 164.478876 
L 227.334208 164.486562 
L 230.350424 164.281682 
L 233.366641 163.864162 
L 236.382857 163.233976 
L 239.399073 162.390654 
L 242.415289 161.335326 
L 245.432259 160.066377 
L 248.447722 158.586128 
L 251.799073 156.690711 
L 255.150424 154.533048 
L 258.550234 152.075025 
L 261.873794 149.411242 
L 265.27846 146.414485 
L 268.890965 142.938589 
L 272.577451 139.075866 
L 276.378731 134.760431 
L 280.28556 129.972707 
L 284.233671 124.771242 
L 288.246595 119.110701 
L 292.350424 112.931928 
L 296.394216 106.457728 
L 300.516253 99.465296 
L 305.143411 91.140971 
L 309.514919 82.816647 
L 313.992755 73.826377 
L 319.172944 62.838269 
L 323.517992 53.138301 
L 327.781346 43.192863 
L 333.489767 29.207998 
L 334.412248 26.877188 
M 355.622116 26.877188 
L 349.56893 44.986585 
M 342.962314 63.746968 
L 338.934208 74.668193 
L 332.564565 91.140971 
L 326.534208 105.835742 
L 320.748085 119.110701 
L 315.985986 129.432863 
L 311.78403 138.09016 
L 306.653778 148.07935 
L 302.294674 156.070701 
L 298.047722 163.417919 
L 293.35583 171.028413 
L 288.934802 177.713944 
L 284.922812 183.374485 
L 280.95583 188.590595 
L 276.934208 193.491523 
L 273.201152 197.692323 
L 269.561235 201.465217 
L 265.812093 205.017728 
L 262.188262 208.129832 
L 258.836911 210.726604 
L 255.48556 213.052675 
L 252.134208 215.10799 
L 248.782857 216.892889 
L 245.602114 218.336647 
L 242.415289 219.53867 
L 239.399073 220.450945 
L 236.382857 221.143905 
L 233.366641 221.617844 
L 230.350424 221.872024 
L 227.334208 221.907145 
L 224.317992 221.72294 
L 221.301776 221.319412 
L 218.168755 220.667458 
L 215.269343 219.853218 
L 212.253127 218.791109 
L 209.236911 217.509387 
L 206.215558 216.005836 
L 202.869343 214.082592 
L 199.517992 211.885591 
L 196.075333 209.346377 
L 192.815289 206.678389 
L 189.463938 203.667403 
L 185.75933 200.023133 
L 182.037469 196.027458 
L 178.317313 191.698809 
L 174.598595 187.037188 
L 170.881122 182.042593 
L 167.164753 176.715025 
L 163.323397 170.85764 
L 158.936071 163.729079 
L 154.514011 156.070701 
L 150.253127 148.244551 
L 145.216133 138.423133 
L 140.078694 127.767998 
L 135.669132 118.111782 
L 131.603052 108.788539 
L 127.702167 99.465296 
L 122.768779 87.145296 
L 116.404478 70.36921 
L 109.663389 51.517188 
L 103.138306 32.204755 
L 101.397226 26.877188 
L 101.397226 26.877188 
" clip-path="url(#p135b64fd68)" style="fill: none; stroke: #6ece58; stroke-width: 2.25"/>
    <path d="M 129.772739 26.877188 
L 134.874924 38.198269 
L 139.528803 47.990185 
L 143.962399 56.844755 
L 148.540632 65.502052 
L 153.018974 73.493404 
L 157.378396 80.818809 
L 161.647722 87.559082 
L 165.669343 93.515752 
L 169.721406 99.132323 
L 173.712587 104.28679 
L 177.463461 108.788539 
L 181.362586 113.117188 
L 184.946332 116.77989 
L 188.495959 120.10962 
L 192.145019 123.223509 
L 195.49637 125.806664 
L 198.847722 128.125359 
L 202.199073 130.17963 
L 205.550424 131.96926 
L 208.901776 133.494178 
L 212.253127 134.754443 
L 215.604478 135.75026 
L 218.648439 136.425296 
L 221.636911 136.87611 
L 224.653127 137.117276 
L 227.669343 137.144317 
L 230.68556 136.957057 
L 233.701776 136.55534 
L 236.717992 135.939282 
L 239.782559 135.093404 
L 242.750424 134.063912 
L 245.858841 132.762593 
L 249.117992 131.154354 
L 252.469343 129.239333 
L 255.820695 127.059425 
L 259.172046 124.615122 
L 262.677736 121.774485 
L 266.040728 118.777728 
L 269.561235 115.355362 
L 273.252944 111.452323 
L 277.032696 107.123674 
L 280.95583 102.274961 
L 284.977451 96.92781 
L 289.038749 91.140971 
L 293.196432 84.814485 
L 297.377451 78.041429 
L 301.573784 70.82962 
L 306.090965 62.602129 
L 310.463118 54.180971 
L 314.591417 45.816548 
M 322.906395 27.749054 
L 323.289802 26.877188 
M 364.145641 26.877188 
L 359.471047 41.860971 
L 354.843558 56.178809 
L 349.813261 71.162593 
L 344.924035 85.147458 
L 339.197925 100.797188 
L 333.819788 114.782052 
L 328.707126 127.435025 
L 324.188262 138.100015 
L 318.8261 150.119569 
L 313.651626 161.065296 
L 309.327391 169.722593 
L 304.941172 178.046917 
L 300.673451 185.705296 
L 296.34302 193.030701 
L 291.936953 200.023133 
L 287.904087 206.016647 
L 283.972046 211.486257 
L 279.950424 216.697722 
L 275.928803 221.522047 
L 272.188268 225.662052 
L 268.55583 229.362483 
L 264.869343 232.794949 
L 261.496078 235.651242 
L 258.012232 238.315025 
L 254.59567 240.645836 
L 251.463938 242.537213 
L 248.097782 244.308539 
L 244.761235 245.796509 
L 241.564767 246.972323 
L 238.728803 247.811148 
L 235.712587 248.492063 
L 232.568143 248.97016 
L 229.680154 249.201086 
L 226.663938 249.229197 
L 223.647722 249.039655 
L 220.631505 248.632632 
L 217.467303 247.971242 
L 214.599073 247.165163 
L 211.582857 246.105094 
L 208.566641 244.827369 
L 205.508248 243.30962 
L 202.199073 241.41525 
L 198.847722 239.229774 
L 195.334811 236.65016 
L 192.067633 233.986377 
L 188.717519 230.98962 
L 185.107181 227.459608 
L 181.420695 223.533161 
L 177.734208 219.281613 
L 173.765712 214.340971 
L 170.0261 209.340996 
L 165.844795 203.352863 
L 161.924346 197.35935 
L 157.826056 190.69989 
L 153.766562 183.707458 
L 149.739971 176.382052 
L 145.561235 168.370697 
L 140.642039 158.401512 
L 136.432313 149.411242 
L 131.681907 138.756106 
L 127.017242 127.767998 
L 122.101776 115.626623 
L 116.392737 100.797188 
L 110.551532 84.814485 
L 105.668338 70.82962 
L 105.507953 70.358588 
M 99.221807 51.488298 
L 93.514991 33.536647 
L 91.458862 26.877188 
L 91.458862 26.877188 
" clip-path="url(#p135b64fd68)" style="fill: none; stroke: #35b779; stroke-width: 2.25"/>
    <path d="M 156.057948 26.877188 
L 160.366703 33.86962 
L 164.521266 40.196106 
L 168.488692 45.856647 
L 172.486625 51.184215 
L 176.393668 56.025754 
L 180.302199 60.507458 
L 183.766641 64.178353 
L 187.517971 67.832863 
L 191.139614 71.045715 
L 194.601579 73.826377 
L 197.842316 76.173087 
L 201.193668 78.338533 
L 204.545019 80.238248 
L 207.89637 81.872367 
L 211.247722 83.240947 
L 214.263938 84.245557 
L 217.280154 85.035035 
L 220.29637 85.609375 
L 223.312587 85.968576 
L 226.328803 86.112552 
L 229.345019 86.041535 
L 232.361235 85.755277 
L 235.377451 85.253955 
L 238.595127 84.481512 
L 241.409884 83.605822 
L 244.4261 82.458955 
L 247.777451 80.932507 
L 251.128803 79.140275 
L 254.480154 77.082599 
L 257.831505 74.759239 
L 261.19351 72.161512 
L 264.702825 69.164755 
L 268.220695 65.868863 
L 271.907181 62.100707 
L 275.738478 57.843674 
L 279.34861 53.515025 
L 283.301776 48.42165 
L 285.658224 45.209518 
M 378.960711 26.877188 
L 377.754807 31.214042 
M 370.525718 56.479994 
L 365.039177 74.825296 
L 359.016153 94.137728 
L 353.009884 112.535637 
L 347.111112 129.765836 
L 342.222795 143.417728 
L 336.861352 157.735566 
L 331.561235 171.216813 
L 326.199073 184.17398 
L 321.024424 196.027458 
L 316.430752 206.016647 
L 311.586097 216.005836 
L 307.324848 224.33016 
L 303.00823 232.321512 
L 298.625929 239.97989 
L 294.361235 246.993923 
L 290.004478 253.711166 
L 285.900017 259.625296 
L 281.938851 264.952863 
L 277.939614 269.9521 
L 274.204909 274.276106 
L 270.466295 278.271782 
L 266.880154 281.791902 
L 263.193668 285.090755 
L 259.686791 287.927998 
L 256.490965 290.258994 
L 253.139614 292.4414 
L 249.788262 294.35627 
L 246.436911 296.003451 
L 243.08556 297.382912 
L 240.069343 298.395577 
L 236.79618 299.249079 
L 234.036911 299.770442 
L 231.020695 300.132647 
L 228.004478 300.278092 
L 224.988262 300.206622 
L 221.947184 299.915025 
L 218.95583 299.413156 
L 215.939614 298.691234 
L 212.923397 297.752452 
L 209.879565 296.585296 
L 206.55583 295.058559 
L 203.204478 293.252687 
L 199.853127 291.178912 
L 196.501776 288.837525 
L 193.150424 286.228504 
L 189.704517 283.266377 
L 186.112587 279.878069 
L 182.4261 276.080465 
L 178.727775 271.945296 
L 174.869794 267.283674 
L 171.275565 262.622052 
L 167.345019 257.171997 
L 163.16296 250.967998 
L 159.16112 244.641512 
L 154.994412 237.649079 
L 150.923397 230.417529 
L 146.269626 221.666377 
L 142.077985 213.342052 
L 137.517992 203.811848 
L 132.476559 192.697728 
L 127.462682 181.043674 
L 122.156881 168.057728 
L 117.6132 156.403674 
L 112.640029 143.084755 
L 107.291004 128.100971 
L 101.725054 111.785296 
L 96.822345 96.801512 
L 91.479231 79.81989 
L 85.907181 61.387246 
L 79.478139 39.197188 
L 76.026571 26.877188 
L 76.026571 26.877188 
" clip-path="url(#p135b64fd68)" style="fill: none; stroke: #1f9e89; stroke-width: 2.25"/>
    <path d="M 171.472388 359.517188 
L 167.680154 354.306602 
L 163.519942 348.196106 
L 159.480644 341.86962 
L 155.473601 335.21016 
L 151.258533 327.79322 
L 146.66467 319.227458 
L 142.43794 310.903133 
L 137.853127 301.393562 
L 132.915421 290.591782 
L 128.426733 280.26962 
L 123.442316 268.245882 
L 118.200914 254.963674 
L 113.30881 241.977728 
L 108.0261 227.316035 
L 102.413908 211.011242 
L 97.301776 195.508402 
L 91.465563 177.047998 
L 85.907181 158.714938 
L 79.809881 137.757188 
L 73.766867 116.113944 
L 67.601998 93.138809 
L 65.877504 86.550595 
M 390.434989 80.231851 
L 384.155755 104.126917 
L 377.778206 127.435025 
L 371.603789 149.078269 
L 365.963406 168.057728 
L 360.2943 186.371242 
L 354.68556 203.737936 
L 348.853638 221.000431 
L 343.554909 235.984215 
L 338.255506 250.302052 
L 332.901776 264.08779 
L 327.653354 276.93989 
L 322.93819 287.927998 
L 318.440203 297.917188 
L 313.708113 307.906377 
L 309.044749 317.22962 
L 304.415289 325.973542 
L 299.783394 334.211242 
L 295.701776 341.047737 
L 291.345019 347.907553 
L 287.076865 354.18962 
L 283.202467 359.517188 
L 283.202467 359.517188 
" clip-path="url(#p135b64fd68)" style="fill: none; stroke: #26828e; stroke-width: 2.25"/>
    <path d="M 91.32056 359.517188 
L 85.963675 341.86962 
L 80.515828 323.223133 
L 74.435919 301.57989 
L 68.412219 279.270701 
L 66.156213 270.693815 
M 389.395877 266.704263 
L 383.343123 289.592863 
L 377.474749 310.953729 
L 371.299465 332.546377 
L 365.543091 351.858809 
L 363.19291 359.517188 
L 363.19291 359.517188 
" clip-path="url(#p135b64fd68)" style="fill: none; stroke: #31688e; stroke-width: 2.25"/>
    <path clip-path="url(#p135b64fd68)" style="fill: none; stroke: #3e4989; stroke-width: 2.25"/>
    <path clip-path="url(#p135b64fd68)" style="fill: none; stroke: #482878; stroke-width: 2.25"/>
    <path clip-path="url(#p135b64fd68)" style="fill: none; stroke: #440154; stroke-width: 2.25"/>
   </g>
   <g id="PathCollection_1">
    <defs>
     <path id="md87136fd04" d="M 0 4.5 
C 1.193414 4.5 2.338109 4.025852 3.181981 3.181981 
C 4.025852 2.338109 4.5 1.193414 4.5 0 
C 4.5 -1.193414 4.025852 -2.338109 3.181981 -3.181981 
C 2.338109 -4.025852 1.193414 -4.5 0 -4.5 
C -1.193414 -4.5 -2.338109 -4.025852 -3.181981 -3.181981 
C -4.025852 -2.338109 -4.5 -1.193414 -4.5 0 
C -4.5 1.193414 -4.025852 2.338109 -3.181981 3.181981 
C -2.338109 4.025852 -1.193414 4.5 0 4.5 
z
" style="stroke: #000000; stroke-width: 1.5"/>
    </defs>
    <g clip-path="url(#p135b64fd68)">
     <use xlink:href="#md87136fd04" x="279.612532" y="156.454676" style="stroke: #000000; stroke-width: 1.5"/>
     <use xlink:href="#md87136fd04" x="258.041216" y="179.980631" style="stroke: #000000; stroke-width: 1.5"/>
     <use xlink:href="#md87136fd04" x="253.426711" y="186.28463" style="stroke: #000000; stroke-width: 1.5"/>
     <use xlink:href="#md87136fd04" x="248.616927" y="195.886317" style="stroke: #000000; stroke-width: 1.5"/>
     <use xlink:href="#md87136fd04" x="286.807164" y="154.937964" style="stroke: #000000; stroke-width: 1.5"/>
     <use xlink:href="#md87136fd04" x="291.673885" y="147.561532" style="stroke: #000000; stroke-width: 1.5"/>
     <use xlink:href="#md87136fd04" x="246.804987" y="195.516219" style="stroke: #000000; stroke-width: 1.5"/>
     <use xlink:href="#md87136fd04" x="297.719265" y="143.405002" style="stroke: #000000; stroke-width: 1.5"/>
     <use xlink:href="#md87136fd04" x="279.899568" y="158.957786" style="stroke: #000000; stroke-width: 1.5"/>
     <use xlink:href="#md87136fd04" x="273.416015" y="171.00495" style="stroke: #000000; stroke-width: 1.5"/>
     <use xlink:href="#md87136fd04" x="269.531959" y="175.222415" style="stroke: #000000; stroke-width: 1.5"/>
     <use xlink:href="#md87136fd04" x="265.399791" y="179.499173" style="stroke: #000000; stroke-width: 1.5"/>
     <use xlink:href="#md87136fd04" x="283.493086" y="158.20962" style="stroke: #000000; stroke-width: 1.5"/>
     <use xlink:href="#md87136fd04" x="242.21734" y="200.059026" style="stroke: #000000; stroke-width: 1.5"/>
     <use xlink:href="#md87136fd04" x="266.794117" y="174.657085" style="stroke: #000000; stroke-width: 1.5"/>
     <use xlink:href="#md87136fd04" x="261.022795" y="184.46588" style="stroke: #000000; stroke-width: 1.5"/>
     <use xlink:href="#md87136fd04" x="281.330284" y="158.140873" style="stroke: #000000; stroke-width: 1.5"/>
     <use xlink:href="#md87136fd04" x="271.386654" y="168.074347" style="stroke: #000000; stroke-width: 1.5"/>
     <use xlink:href="#md87136fd04" x="253.312293" y="185.884424" style="stroke: #000000; stroke-width: 1.5"/>
     <use xlink:href="#md87136fd04" x="268.070457" y="176.511815" style="stroke: #000000; stroke-width: 1.5"/>
     <use xlink:href="#md87136fd04" x="270.401739" y="168.487209" style="stroke: #000000; stroke-width: 1.5"/>
     <use xlink:href="#md87136fd04" x="265.301928" y="175.283371" style="stroke: #000000; stroke-width: 1.5"/>
     <use xlink:href="#md87136fd04" x="271.611307" y="170.232097" style="stroke: #000000; stroke-width: 1.5"/>
     <use xlink:href="#md87136fd04" x="264.538355" y="175.960347" style="stroke: #000000; stroke-width: 1.5"/>
     <use xlink:href="#md87136fd04" x="273.345041" y="169.721534" style="stroke: #000000; stroke-width: 1.5"/>
     <use xlink:href="#md87136fd04" x="259.426345" y="180.578682" style="stroke: #000000; stroke-width: 1.5"/>
     <use xlink:href="#md87136fd04" x="270.576464" y="169.285081" style="stroke: #000000; stroke-width: 1.5"/>
     <use xlink:href="#md87136fd04" x="273.158902" y="168.358995" style="stroke: #000000; stroke-width: 1.5"/>
     <use xlink:href="#md87136fd04" x="282.694144" y="152.905952" style="stroke: #000000; stroke-width: 1.5"/>
     <use xlink:href="#md87136fd04" x="292.322817" y="153.444087" style="stroke: #000000; stroke-width: 1.5"/>
     <use xlink:href="#md87136fd04" x="286.347751" y="148.163154" style="stroke: #000000; stroke-width: 1.5"/>
     <use xlink:href="#md87136fd04" x="247.323553" y="188.572888" style="stroke: #000000; stroke-width: 1.5"/>
     <use xlink:href="#md87136fd04" x="279.975086" y="153.400488" style="stroke: #000000; stroke-width: 1.5"/>
     <use xlink:href="#md87136fd04" x="275.026022" y="166.200974" style="stroke: #000000; stroke-width: 1.5"/>
     <use xlink:href="#md87136fd04" x="271.975116" y="167.480077" style="stroke: #000000; stroke-width: 1.5"/>
     <use xlink:href="#md87136fd04" x="274.157557" y="163.917577" style="stroke: #000000; stroke-width: 1.5"/>
     <use xlink:href="#md87136fd04" x="265.839274" y="173.033864" style="stroke: #000000; stroke-width: 1.5"/>
     <use xlink:href="#md87136fd04" x="259.567754" y="175.112773" style="stroke: #000000; stroke-width: 1.5"/>
     <use xlink:href="#md87136fd04" x="276.995379" y="161.248872" style="stroke: #000000; stroke-width: 1.5"/>
     <use xlink:href="#md87136fd04" x="281.689396" y="160.603527" style="stroke: #000000; stroke-width: 1.5"/>
     <use xlink:href="#md87136fd04" x="274.640705" y="165.725738" style="stroke: #000000; stroke-width: 1.5"/>
     <use xlink:href="#md87136fd04" x="291.926275" y="147.312432" style="stroke: #000000; stroke-width: 1.5"/>
     <use xlink:href="#md87136fd04" x="267.339041" y="173.911668" style="stroke: #000000; stroke-width: 1.5"/>
     <use xlink:href="#md87136fd04" x="267.340498" y="168.118226" style="stroke: #000000; stroke-width: 1.5"/>
     <use xlink:href="#md87136fd04" x="265.521279" y="180.277703" style="stroke: #000000; stroke-width: 1.5"/>
     <use xlink:href="#md87136fd04" x="279.035351" y="159.784961" style="stroke: #000000; stroke-width: 1.5"/>
     <use xlink:href="#md87136fd04" x="271.675752" y="167.268966" style="stroke: #000000; stroke-width: 1.5"/>
     <use xlink:href="#md87136fd04" x="272.71907" y="170.241129" style="stroke: #000000; stroke-width: 1.5"/>
     <use xlink:href="#md87136fd04" x="256.25263" y="187.245015" style="stroke: #000000; stroke-width: 1.5"/>
     <use xlink:href="#md87136fd04" x="275.562299" y="163.895488" style="stroke: #000000; stroke-width: 1.5"/>
     <use xlink:href="#md87136fd04" x="259.391577" y="180.109208" style="stroke: #000000; stroke-width: 1.5"/>
     <use xlink:href="#md87136fd04" x="276.762069" y="154.954045" style="stroke: #000000; stroke-width: 1.5"/>
     <use xlink:href="#md87136fd04" x="281.839612" y="160.689589" style="stroke: #000000; stroke-width: 1.5"/>
     <use xlink:href="#md87136fd04" x="269.18016" y="169.1128" style="stroke: #000000; stroke-width: 1.5"/>
     <use xlink:href="#md87136fd04" x="270.541655" y="171.098595" style="stroke: #000000; stroke-width: 1.5"/>
     <use xlink:href="#md87136fd04" x="287.325182" y="154.807772" style="stroke: #000000; stroke-width: 1.5"/>
     <use xlink:href="#md87136fd04" x="263.542969" y="178.257027" style="stroke: #000000; stroke-width: 1.5"/>
     <use xlink:href="#md87136fd04" x="284.596109" y="161.509438" style="stroke: #000000; stroke-width: 1.5"/>
     <use xlink:href="#md87136fd04" x="269.677927" y="170.853868" style="stroke: #000000; stroke-width: 1.5"/>
     <use xlink:href="#md87136fd04" x="290.103738" y="149.695501" style="stroke: #000000; stroke-width: 1.5"/>
     <use xlink:href="#md87136fd04" x="292.091986" y="147.006744" style="stroke: #000000; stroke-width: 1.5"/>
     <use xlink:href="#md87136fd04" x="293.119012" y="149.094426" style="stroke: #000000; stroke-width: 1.5"/>
     <use xlink:href="#md87136fd04" x="263.461304" y="177.382097" style="stroke: #000000; stroke-width: 1.5"/>
     <use xlink:href="#md87136fd04" x="271.5851" y="164.557911" style="stroke: #000000; stroke-width: 1.5"/>
     <use xlink:href="#md87136fd04" x="249.572162" y="191.187931" style="stroke: #000000; stroke-width: 1.5"/>
     <use xlink:href="#md87136fd04" x="266.390346" y="177.371346" style="stroke: #000000; stroke-width: 1.5"/>
     <use xlink:href="#md87136fd04" x="279.091127" y="163.704296" style="stroke: #000000; stroke-width: 1.5"/>
     <use xlink:href="#md87136fd04" x="269.421072" y="170.695443" style="stroke: #000000; stroke-width: 1.5"/>
     <use xlink:href="#md87136fd04" x="290.912406" y="150.124703" style="stroke: #000000; stroke-width: 1.5"/>
     <use xlink:href="#md87136fd04" x="271.91272" y="164.996829" style="stroke: #000000; stroke-width: 1.5"/>
     <use xlink:href="#md87136fd04" x="274.88771" y="167.756314" style="stroke: #000000; stroke-width: 1.5"/>
     <use xlink:href="#md87136fd04" x="260.775067" y="180.223507" style="stroke: #000000; stroke-width: 1.5"/>
     <use xlink:href="#md87136fd04" x="248.93536" y="189.124503" style="stroke: #000000; stroke-width: 1.5"/>
     <use xlink:href="#md87136fd04" x="269.518488" y="170.698889" style="stroke: #000000; stroke-width: 1.5"/>
     <use xlink:href="#md87136fd04" x="274.660455" y="168.324995" style="stroke: #000000; stroke-width: 1.5"/>
     <use xlink:href="#md87136fd04" x="298.887125" y="145.088731" style="stroke: #000000; stroke-width: 1.5"/>
     <use xlink:href="#md87136fd04" x="276.401626" y="166.496341" style="stroke: #000000; stroke-width: 1.5"/>
     <use xlink:href="#md87136fd04" x="258.716059" y="180.923629" style="stroke: #000000; stroke-width: 1.5"/>
     <use xlink:href="#md87136fd04" x="268.447749" y="167.431822" style="stroke: #000000; stroke-width: 1.5"/>
     <use xlink:href="#md87136fd04" x="264.445963" y="177.596537" style="stroke: #000000; stroke-width: 1.5"/>
     <use xlink:href="#md87136fd04" x="282.039076" y="158.520311" style="stroke: #000000; stroke-width: 1.5"/>
     <use xlink:href="#md87136fd04" x="276.74708" y="163.610895" style="stroke: #000000; stroke-width: 1.5"/>
     <use xlink:href="#md87136fd04" x="281.723083" y="163.818551" style="stroke: #000000; stroke-width: 1.5"/>
     <use xlink:href="#md87136fd04" x="273.997853" y="162.860692" style="stroke: #000000; stroke-width: 1.5"/>
     <use xlink:href="#md87136fd04" x="267.426675" y="170.090158" style="stroke: #000000; stroke-width: 1.5"/>
     <use xlink:href="#md87136fd04" x="261.764524" y="177.569249" style="stroke: #000000; stroke-width: 1.5"/>
     <use xlink:href="#md87136fd04" x="275.739503" y="162.692665" style="stroke: #000000; stroke-width: 1.5"/>
     <use xlink:href="#md87136fd04" x="262.414098" y="178.016491" style="stroke: #000000; stroke-width: 1.5"/>
     <use xlink:href="#md87136fd04" x="259.151081" y="178.179821" style="stroke: #000000; stroke-width: 1.5"/>
     <use xlink:href="#md87136fd04" x="263.704029" y="178.130048" style="stroke: #000000; stroke-width: 1.5"/>
     <use xlink:href="#md87136fd04" x="268.470282" y="165.426982" style="stroke: #000000; stroke-width: 1.5"/>
     <use xlink:href="#md87136fd04" x="272.965475" y="169.988538" style="stroke: #000000; stroke-width: 1.5"/>
     <use xlink:href="#md87136fd04" x="286.808956" y="152.64004" style="stroke: #000000; stroke-width: 1.5"/>
     <use xlink:href="#md87136fd04" x="285.623113" y="149.389421" style="stroke: #000000; stroke-width: 1.5"/>
     <use xlink:href="#md87136fd04" x="294.34241" y="146.167231" style="stroke: #000000; stroke-width: 1.5"/>
     <use xlink:href="#md87136fd04" x="273.181661" y="164.163169" style="stroke: #000000; stroke-width: 1.5"/>
     <use xlink:href="#md87136fd04" x="261.481454" y="180.600802" style="stroke: #000000; stroke-width: 1.5"/>
     <use xlink:href="#md87136fd04" x="282.648622" y="156.302246" style="stroke: #000000; stroke-width: 1.5"/>
     <use xlink:href="#md87136fd04" x="257.827182" y="186.265186" style="stroke: #000000; stroke-width: 1.5"/>
     <use xlink:href="#md87136fd04" x="283.712528" y="153.50355" style="stroke: #000000; stroke-width: 1.5"/>
    </g>
   </g>
   <g id="PathCollection_2">
    <defs>
     <path id="m6cf50bccb6" d="M 0 4.5 
C 1.193414 4.5 2.338109 4.025852 3.181981 3.181981 
C 4.025852 2.338109 4.5 1.193414 4.5 0 
C 4.5 -1.193414 4.025852 -2.338109 3.181981 -3.181981 
C 2.338109 -4.025852 1.193414 -4.5 0 -4.5 
C -1.193414 -4.5 -2.338109 -4.025852 -3.181981 -3.181981 
C -4.025852 -2.338109 -4.5 -1.193414 -4.5 0 
C -4.5 1.193414 -4.025852 2.338109 -3.181981 3.181981 
C -2.338109 4.025852 -1.193414 4.5 0 4.5 
z
" style="stroke: #ff0000; stroke-width: 1.5"/>
    </defs>
    <g clip-path="url(#p135b64fd68)">
     <use xlink:href="#m6cf50bccb6" x="282.648622" y="156.302246" style="fill: #ff0000; stroke: #ff0000; stroke-width: 1.5"/>
     <use xlink:href="#m6cf50bccb6" x="286.808956" y="152.64004" style="fill: #ff0000; stroke: #ff0000; stroke-width: 1.5"/>
     <use xlink:href="#m6cf50bccb6" x="281.330284" y="158.140873" style="fill: #ff0000; stroke: #ff0000; stroke-width: 1.5"/>
     <use xlink:href="#m6cf50bccb6" x="282.039076" y="158.520311" style="fill: #ff0000; stroke: #ff0000; stroke-width: 1.5"/>
     <use xlink:href="#m6cf50bccb6" x="283.712528" y="153.50355" style="fill: #ff0000; stroke: #ff0000; stroke-width: 1.5"/>
     <use xlink:href="#m6cf50bccb6" x="279.899568" y="158.957786" style="fill: #ff0000; stroke: #ff0000; stroke-width: 1.5"/>
     <use xlink:href="#m6cf50bccb6" x="276.74708" y="163.610895" style="fill: #ff0000; stroke: #ff0000; stroke-width: 1.5"/>
     <use xlink:href="#m6cf50bccb6" x="279.035351" y="159.784961" style="fill: #ff0000; stroke: #ff0000; stroke-width: 1.5"/>
     <use xlink:href="#m6cf50bccb6" x="275.026022" y="166.200974" style="fill: #ff0000; stroke: #ff0000; stroke-width: 1.5"/>
     <use xlink:href="#m6cf50bccb6" x="274.640705" y="165.725738" style="fill: #ff0000; stroke: #ff0000; stroke-width: 1.5"/>
     <use xlink:href="#m6cf50bccb6" x="273.158902" y="168.358995" style="fill: #ff0000; stroke: #ff0000; stroke-width: 1.5"/>
     <use xlink:href="#m6cf50bccb6" x="283.493086" y="158.20962" style="fill: #ff0000; stroke: #ff0000; stroke-width: 1.5"/>
     <use xlink:href="#m6cf50bccb6" x="275.562299" y="163.895488" style="fill: #ff0000; stroke: #ff0000; stroke-width: 1.5"/>
     <use xlink:href="#m6cf50bccb6" x="274.88771" y="167.756314" style="fill: #ff0000; stroke: #ff0000; stroke-width: 1.5"/>
     <use xlink:href="#m6cf50bccb6" x="271.611307" y="170.232097" style="fill: #ff0000; stroke: #ff0000; stroke-width: 1.5"/>
     <use xlink:href="#m6cf50bccb6" x="281.689396" y="160.603527" style="fill: #ff0000; stroke: #ff0000; stroke-width: 1.5"/>
     <use xlink:href="#m6cf50bccb6" x="276.401626" y="166.496341" style="fill: #ff0000; stroke: #ff0000; stroke-width: 1.5"/>
     <use xlink:href="#m6cf50bccb6" x="270.541655" y="171.098595" style="fill: #ff0000; stroke: #ff0000; stroke-width: 1.5"/>
     <use xlink:href="#m6cf50bccb6" x="279.091127" y="163.704296" style="fill: #ff0000; stroke: #ff0000; stroke-width: 1.5"/>
     <use xlink:href="#m6cf50bccb6" x="274.660455" y="168.324995" style="fill: #ff0000; stroke: #ff0000; stroke-width: 1.5"/>
    </g>
   </g>
   <g id="QuadContourSet_2">
    <path d="M 259.172046 186.736993 
L 259.357823 186.704215 
L 259.507181 186.684521 
L 259.842316 186.586085 
L 260.177451 186.443093 
L 260.304103 186.371242 
L 260.512587 186.278109 
L 260.847722 186.084681 
L 260.915189 186.038269 
L 261.182857 185.889152 
L 261.442366 185.705296 
L 261.517992 185.661564 
L 261.853127 185.431889 
L 261.928573 185.372323 
L 262.188262 185.200364 
L 262.388422 185.03935 
L 262.523397 184.947576 
L 262.818025 184.706377 
L 262.858533 184.678129 
L 263.193668 184.412813 
L 263.238862 184.373404 
L 263.528803 184.152246 
L 263.655483 184.040431 
L 263.863938 183.878242 
L 264.055215 183.707458 
L 264.199073 183.593362 
L 264.44156 183.374485 
L 264.534208 183.299627 
L 264.817231 183.041512 
L 264.869343 182.998642 
L 265.184344 182.708539 
L 265.204478 182.691684 
L 265.539614 182.384132 
L 265.548618 182.375566 
L 265.874749 182.086087 
L 265.920136 182.042593 
L 266.209884 181.781558 
L 266.284438 181.70962 
L 266.545019 181.47143 
L 266.642607 181.376647 
L 266.880154 181.15641 
L 266.995502 181.043674 
L 267.215289 180.837057 
L 267.343804 180.710701 
L 267.550424 180.513805 
L 267.688041 180.377728 
L 267.88556 180.186986 
L 268.028621 180.044755 
L 268.220695 179.856838 
L 268.365844 179.711782 
L 268.55583 179.523515 
L 268.699915 179.378809 
L 268.890965 179.187098 
L 269.030959 179.045836 
L 269.2261 178.847592 
L 269.35902 178.712863 
L 269.561235 178.504932 
L 269.684068 178.37989 
L 269.89637 178.158974 
L 270.005997 178.046917 
L 270.231505 177.809498 
L 270.324622 177.713944 
L 270.566641 177.456193 
L 270.639669 177.380971 
L 270.901776 177.098645 
L 270.95077 177.047998 
L 271.236911 176.736325 
L 271.257446 176.715025 
L 271.567013 176.382052 
L 271.572046 176.376579 
L 271.887265 176.049079 
L 271.907181 176.027173 
L 272.205536 175.716106 
L 272.242316 175.675201 
L 272.521515 175.383133 
L 272.577451 175.320239 
L 272.834809 175.05016 
L 272.912587 174.961761 
L 273.144933 174.717188 
L 273.247722 174.599114 
L 273.451288 174.384215 
L 273.582857 174.231489 
L 273.753127 174.051242 
L 273.917992 173.857877 
L 274.049527 173.718269 
L 274.253127 173.477021 
L 274.339332 173.385296 
L 274.588262 173.087348 
L 274.6211 173.052323 
L 274.912919 172.71935 
L 274.923397 172.7068 
L 275.222727 172.386377 
L 275.258533 172.343057 
L 275.528463 172.053404 
L 275.593668 171.973723 
L 275.829169 171.720431 
L 275.928803 171.597468 
L 276.123635 171.387458 
L 276.263938 171.212603 
L 276.410323 171.054485 
L 276.599073 170.816971 
L 276.687274 170.721512 
L 276.934208 170.407798 
L 276.95197 170.388539 
L 277.24724 170.055566 
L 277.269343 170.027436 
L 277.549147 169.722593 
L 277.604478 169.651496 
L 277.844391 169.38962 
L 277.939614 169.266101 
L 278.131158 169.056647 
L 278.274749 168.868633 
L 278.407089 168.723674 
L 278.609884 168.455667 
L 278.669099 168.390701 
L 278.93494 168.057728 
L 278.945019 168.044373 
L 279.234736 167.724755 
L 279.280154 167.664015 
L 279.526525 167.391782 
L 279.615289 167.27198 
L 279.807918 167.058809 
L 279.950424 166.864716 
L 280.075743 166.725836 
L 280.28556 166.437485 
L 280.32577 166.392863 
L 280.599618 166.05989 
L 280.620695 166.030827 
L 280.89284 165.726917 
L 280.95583 165.639273 
L 281.175228 165.393944 
L 281.290965 165.231468 
L 281.443252 165.060971 
L 281.6261 164.802009 
L 281.69213 164.727998 
L 281.947186 164.395025 
L 281.961235 164.375047 
L 282.238529 164.062052 
L 282.29637 163.979072 
L 282.517599 163.729079 
L 282.631505 163.564237 
L 282.780135 163.396106 
L 282.966641 163.123862 
L 283.020273 163.063133 
L 283.279922 162.73016 
L 283.301776 162.698107 
L 283.565492 162.397188 
L 283.636911 162.291531 
L 283.835938 162.064215 
L 283.972046 161.861135 
L 284.085676 161.731242 
L 284.307094 161.398269 
L 284.307181 161.398137 
L 284.595911 161.065296 
L 284.642316 160.995082 
L 284.870068 160.732323 
L 284.977451 160.568478 
L 285.123939 160.39935 
L 285.312587 160.109108 
L 285.349573 160.066377 
L 285.613507 159.733404 
L 285.647722 159.680432 
L 285.887866 159.400431 
L 285.982857 159.252146 
L 286.14116 159.067458 
L 286.317992 158.789144 
L 286.364818 158.734485 
L 286.620209 158.401512 
L 286.653127 158.349336 
L 286.891297 158.068539 
L 286.988262 157.913596 
L 287.139197 157.735566 
L 287.323397 157.438849 
L 287.354123 157.402593 
L 287.615852 157.06962 
L 287.658533 157.000324 
L 287.879591 156.736647 
L 287.993668 156.549955 
L 288.116269 156.403674 
L 288.324056 156.070701 
L 288.328803 156.062865 
L 288.598121 155.737728 
L 288.663938 155.628205 
L 288.848994 155.404755 
L 288.999073 155.15306 
L 289.066378 155.071782 
L 289.301965 154.738809 
L 289.334208 154.684202 
L 289.561797 154.405836 
L 289.669343 154.222296 
L 289.791518 154.072863 
L 289.995368 153.73989 
L 290.004478 153.724172 
L 290.260283 153.406917 
L 290.339614 153.26901 
L 290.496922 153.073944 
L 290.674749 152.762496 
L 290.692111 152.740971 
L 290.9476 152.407998 
L 291.009884 152.29759 
L 291.186722 152.075025 
L 291.345019 151.792361 
L 291.385007 151.742052 
L 291.625193 151.409079 
L 291.680154 151.309608 
L 291.862723 151.076106 
L 292.015289 150.798015 
L 292.058226 150.743133 
L 292.293124 150.41016 
L 292.350424 150.304138 
L 292.524799 150.077188 
L 292.68556 149.77768 
L 292.711294 149.744215 
L 292.950084 149.411242 
L 293.020695 149.277469 
L 293.170867 149.078269 
L 293.350021 148.745296 
L 293.35583 148.734081 
L 293.593078 148.412323 
L 293.690965 148.222117 
L 293.796385 148.07935 
L 293.991615 147.746377 
L 294.0261 147.677924 
L 294.216691 147.413404 
L 294.361235 147.124773 
L 294.393243 147.080431 
L 294.613826 146.747458 
L 294.69637 146.578632 
L 294.811674 146.414485 
L 294.99505 146.081512 
L 295.031505 146.004865 
L 295.206074 145.748539 
L 295.364677 145.415566 
L 295.366641 145.411304 
L 295.582707 145.082593 
L 295.701776 144.823014 
L 295.750195 144.74962 
L 295.944922 144.416647 
L 296.036911 144.208638 
L 296.116114 144.083674 
L 296.29384 143.750701 
L 296.372046 143.566059 
L 296.461759 143.417728 
L 296.628513 143.084755 
L 296.707181 142.889179 
L 296.785799 142.751782 
L 296.945579 142.418809 
L 297.042316 142.162722 
L 297.083467 142.085836 
L 297.238283 141.752863 
L 297.357311 141.41989 
L 297.377451 141.355503 
L 297.494469 141.086917 
L 297.607774 140.753944 
L 297.698338 140.420971 
L 297.712587 140.354247 
L 297.790257 140.087998 
L 297.854791 139.755025 
L 297.885061 139.422052 
L 297.866106 139.089079 
L 297.75262 138.756106 
L 297.712587 138.699126 
L 297.377451 138.490813 
L 297.042316 138.475795 
L 296.707181 138.539087 
L 296.372046 138.653501 
L 296.164941 138.756106 
L 296.036911 138.805428 
L 295.701776 138.973 
L 295.51994 139.089079 
L 295.366641 139.167382 
L 295.031505 139.38186 
L 294.977075 139.422052 
L 294.69637 139.592546 
L 294.48148 139.755025 
L 294.361235 139.830392 
L 294.027955 140.087998 
L 294.0261 140.089196 
L 293.690965 140.325033 
L 293.576426 140.420971 
L 293.35583 140.579536 
L 293.150653 140.753944 
L 293.020695 140.849479 
L 292.745222 141.086917 
L 292.68556 141.131734 
L 292.355599 141.41989 
L 292.350424 141.423859 
L 292.015289 141.697972 
L 291.955243 141.752863 
L 291.680154 141.979601 
L 291.56503 142.085836 
L 291.345019 142.270299 
L 291.185515 142.418809 
L 291.009884 142.568526 
L 290.814727 142.751782 
L 290.674749 142.873049 
L 290.451109 143.084755 
L 290.339614 143.182877 
L 290.093423 143.417728 
L 290.004478 143.497213 
L 289.740688 143.750701 
L 289.669343 143.815417 
L 289.392121 144.083674 
L 289.334208 144.136979 
L 289.047103 144.416647 
L 288.999073 144.46149 
L 288.705145 144.74962 
L 288.663938 144.788633 
L 288.365861 145.082593 
L 288.328803 145.11816 
L 288.028958 145.415566 
L 287.993668 145.449891 
L 287.694214 145.748539 
L 287.658533 145.783702 
L 287.361473 146.081512 
L 287.323397 146.119518 
L 287.030635 146.414485 
L 286.988262 146.457316 
L 286.701653 146.747458 
L 286.653127 146.797119 
L 286.374528 147.080431 
L 286.317992 147.138996 
L 286.049314 147.413404 
L 285.982857 147.483072 
L 285.72611 147.746377 
L 285.647722 147.829521 
L 285.405073 148.07935 
L 285.312587 148.178586 
L 285.086418 148.412323 
L 284.977451 148.530576 
L 284.770428 148.745296 
L 284.642316 148.885887 
L 284.457464 149.078269 
L 284.307181 149.245017 
L 284.147983 149.411242 
L 283.972046 149.608584 
L 283.842552 149.744215 
L 283.636911 149.977357 
L 283.54188 150.077188 
L 283.301776 150.352289 
L 283.246843 150.41016 
L 282.966641 150.734565 
L 282.95853 150.743133 
L 282.648245 151.076106 
L 282.631505 151.095485 
L 282.335516 151.409079 
L 282.29637 151.454873 
L 282.026059 151.742052 
L 281.961235 151.818674 
L 281.720574 152.075025 
L 281.6261 152.187838 
L 281.41993 152.407998 
L 281.290965 152.563558 
L 281.125221 152.740971 
L 280.95583 152.947338 
L 280.837819 153.073944 
L 280.620695 153.341079 
L 280.559458 153.406917 
L 280.28784 153.73989 
L 280.28556 153.742699 
L 279.979752 154.072863 
L 279.950424 154.109347 
L 279.676406 154.405836 
L 279.615289 154.482611 
L 279.378997 154.738809 
L 279.280154 154.86418 
L 279.089058 155.071782 
L 278.945019 155.25623 
L 278.808557 155.404755 
L 278.609884 155.661577 
L 278.540041 155.737728 
L 278.278633 156.070701 
L 278.274749 156.075734 
L 277.975512 156.403674 
L 277.939614 156.450621 
L 277.679084 156.736647 
L 277.604478 156.835131 
L 277.391249 157.06962 
L 277.269343 157.232039 
L 277.114497 157.402593 
L 276.934208 157.645008 
L 276.852113 157.735566 
L 276.602017 158.068539 
L 276.599073 158.072509 
L 276.302573 158.401512 
L 276.263938 158.454094 
L 276.011622 158.734485 
L 275.928803 158.848228 
L 275.731799 159.067458 
L 275.593668 159.258876 
L 275.46663 159.400431 
L 275.258533 159.691379 
L 275.220864 159.733404 
L 274.947123 160.066377 
L 274.923397 160.099673 
L 274.65657 160.39935 
L 274.588262 160.496067 
L 274.378158 160.732323 
L 274.253127 160.910915 
L 274.115989 161.065296 
L 273.917992 161.350585 
L 273.875679 161.398269 
L 273.607803 161.731242 
L 273.582857 161.767346 
L 273.321356 162.064215 
L 273.247722 162.171715 
L 273.049312 162.397188 
L 272.912587 162.598519 
L 272.796854 162.73016 
L 272.577451 163.056 
L 272.571186 163.063133 
L 272.284583 163.396106 
L 272.242316 163.459203 
L 272.007168 163.729079 
L 271.907181 163.879613 
L 271.748349 164.062052 
L 271.572046 164.329722 
L 271.515235 164.395025 
L 271.261619 164.727998 
L 271.236911 164.765733 
L 270.982317 165.060971 
L 270.901776 165.185006 
L 270.721725 165.393944 
L 270.566641 165.63476 
L 270.487274 165.726917 
L 270.249428 166.05989 
L 270.231505 166.087905 
L 269.971375 166.392863 
L 269.89637 166.511075 
L 269.713277 166.725836 
L 269.561235 166.967421 
L 269.48336 167.058809 
L 269.247135 167.391782 
L 269.2261 167.425456 
L 268.973694 167.724755 
L 268.890965 167.858263 
L 268.722817 168.057728 
L 268.55583 168.329373 
L 268.504147 168.390701 
L 268.255752 168.723674 
L 268.220695 168.781181 
L 267.991156 169.056647 
L 267.88556 169.231236 
L 267.753612 169.38962 
L 267.551944 169.722593 
L 267.550424 169.725129 
L 267.2785 170.055566 
L 267.215289 170.161877 
L 267.028783 170.388539 
L 266.880154 170.640448 
L 266.813455 170.721512 
L 266.578983 171.054485 
L 266.545019 171.112648 
L 266.321892 171.387458 
L 266.209884 171.580732 
L 266.096447 171.720431 
L 265.889186 172.053404 
L 265.874749 172.078605 
L 265.628437 172.386377 
L 265.539614 172.542576 
L 265.398103 172.71935 
L 265.207286 173.052323 
L 265.204478 173.057324 
L 264.946067 173.385296 
L 264.869343 173.522956 
L 264.715384 173.718269 
L 264.534208 174.04569 
L 264.52983 174.051242 
L 264.274043 174.384215 
L 264.199073 174.521634 
L 264.047479 174.717188 
L 263.865611 175.05016 
L 263.863938 175.053276 
L 263.613073 175.383133 
L 263.528803 175.541162 
L 263.395627 175.716106 
L 263.207731 176.049079 
L 263.193668 176.075928 
L 262.965485 176.382052 
L 262.858533 176.587572 
L 262.76341 176.715025 
L 262.562001 177.047998 
L 262.523397 177.123683 
L 262.335788 177.380971 
L 262.188262 177.671983 
L 262.157615 177.713944 
L 261.933683 178.046917 
L 261.853127 178.209444 
L 261.731805 178.37989 
L 261.54867 178.712863 
L 261.517992 178.77638 
L 261.331709 179.045836 
L 261.182857 179.355642 
L 261.166799 179.378809 
L 260.94994 179.711782 
L 260.847722 179.930846 
L 260.771305 180.044755 
L 260.582278 180.377728 
L 260.512587 180.532255 
L 260.397282 180.710701 
L 260.226755 181.043674 
L 260.177451 181.157456 
L 260.041861 181.376647 
L 259.883295 181.70962 
L 259.842316 181.808799 
L 259.704929 182.042593 
L 259.553809 182.375566 
L 259.507181 182.49509 
L 259.389216 182.708539 
L 259.242781 183.041512 
L 259.172046 183.236115 
L 259.101087 183.374485 
L 258.958604 183.707458 
L 258.846891 184.040431 
L 258.836911 184.074664 
L 258.716169 184.373404 
L 258.612723 184.706377 
L 258.531625 185.03935 
L 258.501776 185.205599 
L 258.461107 185.372323 
L 258.418076 185.705296 
L 258.421454 186.038269 
L 258.501776 186.370833 
L 258.501925 186.371242 
L 258.836911 186.691917 
L 258.910825 186.704215 
L 259.172046 186.736993 
z
" clip-path="url(#p135b64fd68)" style="fill: none; stroke-dasharray: 2.25,3.7125; stroke-dashoffset: 0; stroke: #ff0000; stroke-width: 2.25"/>
    <path d="M 260.177451 184.869688 
L 260.512587 184.955824 
L 260.847722 184.918954 
L 261.182857 184.819071 
L 261.426477 184.706377 
L 261.517992 184.673113 
L 261.853127 184.511151 
L 262.073703 184.373404 
L 262.188262 184.315512 
L 262.523397 184.107572 
L 262.61481 184.040431 
L 262.858533 183.891441 
L 263.102641 183.707458 
L 263.193668 183.649907 
L 263.528803 183.397011 
L 263.556039 183.374485 
L 263.863938 183.154976 
L 263.99886 183.041512 
L 264.199073 182.895246 
L 264.417646 182.708539 
L 264.534208 182.62137 
L 264.817766 182.375566 
L 264.869343 182.33612 
L 265.203305 182.042593 
L 265.204478 182.041676 
L 265.539614 181.764225 
L 265.598879 181.70962 
L 265.874749 181.477561 
L 265.983208 181.376647 
L 266.209884 181.182609 
L 266.357828 181.043674 
L 266.545019 180.880698 
L 266.724453 180.710701 
L 266.880154 180.57289 
L 267.084438 180.377728 
L 267.215289 180.260043 
L 267.438861 180.044755 
L 267.550424 179.942841 
L 267.788575 179.711782 
L 267.88556 179.621831 
L 268.134254 179.378809 
L 268.220695 179.297442 
L 268.476429 179.045836 
L 268.55583 178.970009 
L 268.81551 178.712863 
L 268.890965 178.639781 
L 269.151808 178.37989 
L 269.2261 178.306935 
L 269.485549 178.046917 
L 269.561235 177.971584 
L 269.816883 177.713944 
L 269.89637 177.633777 
L 270.145895 177.380971 
L 270.231505 177.293505 
L 270.472606 177.047998 
L 270.566641 176.950701 
L 270.796976 176.715025 
L 270.901776 176.605233 
L 271.118904 176.382052 
L 271.236911 176.256908 
L 271.438223 176.049079 
L 271.572046 175.905452 
L 271.754695 175.716106 
L 271.907181 175.550513 
L 272.068003 175.383133 
L 272.242316 175.191636 
L 272.377737 175.05016 
L 272.577451 174.828248 
L 272.683379 174.717188 
L 272.912587 174.459637 
L 272.984278 174.384215 
L 273.247722 174.084915 
L 273.279625 174.051242 
L 273.57712 173.718269 
L 273.582857 173.711752 
L 273.891246 173.385296 
L 273.917992 173.354578 
L 274.20257 173.052323 
L 274.253127 172.993621 
L 274.510542 172.71935 
L 274.588262 172.628131 
L 274.814477 172.386377 
L 274.923397 172.257176 
L 275.113526 172.053404 
L 275.258533 171.87959 
L 275.406632 171.720431 
L 275.593668 171.493914 
L 275.692471 171.387458 
L 275.928803 171.098312 
L 275.969379 171.054485 
L 276.253435 170.721512 
L 276.263938 170.708642 
L 276.558942 170.388539 
L 276.599073 170.338861 
L 276.859507 170.055566 
L 276.934208 169.962157 
L 277.153923 169.722593 
L 277.269343 169.576824 
L 277.440653 169.38962 
L 277.604478 169.180676 
L 277.717737 169.056647 
L 277.939614 168.770905 
L 277.982657 168.723674 
L 278.259823 168.390701 
L 278.274749 168.371428 
L 278.559012 168.057728 
L 278.609884 167.991398 
L 278.851022 167.724755 
L 278.945019 167.601012 
L 279.133878 167.391782 
L 279.280154 167.197381 
L 279.405011 167.058809 
L 279.615289 166.776716 
L 279.661056 166.725836 
L 279.932371 166.392863 
L 279.950424 166.368557 
L 280.226244 166.05989 
L 280.28556 165.979278 
L 280.510689 165.726917 
L 280.620695 165.576024 
L 280.782872 165.393944 
L 280.95583 165.154518 
L 281.039029 165.060971 
L 281.285252 164.727998 
L 281.290965 164.720055 
L 281.577901 164.395025 
L 281.6261 164.327391 
L 281.860003 164.062052 
L 281.961235 163.918712 
L 282.128177 163.729079 
L 282.29637 163.488785 
L 282.377856 163.396106 
L 282.621851 163.063133 
L 282.631505 163.049267 
L 282.909764 162.73016 
L 282.966641 162.647742 
L 283.184858 162.397188 
L 283.301776 162.226265 
L 283.442754 162.064215 
L 283.636911 161.777889 
L 283.677451 161.731242 
L 283.941477 161.398269 
L 283.972046 161.352911 
L 284.21973 161.065296 
L 284.307181 160.934408 
L 284.48104 160.732323 
L 284.642316 160.48886 
L 284.719256 160.39935 
L 284.959977 160.066377 
L 284.977451 160.039813 
L 285.238207 159.733404 
L 285.312587 159.619366 
L 285.49875 159.400431 
L 285.647722 159.170094 
L 285.734931 159.067458 
L 285.967286 158.734485 
L 285.982857 158.710218 
L 286.242308 158.401512 
L 286.317992 158.282571 
L 286.497759 158.068539 
L 286.653127 157.822348 
L 286.725975 157.735566 
L 286.963267 157.402593 
L 286.988262 157.362632 
L 287.231306 157.06962 
L 287.323397 156.921182 
L 287.476394 156.736647 
L 287.658533 156.440685 
L 287.689206 156.403674 
L 287.945586 156.070701 
L 287.993668 155.991787 
L 288.201502 155.737728 
L 288.328803 155.527128 
L 288.428887 155.404755 
L 288.646543 155.071782 
L 288.663938 155.04268 
L 288.908938 154.738809 
L 288.999073 154.586831 
L 289.14499 154.405836 
L 289.334208 154.084316 
L 289.343441 154.072863 
L 289.603123 153.73989 
L 289.669343 153.625955 
L 289.8432 153.406917 
L 290.004478 153.127325 
L 290.046856 153.073944 
L 290.286347 152.740971 
L 290.339614 152.647328 
L 290.526385 152.407998 
L 290.674749 152.145245 
L 290.729569 152.075025 
L 290.959298 151.742052 
L 291.009884 151.651047 
L 291.195258 151.409079 
L 291.345019 151.137733 
L 291.392262 151.076106 
L 291.621206 150.743133 
L 291.680154 150.634427 
L 291.848532 150.41016 
L 292.015289 150.100537 
L 292.032837 150.077188 
L 292.269656 149.744215 
L 292.350424 149.591242 
L 292.482608 149.411242 
L 292.668407 149.078269 
L 292.68556 149.045035 
L 292.899999 148.745296 
L 293.020695 148.510008 
L 293.090702 148.412323 
L 293.295917 148.07935 
L 293.35583 147.959499 
L 293.50417 147.746377 
L 293.676961 147.413404 
L 293.690965 147.384538 
L 293.895661 147.080431 
L 294.0261 146.810223 
L 294.068473 146.747458 
L 294.270607 146.414485 
L 294.361235 146.220188 
L 294.451372 146.081512 
L 294.631734 145.748539 
L 294.69637 145.604226 
L 294.813679 145.415566 
L 294.979586 145.082593 
L 295.031505 144.960897 
L 295.156152 144.74962 
L 295.312512 144.416647 
L 295.366641 144.282029 
L 295.476481 144.083674 
L 295.626097 143.750701 
L 295.701776 143.548102 
L 295.768552 143.417728 
L 295.911801 143.084755 
L 296.025832 142.751782 
L 296.036911 142.714227 
L 296.154227 142.418809 
L 296.256191 142.085836 
L 296.335524 141.752863 
L 296.372046 141.535948 
L 296.397786 141.41989 
L 296.427344 141.086917 
L 296.397754 140.753944 
L 296.372046 140.676185 
L 296.2178 140.420971 
L 296.036911 140.295445 
L 295.701776 140.251394 
L 295.366641 140.307943 
L 295.053773 140.420971 
L 295.031505 140.427208 
L 294.69637 140.566896 
L 294.36167 140.753944 
L 294.361235 140.754138 
L 294.0261 140.936318 
L 293.80769 141.086917 
L 293.690965 141.153101 
L 293.35583 141.3844 
L 293.310359 141.41989 
L 293.020695 141.61101 
L 292.842709 141.752863 
L 292.68556 141.859571 
L 292.407145 142.085836 
L 292.350424 142.125417 
L 292.015289 142.395451 
L 291.988468 142.418809 
L 291.680154 142.655639 
L 291.571207 142.751782 
L 291.345019 142.9292 
L 291.170928 143.084755 
L 291.009884 143.213648 
L 290.784154 143.417728 
L 290.674749 143.507011 
L 290.408185 143.750701 
L 290.339614 143.807723 
L 290.040914 144.083674 
L 290.004478 144.114529 
L 289.680688 144.416647 
L 289.669343 144.426425 
L 289.334208 144.73592 
L 289.319987 144.74962 
L 288.999073 145.042772 
L 288.958037 145.082593 
L 288.663938 145.355288 
L 288.602249 145.415566 
L 288.328803 145.67283 
L 288.25183 145.748539 
L 287.993668 145.994902 
L 287.906162 146.081512 
L 287.658533 146.321131 
L 287.564774 146.414485 
L 287.323397 146.651249 
L 287.227319 146.747458 
L 286.988262 146.985087 
L 286.893562 147.080431 
L 286.653127 147.322564 
L 286.563364 147.413404 
L 286.317992 147.663685 
L 286.236681 147.746377 
L 285.982857 148.008542 
L 285.913556 148.07935 
L 285.647722 148.357316 
L 285.594125 148.412323 
L 285.312587 148.710284 
L 285.278617 148.745296 
L 284.977451 149.067829 
L 284.967364 149.078269 
L 284.650238 149.411242 
L 284.642316 149.419709 
L 284.329187 149.744215 
L 284.307181 149.768021 
L 284.010094 150.077188 
L 283.972046 150.118836 
L 283.693212 150.41016 
L 283.636911 150.472508 
L 283.378864 150.743133 
L 283.301776 150.829477 
L 283.067454 151.076106 
L 282.966641 151.190294 
L 282.759484 151.409079 
L 282.631505 151.555643 
L 282.455577 151.742052 
L 282.29637 151.926369 
L 282.156507 152.075025 
L 281.961235 152.303526 
L 281.863232 152.407998 
L 281.6261 152.688424 
L 281.576944 152.740971 
L 281.294067 153.073944 
L 281.290965 153.077616 
L 280.984105 153.406917 
L 280.95583 153.440735 
L 280.677856 153.73989 
L 280.620695 153.808976 
L 280.376154 154.072863 
L 280.28556 154.183491 
L 280.080045 154.405836 
L 279.950424 154.565737 
L 279.790843 154.738809 
L 279.615289 154.957557 
L 279.510212 155.071782 
L 279.280154 155.361298 
L 279.240265 155.404755 
L 278.958822 155.737728 
L 278.945019 155.755136 
L 278.656863 156.070701 
L 278.609884 156.130539 
L 278.361023 156.403674 
L 278.274749 156.514647 
L 278.072901 156.736647 
L 277.939614 156.90976 
L 277.794553 157.06962 
L 277.604478 157.318861 
L 277.52864 157.402593 
L 277.272573 157.735566 
L 277.269343 157.739814 
L 276.973428 158.068539 
L 276.934208 158.120624 
L 276.681827 158.401512 
L 276.599073 158.512454 
L 276.399926 158.734485 
L 276.263938 158.918508 
L 276.13056 159.067458 
L 275.928803 159.343018 
L 275.877472 159.400431 
L 275.611291 159.733404 
L 275.593668 159.75757 
L 275.319514 160.066377 
L 275.258533 160.150778 
L 275.038192 160.39935 
L 274.923397 160.559688 
L 274.770589 160.732323 
L 274.588262 160.989295 
L 274.52108 161.065296 
L 274.267419 161.398269 
L 274.253127 161.418511 
L 273.97885 161.731242 
L 273.917992 161.818214 
L 273.702521 162.064215 
L 273.582857 162.236756 
L 273.442506 162.397188 
L 273.247722 162.680528 
L 273.204351 162.73016 
L 272.940365 163.063133 
L 272.912587 163.103772 
L 272.659347 163.396106 
L 272.577451 163.516973 
L 272.393907 163.729079 
L 272.242316 163.954756 
L 272.14956 164.062052 
L 271.91623 164.395025 
L 271.907181 164.408585 
L 271.633681 164.727998 
L 271.572046 164.821159 
L 271.366893 165.060971 
L 271.236911 165.25912 
L 271.121669 165.393944 
L 270.90326 165.726917 
L 270.901776 165.729197 
L 270.622058 166.05989 
L 270.566641 166.145725 
L 270.357755 166.392863 
L 270.231505 166.590051 
L 270.116815 166.725836 
L 269.900519 167.058809 
L 269.89637 167.065344 
L 269.623782 167.391782 
L 269.561235 167.491119 
L 269.366251 167.724755 
L 269.2261 167.949174 
L 269.135549 168.057728 
L 268.909018 168.390701 
L 268.890965 168.419884 
L 268.640705 168.723674 
L 268.55583 168.861987 
L 268.395529 169.056647 
L 268.220695 169.343845 
L 268.183011 169.38962 
L 267.932046 169.722593 
L 267.88556 169.799768 
L 267.677826 170.055566 
L 267.550424 170.268742 
L 267.453152 170.388539 
L 267.235474 170.721512 
L 267.215289 170.755689 
L 266.976274 171.054485 
L 266.880154 171.218498 
L 266.744995 171.387458 
L 266.548288 171.720431 
L 266.545019 171.726083 
L 266.287449 172.053404 
L 266.209884 172.188542 
L 266.054171 172.386377 
L 265.874749 172.701315 
L 265.86055 172.71935 
L 265.609856 173.052323 
L 265.539614 173.177457 
L 265.378888 173.385296 
L 265.204478 173.698251 
L 265.18899 173.718269 
L 264.943594 174.051242 
L 264.869343 174.186706 
L 264.71952 174.384215 
L 264.536544 174.717188 
L 264.534208 174.72153 
L 264.290389 175.05016 
L 264.199073 175.221085 
L 264.078712 175.383133 
L 263.88657 175.716106 
L 263.863938 175.759384 
L 263.654011 176.049079 
L 263.528803 176.290017 
L 263.462009 176.382052 
L 263.253036 176.715025 
L 263.193668 176.832062 
L 263.041208 177.047998 
L 262.868054 177.380971 
L 262.858533 177.400274 
L 262.643924 177.713944 
L 262.523397 177.959582 
L 262.463488 178.046917 
L 262.263633 178.37989 
L 262.188262 178.538484 
L 262.072814 178.712863 
L 261.896714 179.045836 
L 261.853127 179.141065 
L 261.70209 179.378809 
L 261.541708 179.711782 
L 261.517992 179.765969 
L 261.349284 180.044755 
L 261.199097 180.377728 
L 261.182857 180.416897 
L 261.015106 180.710701 
L 260.871574 181.043674 
L 260.847722 181.105169 
L 260.703334 181.376647 
L 260.564906 181.70962 
L 260.512587 181.856352 
L 260.421941 182.042593 
L 260.289762 182.375566 
L 260.183132 182.708539 
L 260.177451 182.729692 
L 260.065299 183.041512 
L 259.975683 183.374485 
L 259.911335 183.707458 
L 259.875706 184.040431 
L 259.888234 184.373404 
L 260.012509 184.706377 
L 260.177451 184.869688 
z
" clip-path="url(#p135b64fd68)" style="fill: none; stroke-dasharray: 2.25,3.7125; stroke-dashoffset: 0; stroke: #ff0000; stroke-width: 2.25"/>
    <path d="M 261.182857 183.609189 
L 261.517992 183.695488 
L 261.853127 183.651677 
L 262.188262 183.548539 
L 262.523397 183.395437 
L 262.558388 183.374485 
L 262.858533 183.228584 
L 263.156472 183.041512 
L 263.193668 183.022399 
L 263.528803 182.817579 
L 263.675787 182.708539 
L 263.863938 182.591014 
L 264.146789 182.375566 
L 264.199073 182.341768 
L 264.534208 182.092461 
L 264.593832 182.042593 
L 264.869343 181.841594 
L 265.024499 181.70962 
L 265.204478 181.575043 
L 265.434071 181.376647 
L 265.539614 181.295848 
L 265.827151 181.043674 
L 265.874749 181.006403 
L 266.207261 180.710701 
L 266.209884 180.708602 
L 266.545019 180.424012 
L 266.594704 180.377728 
L 266.880154 180.13201 
L 266.972908 180.044755 
L 267.215289 179.832435 
L 267.342364 179.711782 
L 267.550424 179.526411 
L 267.704525 179.378809 
L 267.88556 179.214843 
L 268.060546 179.045836 
L 268.220695 178.89845 
L 268.41134 178.712863 
L 268.55583 178.577804 
L 268.757624 178.37989 
L 268.890965 178.253351 
L 269.099959 178.046917 
L 269.2261 177.925432 
L 269.438772 177.713944 
L 269.561235 177.594292 
L 269.774383 177.380971 
L 269.89637 177.260098 
L 270.107014 177.047998 
L 270.231505 176.922939 
L 270.436802 176.715025 
L 270.566641 176.582833 
L 270.763809 176.382052 
L 270.901776 176.239729 
L 271.08802 176.049079 
L 271.236911 175.8935 
L 271.409347 175.716106 
L 271.572046 175.543944 
L 271.727627 175.383133 
L 271.907181 175.190774 
L 272.042612 175.05016 
L 272.242316 174.833608 
L 272.353967 174.717188 
L 272.577451 174.47195 
L 272.661251 174.384215 
L 272.912587 174.105174 
L 272.963902 174.051242 
L 273.247722 173.732498 
L 273.261211 173.718269 
L 273.569858 173.385296 
L 273.582857 173.370704 
L 273.883796 173.052323 
L 273.917992 173.013487 
L 274.19497 172.71935 
L 274.253127 172.652546 
L 274.502875 172.386377 
L 274.588262 172.28719 
L 274.806881 172.053404 
L 274.923397 171.916559 
L 275.10621 171.720431 
L 275.258533 171.539584 
L 275.399897 171.387458 
L 275.593668 171.154934 
L 275.68674 171.054485 
L 275.928803 170.76094 
L 275.965235 170.721512 
L 276.252014 170.388539 
L 276.263938 170.374055 
L 276.55681 170.055566 
L 276.599073 170.003685 
L 276.856835 169.722593 
L 276.934208 169.626619 
L 277.150962 169.38962 
L 277.269343 169.241266 
L 277.437769 169.056647 
L 277.604478 168.845605 
L 277.715452 168.723674 
L 277.939614 168.437057 
L 277.981709 168.390701 
L 278.259326 168.057728 
L 278.274749 168.03795 
L 278.557435 167.724755 
L 278.609884 167.656819 
L 278.848567 167.391782 
L 278.945019 167.265612 
L 279.130863 167.058809 
L 279.280154 166.861612 
L 279.401926 166.725836 
L 279.615289 166.441286 
L 279.658635 166.392863 
L 279.930881 166.05989 
L 279.950424 166.033721 
L 280.22312 165.726917 
L 280.28556 165.642503 
L 280.506073 165.393944 
L 280.620695 165.237507 
L 280.777038 165.060971 
L 280.95583 164.81466 
L 281.032452 164.727998 
L 281.282488 164.395025 
L 281.290965 164.383289 
L 281.572715 164.062052 
L 281.6261 163.987447 
L 281.852344 163.729079 
L 281.961235 163.575495 
L 282.118085 163.396106 
L 282.29637 163.142344 
L 282.365531 163.063133 
L 282.616109 162.73016 
L 282.631505 162.708116 
L 282.900556 162.397188 
L 282.966641 162.301705 
L 283.171867 162.064215 
L 283.301776 161.874826 
L 283.4257 161.731242 
L 283.636911 161.420585 
L 283.656149 161.398269 
L 283.930239 161.065296 
L 283.972046 161.003378 
L 284.2034 160.732323 
L 284.307181 160.577262 
L 284.458871 160.39935 
L 284.642316 160.122866 
L 284.690432 160.066377 
L 284.945634 159.733404 
L 284.977451 159.68507 
L 285.217255 159.400431 
L 285.312587 159.254357 
L 285.469905 159.067458 
L 285.647722 158.792663 
L 285.696652 158.734485 
L 285.948085 158.401512 
L 285.982857 158.347292 
L 286.214496 158.068539 
L 286.317992 157.905795 
L 286.459352 157.735566 
L 286.653127 157.428309 
L 286.674469 157.402593 
L 286.936466 157.06962 
L 286.988262 156.986657 
L 287.193025 156.736647 
L 287.323397 156.526105 
L 287.423624 156.403674 
L 287.643087 156.070701 
L 287.658533 156.045472 
L 287.906826 155.737728 
L 287.993668 155.59473 
L 288.146896 155.404755 
L 288.328803 155.102818 
L 288.35383 155.071782 
L 288.606122 154.738809 
L 288.663938 154.64161 
L 288.851059 154.405836 
L 288.999073 154.155052 
L 289.0643 154.072863 
L 289.293842 153.73989 
L 289.334208 153.670505 
L 289.539749 153.406917 
L 289.669343 153.182464 
L 289.753981 153.073944 
L 289.971167 152.740971 
L 290.004478 152.682333 
L 290.214314 152.407998 
L 290.339614 152.18581 
L 290.424392 152.075025 
L 290.637788 151.742052 
L 290.674749 151.6753 
L 290.874113 151.409079 
L 291.009884 151.162141 
L 291.074365 151.076106 
L 291.29182 150.743133 
L 291.345019 150.644347 
L 291.516354 150.41016 
L 291.680154 150.103968 
L 291.69977 150.077188 
L 291.929341 149.744215 
L 292.015289 149.579722 
L 292.135416 149.411242 
L 292.323056 149.078269 
L 292.350424 149.024438 
L 292.543403 148.745296 
L 292.68556 148.464099 
L 292.721435 148.412323 
L 292.931852 148.07935 
L 293.020695 147.898021 
L 293.12216 147.746377 
L 293.305428 147.413404 
L 293.35583 147.30666 
L 293.50116 147.080431 
L 293.666336 146.747458 
L 293.690965 146.692941 
L 293.861443 146.414485 
L 294.014695 146.081512 
L 294.0261 146.054876 
L 294.203119 145.748539 
L 294.348396 145.415566 
L 294.361235 145.383522 
L 294.523244 145.082593 
L 294.662354 144.74962 
L 294.69637 144.657261 
L 294.814877 144.416647 
L 294.946836 144.083674 
L 295.031505 143.826887 
L 295.064926 143.750701 
L 295.184103 143.417728 
L 295.275852 143.084755 
L 295.345363 142.751782 
L 295.366641 142.574319 
L 295.390498 142.418809 
L 295.385927 142.085836 
L 295.366641 142.003081 
L 295.267533 141.752863 
L 295.031505 141.555877 
L 294.69637 141.513869 
L 294.361235 141.574532 
L 294.0261 141.694876 
L 293.915551 141.752863 
L 293.690965 141.847266 
L 293.35583 142.031013 
L 293.274159 142.085836 
L 293.020695 142.226236 
L 292.743822 142.418809 
L 292.68556 142.452516 
L 292.350424 142.679677 
L 292.259033 142.751782 
L 292.015289 142.916268 
L 291.80623 143.084755 
L 291.680154 143.172347 
L 291.381656 143.417728 
L 291.345019 143.443895 
L 291.009884 143.7131 
L 290.967192 143.750701 
L 290.674749 143.980611 
L 290.559274 144.083674 
L 290.339614 144.260031 
L 290.166318 144.416647 
L 290.004478 144.549236 
L 289.785352 144.74962 
L 289.669343 144.846534 
L 289.414059 145.082593 
L 289.334208 145.150569 
L 289.050623 145.415566 
L 288.999073 145.460256 
L 288.693615 145.748539 
L 288.663938 145.774725 
L 288.341911 146.081512 
L 288.328803 146.093277 
L 287.994621 146.414485 
L 287.993668 146.415354 
L 287.658533 146.733943 
L 287.644844 146.747458 
L 287.323397 147.056772 
L 287.29959 147.080431 
L 286.988262 147.384283 
L 286.959141 147.413404 
L 286.653127 147.716232 
L 286.623159 147.746377 
L 286.317992 148.052482 
L 286.291431 148.07935 
L 285.982857 148.392998 
L 285.963854 148.412323 
L 285.647722 148.737847 
L 285.640434 148.745296 
L 285.316732 149.078269 
L 285.312587 149.082523 
L 284.991089 149.411242 
L 284.977451 149.425425 
L 284.667297 149.744215 
L 284.642316 149.770531 
L 284.345451 150.077188 
L 284.307181 150.118016 
L 284.025702 150.41016 
L 283.972046 150.468117 
L 283.70826 150.743133 
L 283.636911 150.821142 
L 283.393404 151.076106 
L 283.301776 151.177486 
L 283.081488 151.409079 
L 282.966641 151.537644 
L 282.772962 151.742052 
L 282.631505 151.902234 
L 282.468386 152.075025 
L 282.29637 152.272023 
L 282.168454 152.407998 
L 281.961235 152.647963 
L 281.87403 152.740971 
L 281.6261 153.031236 
L 281.586183 153.073944 
L 281.297175 153.406917 
L 281.290965 153.414194 
L 280.98776 153.73989 
L 280.95583 153.777714 
L 280.681945 154.072863 
L 280.620695 154.14621 
L 280.380507 154.405836 
L 280.28556 154.520753 
L 280.084413 154.738809 
L 279.950424 154.902691 
L 279.794873 155.071782 
L 279.615289 155.293717 
L 279.513408 155.404755 
L 279.280154 155.695973 
L 279.241937 155.737728 
L 278.959473 156.070701 
L 278.945019 156.088789 
L 278.658394 156.403674 
L 278.609884 156.465006 
L 278.363235 156.736647 
L 278.274749 156.849657 
L 278.075491 157.06962 
L 277.939614 157.244893 
L 277.797074 157.402593 
L 277.604478 157.65348 
L 277.53044 157.735566 
L 277.272846 158.068539 
L 277.269343 158.073117 
L 276.975081 158.401512 
L 276.934208 158.455468 
L 276.684714 158.734485 
L 276.599073 158.848641 
L 276.403793 159.067458 
L 276.263938 159.255673 
L 276.13499 159.400431 
L 275.928803 159.68055 
L 275.881804 159.733404 
L 275.613672 160.066377 
L 275.593668 160.093678 
L 275.323911 160.39935 
L 275.258533 160.48942 
L 275.044537 160.732323 
L 274.923397 160.900777 
L 274.77869 161.065296 
L 274.588262 161.332551 
L 274.530545 161.398269 
L 274.272048 161.731242 
L 274.253127 161.757942 
L 273.986425 162.064215 
L 273.917992 162.161674 
L 273.713205 162.397188 
L 273.582857 162.584515 
L 273.456384 162.73016 
L 273.247722 163.032735 
L 273.221358 163.063133 
L 272.94936 163.396106 
L 272.912587 163.449774 
L 272.672641 163.729079 
L 272.577451 163.869245 
L 272.412012 164.062052 
L 272.242316 164.314138 
L 272.172986 164.395025 
L 271.927411 164.727998 
L 271.907181 164.758273 
L 271.650434 165.060971 
L 271.572046 165.179311 
L 271.390179 165.393944 
L 271.236911 165.627337 
L 271.15261 165.726917 
L 270.917946 166.05989 
L 270.901776 166.084722 
L 270.643901 166.392863 
L 270.566641 166.512527 
L 270.388275 166.725836 
L 270.231505 166.970708 
L 270.15789 167.058809 
L 269.920761 167.391782 
L 269.89637 167.430244 
L 269.653374 167.724755 
L 269.561235 167.87127 
L 269.407484 168.057728 
L 269.2261 168.348548 
L 269.191359 168.390701 
L 268.938015 168.723674 
L 268.890965 168.799925 
L 268.682295 169.056647 
L 268.55583 169.263272 
L 268.45317 169.38962 
L 268.236333 169.722593 
L 268.220695 169.748455 
L 267.97494 170.055566 
L 267.88556 170.204558 
L 267.738364 170.388539 
L 267.550424 170.704298 
L 267.536654 170.721512 
L 267.281201 171.054485 
L 267.215289 171.166733 
L 267.041644 171.387458 
L 266.880154 171.664597 
L 266.836225 171.720431 
L 266.599006 172.053404 
L 266.545019 172.147478 
L 266.3605 172.386377 
L 266.209884 172.65079 
L 266.156912 172.71935 
L 265.927959 173.052323 
L 265.874749 173.147358 
L 265.694637 173.385296 
L 265.539614 173.664163 
L 265.498631 173.718269 
L 265.26926 174.051242 
L 265.204478 174.170065 
L 265.045924 174.384215 
L 264.869343 174.710319 
L 264.864253 174.717188 
L 264.626001 175.05016 
L 264.534208 175.223461 
L 264.41884 175.383133 
L 264.227442 175.716106 
L 264.199073 175.77105 
L 264.003929 176.049079 
L 263.863938 176.321822 
L 263.821581 176.382052 
L 263.609933 176.715025 
L 263.528803 176.877766 
L 263.412939 177.047998 
L 263.231159 177.380971 
L 263.193668 177.458796 
L 263.026473 177.713944 
L 262.864529 178.046917 
L 262.858533 178.059881 
L 262.657975 178.37989 
L 262.523397 178.671848 
L 262.497573 178.712863 
L 262.306057 179.045836 
L 262.188262 179.313831 
L 262.149405 179.378809 
L 261.971993 179.711782 
L 261.853127 179.998375 
L 261.827066 180.044755 
L 261.660215 180.377728 
L 261.530201 180.710701 
L 261.517992 180.745714 
L 261.37971 181.043674 
L 261.257492 181.376647 
L 261.182857 181.620766 
L 261.146899 181.70962 
L 261.041197 182.042593 
L 260.963942 182.375566 
L 260.914909 182.708539 
L 260.907194 183.041512 
L 260.9871 183.374485 
L 261.182857 183.609189 
z
" clip-path="url(#p135b64fd68)" style="fill: none; stroke-dasharray: 2.25,3.7125; stroke-dashoffset: 0; stroke: #ff0000; stroke-width: 2.25"/>
    <path d="M 263.863938 180.053205 
L 264.199073 180.215621 
L 264.534208 180.185335 
L 264.869343 180.073466 
L 264.923259 180.044755 
L 265.204478 179.92127 
L 265.539614 179.729923 
L 265.565689 179.711782 
L 265.874749 179.528937 
L 266.082597 179.378809 
L 266.209884 179.299987 
L 266.545019 179.050243 
L 266.550393 179.045836 
L 266.880154 178.80721 
L 266.99273 178.712863 
L 267.215289 178.546983 
L 267.410711 178.37989 
L 267.550424 178.272807 
L 267.809746 178.046917 
L 267.88556 177.987252 
L 268.19394 177.713944 
L 268.220695 177.692352 
L 268.55583 177.394762 
L 268.57055 177.380971 
L 268.890965 177.100057 
L 268.945894 177.047998 
L 269.2261 176.797539 
L 269.312221 176.715025 
L 269.561235 176.488259 
L 269.670955 176.382052 
L 269.89637 176.173051 
L 270.023214 176.049079 
L 270.231505 175.852569 
L 270.369866 175.716106 
L 270.566641 175.527313 
L 270.711579 175.383133 
L 270.901776 175.197653 
L 271.048851 175.05016 
L 271.236911 174.863843 
L 271.382038 174.717188 
L 271.572046 174.52603 
L 271.711375 174.384215 
L 271.907181 174.184264 
L 272.036984 174.051242 
L 272.242316 173.838498 
L 272.358882 173.718269 
L 272.577451 173.488587 
L 272.676987 173.385296 
L 272.912587 173.134283 
L 272.991113 173.052323 
L 273.247722 172.775227 
L 273.300966 172.71935 
L 273.582857 172.410931 
L 273.606134 172.386377 
L 273.911861 172.053404 
L 273.917992 172.046701 
L 274.226374 171.720431 
L 274.253127 171.690791 
L 274.538311 171.387458 
L 274.588262 171.331394 
L 274.8473 171.054485 
L 274.923397 170.967984 
L 275.152873 170.721512 
L 275.258533 170.599906 
L 275.454444 170.388539 
L 275.593668 170.226346 
L 275.751292 170.055566 
L 275.928803 169.846293 
L 276.042518 169.722593 
L 276.263938 169.458494 
L 276.327014 169.38962 
L 276.599073 169.06139 
L 276.603401 169.056647 
L 276.904452 168.723674 
L 276.934208 168.687679 
L 277.203557 168.390701 
L 277.269343 168.3102 
L 277.497501 168.057728 
L 277.604478 167.925338 
L 277.785128 167.724755 
L 277.939614 167.531445 
L 278.064994 167.391782 
L 278.274749 167.126445 
L 278.335285 167.058809 
L 278.602589 166.725836 
L 278.609884 166.716569 
L 278.89738 166.392863 
L 278.945019 166.331678 
L 279.185675 166.05989 
L 279.280154 165.937242 
L 279.465859 165.726917 
L 279.615289 165.530885 
L 279.735879 165.393944 
L 279.950424 165.109569 
L 279.993112 165.060971 
L 280.26299 164.727998 
L 280.28556 164.697906 
L 280.549161 164.395025 
L 280.620695 164.298663 
L 280.826113 164.062052 
L 280.95583 163.88553 
L 281.091343 163.729079 
L 281.290965 163.454708 
L 281.341615 163.396106 
L 281.602811 163.063133 
L 281.6261 163.030891 
L 281.883281 162.73016 
L 281.961235 162.62116 
L 282.152375 162.397188 
L 282.29637 162.193868 
L 282.406804 162.064215 
L 282.631505 161.743877 
L 282.642249 161.731242 
L 282.917426 161.398269 
L 282.966641 161.327496 
L 283.186908 161.065296 
L 283.301776 160.898531 
L 283.441167 160.732323 
L 283.636911 160.445463 
L 283.675524 160.39935 
L 283.933352 160.066377 
L 283.972046 160.009096 
L 284.199808 159.733404 
L 284.307181 159.572973 
L 284.449523 159.400431 
L 284.642316 159.10973 
L 284.677145 159.067458 
L 284.932232 158.734485 
L 284.977451 158.665501 
L 285.191705 158.401512 
L 285.312587 158.215441 
L 285.431678 158.068539 
L 285.646784 157.735566 
L 285.647722 157.734103 
L 285.911979 157.402593 
L 285.982857 157.291043 
L 286.159198 157.06962 
L 286.317992 156.817532 
L 286.382357 156.736647 
L 286.61612 156.403674 
L 286.653127 156.344017 
L 286.86657 156.070701 
L 286.988262 155.872869 
L 287.093743 155.737728 
L 287.307201 155.404755 
L 287.323397 155.377957 
L 287.557369 155.071782 
L 287.658533 154.903034 
L 287.784003 154.738809 
L 287.986301 154.405836 
L 287.993668 154.393296 
L 288.2327 154.072863 
L 288.328803 153.907998 
L 288.45423 153.73989 
L 288.652727 153.406917 
L 288.663938 153.387229 
L 288.891427 153.073944 
L 288.999073 152.883521 
L 289.102656 152.740971 
L 289.303821 152.407998 
L 289.334208 152.352767 
L 289.52988 152.075025 
L 289.669343 151.819834 
L 289.724214 151.742052 
L 289.934287 151.409079 
L 290.004478 151.276528 
L 290.140936 151.076106 
L 290.322274 150.743133 
L 290.339614 150.709126 
L 290.534795 150.41016 
L 290.674749 150.134294 
L 290.712148 150.077188 
L 290.910182 149.744215 
L 291.009884 149.538698 
L 291.089359 149.411242 
L 291.268406 149.078269 
L 291.345019 148.911374 
L 291.442558 148.745296 
L 291.607736 148.412323 
L 291.680154 148.243148 
L 291.769414 148.07935 
L 291.922586 147.746377 
L 292.015289 147.509145 
L 292.062656 147.413404 
L 292.201435 147.080431 
L 292.315587 146.747458 
L 292.350424 146.622738 
L 292.422421 146.414485 
L 292.503372 146.081512 
L 292.547762 145.748539 
L 292.531518 145.415566 
L 292.362832 145.082593 
L 292.350424 145.07157 
L 292.015289 144.986845 
L 291.680154 145.044234 
L 291.590096 145.082593 
L 291.345019 145.167426 
L 291.009884 145.330381 
L 290.874878 145.415566 
L 290.674749 145.521546 
L 290.339614 145.743156 
L 290.33252 145.748539 
L 290.004478 145.96377 
L 289.853709 146.081512 
L 289.669343 146.206991 
L 289.410532 146.414485 
L 289.334208 146.468241 
L 288.999073 146.742336 
L 288.993223 146.747458 
L 288.663938 147.007918 
L 288.582461 147.080431 
L 288.328803 147.28599 
L 288.18781 147.413404 
L 287.993668 147.574412 
L 287.806075 147.746377 
L 287.658533 147.871473 
L 287.434778 148.07935 
L 287.323397 148.175806 
L 287.071986 148.412323 
L 286.988262 148.486316 
L 286.716191 148.745296 
L 286.653127 148.80213 
L 286.366214 149.078269 
L 286.317992 149.122553 
L 286.021135 149.411242 
L 285.982857 149.447037 
L 285.680239 149.744215 
L 285.647722 149.77516 
L 285.342979 150.077188 
L 285.312587 150.106605 
L 285.008941 150.41016 
L 284.977451 150.441144 
L 284.677827 150.743133 
L 284.642316 150.778633 
L 284.349436 151.076106 
L 284.307181 151.119004 
L 284.023652 151.409079 
L 283.972046 151.46226 
L 283.700437 151.742052 
L 283.636911 151.808478 
L 283.37983 152.075025 
L 283.301776 152.157807 
L 283.061942 152.407998 
L 282.966641 152.510477 
L 282.746964 152.740971 
L 282.631505 152.866809 
L 282.435167 153.073944 
L 282.29637 153.227221 
L 282.12692 153.406917 
L 281.961235 153.592252 
L 281.822694 153.73989 
L 281.6261 153.962579 
L 281.523089 154.072863 
L 281.290965 154.33905 
L 281.228855 154.405836 
L 280.95583 154.722718 
L 280.940927 154.738809 
L 280.639829 155.071782 
L 280.620695 155.09402 
L 280.33433 155.404755 
L 280.28556 155.46213 
L 280.032645 155.737728 
L 279.950424 155.835611 
L 279.735541 156.070701 
L 279.615289 156.215535 
L 279.443967 156.403674 
L 279.280154 156.603241 
L 279.159102 156.736647 
L 278.945019 157.000394 
L 278.882414 157.06962 
L 278.612574 157.402593 
L 278.609884 157.405919 
L 278.313809 157.735566 
L 278.274749 157.784399 
L 278.020406 158.068539 
L 277.939614 158.170666 
L 277.73363 158.401512 
L 277.604478 158.566548 
L 277.455075 158.734485 
L 277.269343 158.97436 
L 277.186752 159.067458 
L 276.934208 159.397052 
L 276.931219 159.400431 
L 276.639772 159.733404 
L 276.599073 159.786798 
L 276.353819 160.066377 
L 276.263938 160.185537 
L 276.076866 160.39935 
L 275.928803 160.597673 
L 275.811281 160.732323 
L 275.593668 161.026766 
L 275.560116 161.065296 
L 275.288526 161.398269 
L 275.258533 161.439121 
L 275.006675 161.731242 
L 274.923397 161.845816 
L 274.735521 162.064215 
L 274.588262 162.268834 
L 274.478077 162.397188 
L 274.253127 162.712822 
L 274.238272 162.73016 
L 273.962699 163.063133 
L 273.917992 163.126367 
L 273.689488 163.396106 
L 273.582857 163.548394 
L 273.430076 163.729079 
L 273.247722 163.992008 
L 273.188596 164.062052 
L 272.937963 164.395025 
L 272.912587 164.431958 
L 272.665859 164.727998 
L 272.577451 164.857889 
L 272.408467 165.060971 
L 272.242316 165.307365 
L 272.170379 165.393944 
L 271.929586 165.726917 
L 271.907181 165.760505 
L 271.66195 166.05989 
L 271.572046 166.195912 
L 271.410932 166.392863 
L 271.236911 166.658538 
L 271.181923 166.725836 
L 270.937844 167.058809 
L 270.901776 167.114567 
L 270.67885 167.391782 
L 270.566641 167.56679 
L 270.439738 167.724755 
L 270.231505 168.05237 
L 270.227205 168.057728 
L 269.96626 168.390701 
L 269.89637 168.502246 
L 269.721766 168.723674 
L 269.561235 168.982071 
L 269.502467 169.056647 
L 269.268729 169.38962 
L 269.2261 169.459374 
L 269.022768 169.722593 
L 268.890965 169.940049 
L 268.801761 170.055566 
L 268.5842 170.388539 
L 268.55583 170.436238 
L 268.340429 170.721512 
L 268.220695 170.924422 
L 268.122488 171.054485 
L 267.91254 171.387458 
L 267.88556 171.434186 
L 267.674846 171.720431 
L 267.550424 171.937541 
L 267.465095 172.053404 
L 267.255538 172.386377 
L 267.215289 172.458394 
L 267.028575 172.71935 
L 266.880154 172.986788 
L 266.833216 173.052323 
L 266.617358 173.385296 
L 266.545019 173.519494 
L 266.407273 173.718269 
L 266.223696 174.051242 
L 266.209884 174.07777 
L 266.005612 174.384215 
L 265.874749 174.636966 
L 265.821135 174.717188 
L 265.622484 175.05016 
L 265.539614 175.216901 
L 265.43342 175.383133 
L 265.255281 175.716106 
L 265.204478 175.823578 
L 265.068078 176.049079 
L 264.904152 176.382052 
L 264.869343 176.460456 
L 264.725419 176.715025 
L 264.572362 177.047998 
L 264.534208 177.141154 
L 264.409789 177.380971 
L 264.2676 177.713944 
L 264.199073 177.900271 
L 264.131155 178.046917 
L 264.004907 178.37989 
L 263.901833 178.712863 
L 263.863938 178.871601 
L 263.812809 179.045836 
L 263.756277 179.378809 
L 263.752987 179.711782 
L 263.857667 180.044755 
L 263.863938 180.053205 
z
" clip-path="url(#p135b64fd68)" style="fill: none; stroke-dasharray: 2.25,3.7125; stroke-dashoffset: 0; stroke: #ff0000; stroke-width: 2.25"/>
   </g>
   <g id="patch_3">
    <path d="M 59.766641 359.517188 
L 59.766641 26.877188 
" style="fill: none; stroke: #000000; stroke-width: 1.875; stroke-linejoin: miter; stroke-linecap: square"/>
   </g>
   <g id="patch_4">
    <path d="M 394.566641 359.517188 
L 394.566641 26.877188 
" style="fill: none; stroke: #000000; stroke-width: 1.875; stroke-linejoin: miter; stroke-linecap: square"/>
   </g>
   <g id="patch_5">
    <path d="M 59.766641 359.517188 
L 394.566641 359.517188 
" style="fill: none; stroke: #000000; stroke-width: 1.875; stroke-linejoin: miter; stroke-linecap: square"/>
   </g>
   <g id="patch_6">
    <path d="M 59.766641 26.877187 
L 394.566641 26.877187 
" style="fill: none; stroke: #000000; stroke-width: 1.875; stroke-linejoin: miter; stroke-linecap: square"/>
   </g>
   <g id="text_15">
    <!-- Iteration 5 -->
    <g transform="translate(180.404609 20.877187) scale(0.18 -0.18)">
     <defs>
      <path id="DejaVuSans-49" d="M 628 4666 
L 1259 4666 
L 1259 0 
L 628 0 
L 628 4666 
z
" transform="scale(0.015625)"/>
      <path id="DejaVuSans-74" d="M 1172 4494 
L 1172 3500 
L 2356 3500 
L 2356 3053 
L 1172 3053 
L 1172 1153 
Q 1172 725 1289 603 
Q 1406 481 1766 481 
L 2356 481 
L 2356 0 
L 1766 0 
Q 1100 0 847 248 
Q 594 497 594 1153 
L 594 3053 
L 172 3053 
L 172 3500 
L 594 3500 
L 594 4494 
L 1172 4494 
z
" transform="scale(0.015625)"/>
      <path id="DejaVuSans-65" d="M 3597 1894 
L 3597 1613 
L 953 1613 
Q 991 1019 1311 708 
Q 1631 397 2203 397 
Q 2534 397 2845 478 
Q 3156 559 3463 722 
L 3463 178 
Q 3153 47 2828 -22 
Q 2503 -91 2169 -91 
Q 1331 -91 842 396 
Q 353 884 353 1716 
Q 353 2575 817 3079 
Q 1281 3584 2069 3584 
Q 2775 3584 3186 3129 
Q 3597 2675 3597 1894 
z
M 3022 2063 
Q 3016 2534 2758 2815 
Q 2500 3097 2075 3097 
Q 1594 3097 1305 2825 
Q 1016 2553 972 2059 
L 3022 2063 
z
" transform="scale(0.015625)"/>
      <path id="DejaVuSans-72" d="M 2631 2963 
Q 2534 3019 2420 3045 
Q 2306 3072 2169 3072 
Q 1681 3072 1420 2755 
Q 1159 2438 1159 1844 
L 1159 0 
L 581 0 
L 581 3500 
L 1159 3500 
L 1159 2956 
Q 1341 3275 1631 3429 
Q 1922 3584 2338 3584 
Q 2397 3584 2469 3576 
Q 2541 3569 2628 3553 
L 2631 2963 
z
" transform="scale(0.015625)"/>
      <path id="DejaVuSans-61" d="M 2194 1759 
Q 1497 1759 1228 1600 
Q 959 1441 959 1056 
Q 959 750 1161 570 
Q 1363 391 1709 391 
Q 2188 391 2477 730 
Q 2766 1069 2766 1631 
L 2766 1759 
L 2194 1759 
z
M 3341 1997 
L 3341 0 
L 2766 0 
L 2766 531 
Q 2569 213 2275 61 
Q 1981 -91 1556 -91 
Q 1019 -91 701 211 
Q 384 513 384 1019 
Q 384 1609 779 1909 
Q 1175 2209 1959 2209 
L 2766 2209 
L 2766 2266 
Q 2766 2663 2505 2880 
Q 2244 3097 1772 3097 
Q 1472 3097 1187 3025 
Q 903 2953 641 2809 
L 641 3341 
Q 956 3463 1253 3523 
Q 1550 3584 1831 3584 
Q 2591 3584 2966 3190 
Q 3341 2797 3341 1997 
z
" transform="scale(0.015625)"/>
      <path id="DejaVuSans-69" d="M 603 3500 
L 1178 3500 
L 1178 0 
L 603 0 
L 603 3500 
z
M 603 4863 
L 1178 4863 
L 1178 4134 
L 603 4134 
L 603 4863 
z
" transform="scale(0.015625)"/>
      <path id="DejaVuSans-6f" d="M 1959 3097 
Q 1497 3097 1228 2736 
Q 959 2375 959 1747 
Q 959 1119 1226 758 
Q 1494 397 1959 397 
Q 2419 397 2687 759 
Q 2956 1122 2956 1747 
Q 2956 2369 2687 2733 
Q 2419 3097 1959 3097 
z
M 1959 3584 
Q 2709 3584 3137 3096 
Q 3566 2609 3566 1747 
Q 3566 888 3137 398 
Q 2709 -91 1959 -91 
Q 1206 -91 779 398 
Q 353 888 353 1747 
Q 353 2609 779 3096 
Q 1206 3584 1959 3584 
z
" transform="scale(0.015625)"/>
      <path id="DejaVuSans-6e" d="M 3513 2113 
L 3513 0 
L 2938 0 
L 2938 2094 
Q 2938 2591 2744 2837 
Q 2550 3084 2163 3084 
Q 1697 3084 1428 2787 
Q 1159 2491 1159 1978 
L 1159 0 
L 581 0 
L 581 3500 
L 1159 3500 
L 1159 2956 
Q 1366 3272 1645 3428 
Q 1925 3584 2291 3584 
Q 2894 3584 3203 3211 
Q 3513 2838 3513 2113 
z
" transform="scale(0.015625)"/>
      <path id="DejaVuSans-20" transform="scale(0.015625)"/>
     </defs>
     <use xlink:href="#DejaVuSans-49"/>
     <use xlink:href="#DejaVuSans-74" x="29.492188"/>
     <use xlink:href="#DejaVuSans-65" x="68.701172"/>
     <use xlink:href="#DejaVuSans-72" x="130.224609"/>
     <use xlink:href="#DejaVuSans-61" x="171.337891"/>
     <use xlink:href="#DejaVuSans-74" x="232.617188"/>
     <use xlink:href="#DejaVuSans-69" x="271.826172"/>
     <use xlink:href="#DejaVuSans-6f" x="299.609375"/>
     <use xlink:href="#DejaVuSans-6e" x="360.791016"/>
     <use xlink:href="#DejaVuSans-20" x="424.169922"/>
     <use xlink:href="#DejaVuSans-35" x="455.957031"/>
    </g>
   </g>
   <g id="text_16">
    <g clip-path="url(#p135b64fd68)">
     <!-- 1 -->
     <g style="fill: #fde725" transform="translate(288.155885 145.936074) rotate(-55.675721) scale(0.1 -0.1)">
      <use xlink:href="#DejaVuSans-31"/>
     </g>
    </g>
   </g>
   <g id="text_17">
    <g clip-path="url(#p135b64fd68)">
     <!-- 4 -->
     <g style="fill: #b5de2b" transform="translate(318.224892 85.537014) rotate(-64.855421) scale(0.1 -0.1)">
      <defs>
       <path id="DejaVuSans-34" d="M 2419 4116 
L 825 1625 
L 2419 1625 
L 2419 4116 
z
M 2253 4666 
L 3047 4666 
L 3047 1625 
L 3713 1625 
L 3713 1100 
L 3047 1100 
L 3047 0 
L 2419 0 
L 2419 1100 
L 313 1100 
L 313 1709 
L 2253 4666 
z
" transform="scale(0.015625)"/>
      </defs>
      <use xlink:href="#DejaVuSans-34"/>
     </g>
    </g>
   </g>
   <g id="text_18">
    <g clip-path="url(#p135b64fd68)">
     <!-- 13 -->
     <g style="fill: #6ece58" transform="translate(113.096851 23.999967) rotate(-291.889393) scale(0.1 -0.1)">
      <defs>
       <path id="DejaVuSans-33" d="M 2597 2516 
Q 3050 2419 3304 2112 
Q 3559 1806 3559 1356 
Q 3559 666 3084 287 
Q 2609 -91 1734 -91 
Q 1441 -91 1130 -33 
Q 819 25 488 141 
L 488 750 
Q 750 597 1062 519 
Q 1375 441 1716 441 
Q 2309 441 2620 675 
Q 2931 909 2931 1356 
Q 2931 1769 2642 2001 
Q 2353 2234 1838 2234 
L 1294 2234 
L 1294 2753 
L 1863 2753 
Q 2328 2753 2575 2939 
Q 2822 3125 2822 3475 
Q 2822 3834 2567 4026 
Q 2313 4219 1838 4219 
Q 1578 4219 1281 4162 
Q 984 4106 628 3988 
L 628 4550 
Q 988 4650 1302 4700 
Q 1616 4750 1894 4750 
Q 2613 4750 3031 4423 
Q 3450 4097 3450 3541 
Q 3450 3153 3228 2886 
Q 3006 2619 2597 2516 
z
" transform="scale(0.015625)"/>
      </defs>
      <use xlink:href="#DejaVuSans-31"/>
      <use xlink:href="#DejaVuSans-33" x="63.623047"/>
     </g>
    </g>
   </g>
   <g id="text_19">
    <g clip-path="url(#p135b64fd68)">
     <!-- 13 -->
     <g style="fill: #6ece58" transform="translate(346.796573 61.299219) rotate(-70.600511) scale(0.1 -0.1)">
      <use xlink:href="#DejaVuSans-31"/>
      <use xlink:href="#DejaVuSans-33" x="63.623047"/>
     </g>
    </g>
   </g>
   <g id="text_20">
    <g clip-path="url(#p135b64fd68)">
     <!-- 46 -->
     <g style="fill: #35b779" transform="translate(318.674001 43.751769) rotate(-65.297236) scale(0.1 -0.1)">
      <defs>
       <path id="DejaVuSans-36" d="M 2113 2584 
Q 1688 2584 1439 2293 
Q 1191 2003 1191 1497 
Q 1191 994 1439 701 
Q 1688 409 2113 409 
Q 2538 409 2786 701 
Q 3034 994 3034 1497 
Q 3034 2003 2786 2293 
Q 2538 2584 2113 2584 
z
M 3366 4563 
L 3366 3988 
Q 3128 4100 2886 4159 
Q 2644 4219 2406 4219 
Q 1781 4219 1451 3797 
Q 1122 3375 1075 2522 
Q 1259 2794 1537 2939 
Q 1816 3084 2150 3084 
Q 2853 3084 3261 2657 
Q 3669 2231 3669 1497 
Q 3669 778 3244 343 
Q 2819 -91 2113 -91 
Q 1303 -91 875 529 
Q 447 1150 447 2328 
Q 447 3434 972 4092 
Q 1497 4750 2381 4750 
Q 2619 4750 2861 4703 
Q 3103 4656 3366 4563 
z
" transform="scale(0.015625)"/>
      </defs>
      <use xlink:href="#DejaVuSans-34"/>
      <use xlink:href="#DejaVuSans-36" x="63.623047"/>
     </g>
    </g>
   </g>
   <g id="text_21">
    <g clip-path="url(#p135b64fd68)">
     <!-- 46 -->
     <g style="fill: #35b779" transform="translate(97.700294 55.770923) rotate(-288.420927) scale(0.1 -0.1)">
      <use xlink:href="#DejaVuSans-34"/>
      <use xlink:href="#DejaVuSans-36" x="63.623047"/>
     </g>
    </g>
   </g>
   <g id="text_22">
    <g clip-path="url(#p135b64fd68)">
     <!-- 167 -->
     <g style="fill: #1f9e89" transform="translate(290.184875 43.849168) rotate(-57.288295) scale(0.1 -0.1)">
      <defs>
       <path id="DejaVuSans-37" d="M 525 4666 
L 3525 4666 
L 3525 4397 
L 1831 0 
L 1172 0 
L 2766 4134 
L 525 4134 
L 525 4666 
z
" transform="scale(0.015625)"/>
      </defs>
      <use xlink:href="#DejaVuSans-31"/>
      <use xlink:href="#DejaVuSans-36" x="63.623047"/>
      <use xlink:href="#DejaVuSans-37" x="127.246094"/>
     </g>
    </g>
   </g>
   <g id="text_23">
    <g clip-path="url(#p135b64fd68)">
     <!-- 167 -->
     <g style="fill: #1f9e89" transform="translate(374.209329 53.793422) rotate(-74.03457) scale(0.1 -0.1)">
      <use xlink:href="#DejaVuSans-31"/>
      <use xlink:href="#DejaVuSans-36" x="63.623047"/>
      <use xlink:href="#DejaVuSans-37" x="127.246094"/>
     </g>
    </g>
   </g>
   <g id="text_24">
    <g clip-path="url(#p135b64fd68)">
     <!-- 599 -->
     <g style="fill: #26828e" transform="translate(57.564768 65.261256) rotate(-284.315487) scale(0.1 -0.1)">
      <defs>
       <path id="DejaVuSans-39" d="M 703 97 
L 703 672 
Q 941 559 1184 500 
Q 1428 441 1663 441 
Q 2288 441 2617 861 
Q 2947 1281 2994 2138 
Q 2813 1869 2534 1725 
Q 2256 1581 1919 1581 
Q 1219 1581 811 2004 
Q 403 2428 403 3163 
Q 403 3881 828 4315 
Q 1253 4750 1959 4750 
Q 2769 4750 3195 4129 
Q 3622 3509 3622 2328 
Q 3622 1225 3098 567 
Q 2575 -91 1691 -91 
Q 1453 -91 1209 -44 
Q 966 3 703 97 
z
M 1959 2075 
Q 2384 2075 2632 2365 
Q 2881 2656 2881 3163 
Q 2881 3666 2632 3958 
Q 2384 4250 1959 4250 
Q 1534 4250 1286 3958 
Q 1038 3666 1038 3163 
Q 1038 2656 1286 2365 
Q 1534 2075 1959 2075 
z
" transform="scale(0.015625)"/>
      </defs>
      <use xlink:href="#DejaVuSans-35"/>
      <use xlink:href="#DejaVuSans-39" x="63.623047"/>
      <use xlink:href="#DejaVuSans-39" x="127.246094"/>
     </g>
    </g>
   </g>
   <g id="text_25">
    <g clip-path="url(#p135b64fd68)">
     <!-- 599 -->
     <g style="fill: #26828e" transform="translate(394.010444 77.429179) rotate(-75.756627) scale(0.1 -0.1)">
      <use xlink:href="#DejaVuSans-35"/>
      <use xlink:href="#DejaVuSans-39" x="63.623047"/>
      <use xlink:href="#DejaVuSans-39" x="127.246094"/>
     </g>
    </g>
   </g>
   <g id="text_26">
    <g clip-path="url(#p135b64fd68)">
     <!-- 2154 -->
     <g style="fill: #31688e" transform="translate(56.276387 243.317291) rotate(-284.327359) scale(0.1 -0.1)">
      <use xlink:href="#DejaVuSans-32"/>
      <use xlink:href="#DejaVuSans-31" x="63.623047"/>
      <use xlink:href="#DejaVuSans-35" x="127.246094"/>
      <use xlink:href="#DejaVuSans-34" x="190.869141"/>
     </g>
    </g>
   </g>
   <g id="text_27">
    <g clip-path="url(#p135b64fd68)">
     <!-- 2154 -->
     <g style="fill: #31688e" transform="translate(392.962031 263.980352) rotate(-75.708056) scale(0.1 -0.1)">
      <use xlink:href="#DejaVuSans-32"/>
      <use xlink:href="#DejaVuSans-31" x="63.623047"/>
      <use xlink:href="#DejaVuSans-35" x="127.246094"/>
      <use xlink:href="#DejaVuSans-34" x="190.869141"/>
     </g>
    </g>
   </g>
  </g>
 </g>
 <defs>
  <clipPath id="p135b64fd68">
   <rect x="59.766641" y="26.877187" width="334.8" height="332.64"/>
  </clipPath>
 </defs>
</svg>
