<?xml version="1.0" encoding="utf-8" standalone="no"?>
<!DOCTYPE svg PUBLIC "-//W3C//DTD SVG 1.1//EN"
  "http://www.w3.org/Graphics/SVG/1.1/DTD/svg11.dtd">
<svg xmlns:xlink="http://www.w3.org/1999/xlink" width="407.015703pt" height="395.186094pt" viewBox="0 0 407.015703 395.186094" xmlns="http://www.w3.org/2000/svg" version="1.1">
 <metadata>
  <rdf:RDF xmlns:dc="http://purl.org/dc/elements/1.1/" xmlns:cc="http://creativecommons.org/ns#" xmlns:rdf="http://www.w3.org/1999/02/22-rdf-syntax-ns#">
   <cc:Work>
    <dc:type rdf:resource="http://purl.org/dc/dcmitype/StillImage"/>
    <dc:date>2024-02-25T21:28:42.418329</dc:date>
    <dc:format>image/svg+xml</dc:format>
    <dc:creator>
     <cc:Agent>
      <dc:title>Matplotlib v3.8.2, https://matplotlib.org/</dc:title>
     </cc:Agent>
    </dc:creator>
   </cc:Work>
  </rdf:RDF>
 </metadata>
 <defs>
  <style type="text/css">*{stroke-linejoin: round; stroke-linecap: butt}</style>
 </defs>
 <g id="figure_1">
  <g id="patch_1">
   <path d="M 0 395.186094 
L 407.015703 395.186094 
L 407.015703 0 
L 0 0 
z
" style="fill: #ffffff"/>
  </g>
  <g id="axes_1">
   <g id="patch_2">
    <path d="M 59.766641 359.517188 
L 394.566641 359.517188 
L 394.566641 26.877187 
L 59.766641 26.877187 
z
" style="fill: #ffffff"/>
   </g>
   <g id="matplotlib.axis_1">
    <g id="xtick_1">
     <g id="line2d_1">
      <defs>
       <path id="mfd4d6fc260" d="M 0 0 
L 0 9 
" style="stroke: #000000; stroke-width: 1.875"/>
      </defs>
      <g>
       <use xlink:href="#mfd4d6fc260" x="59.766641" y="359.517188" style="stroke: #000000; stroke-width: 1.875"/>
      </g>
     </g>
     <g id="text_1">
      <!-- −2 -->
      <g transform="translate(47.604336 384.554609) scale(0.165 -0.165)">
       <defs>
        <path id="DejaVuSans-2212" d="M 678 2272 
L 4684 2272 
L 4684 1741 
L 678 1741 
L 678 2272 
z
" transform="scale(0.015625)"/>
        <path id="DejaVuSans-32" d="M 1228 531 
L 3431 531 
L 3431 0 
L 469 0 
L 469 531 
Q 828 903 1448 1529 
Q 2069 2156 2228 2338 
Q 2531 2678 2651 2914 
Q 2772 3150 2772 3378 
Q 2772 3750 2511 3984 
Q 2250 4219 1831 4219 
Q 1534 4219 1204 4116 
Q 875 4013 500 3803 
L 500 4441 
Q 881 4594 1212 4672 
Q 1544 4750 1819 4750 
Q 2544 4750 2975 4387 
Q 3406 4025 3406 3419 
Q 3406 3131 3298 2873 
Q 3191 2616 2906 2266 
Q 2828 2175 2409 1742 
Q 1991 1309 1228 531 
z
" transform="scale(0.015625)"/>
       </defs>
       <use xlink:href="#DejaVuSans-2212"/>
       <use xlink:href="#DejaVuSans-32" x="83.789062"/>
      </g>
     </g>
    </g>
    <g id="xtick_2">
     <g id="line2d_2">
      <g>
       <use xlink:href="#mfd4d6fc260" x="143.466641" y="359.517188" style="stroke: #000000; stroke-width: 1.875"/>
      </g>
     </g>
     <g id="text_2">
      <!-- −1 -->
      <g transform="translate(131.304336 384.554609) scale(0.165 -0.165)">
       <defs>
        <path id="DejaVuSans-31" d="M 794 531 
L 1825 531 
L 1825 4091 
L 703 3866 
L 703 4441 
L 1819 4666 
L 2450 4666 
L 2450 531 
L 3481 531 
L 3481 0 
L 794 0 
L 794 531 
z
" transform="scale(0.015625)"/>
       </defs>
       <use xlink:href="#DejaVuSans-2212"/>
       <use xlink:href="#DejaVuSans-31" x="83.789062"/>
      </g>
     </g>
    </g>
    <g id="xtick_3">
     <g id="line2d_3">
      <g>
       <use xlink:href="#mfd4d6fc260" x="227.166641" y="359.517188" style="stroke: #000000; stroke-width: 1.875"/>
      </g>
     </g>
     <g id="text_3">
      <!-- 0 -->
      <g transform="translate(221.917578 384.554609) scale(0.165 -0.165)">
       <defs>
        <path id="DejaVuSans-30" d="M 2034 4250 
Q 1547 4250 1301 3770 
Q 1056 3291 1056 2328 
Q 1056 1369 1301 889 
Q 1547 409 2034 409 
Q 2525 409 2770 889 
Q 3016 1369 3016 2328 
Q 3016 3291 2770 3770 
Q 2525 4250 2034 4250 
z
M 2034 4750 
Q 2819 4750 3233 4129 
Q 3647 3509 3647 2328 
Q 3647 1150 3233 529 
Q 2819 -91 2034 -91 
Q 1250 -91 836 529 
Q 422 1150 422 2328 
Q 422 3509 836 4129 
Q 1250 4750 2034 4750 
z
" transform="scale(0.015625)"/>
       </defs>
       <use xlink:href="#DejaVuSans-30"/>
      </g>
     </g>
    </g>
    <g id="xtick_4">
     <g id="line2d_4">
      <g>
       <use xlink:href="#mfd4d6fc260" x="310.866641" y="359.517188" style="stroke: #000000; stroke-width: 1.875"/>
      </g>
     </g>
     <g id="text_4">
      <!-- 1 -->
      <g transform="translate(305.617578 384.554609) scale(0.165 -0.165)">
       <use xlink:href="#DejaVuSans-31"/>
      </g>
     </g>
    </g>
    <g id="xtick_5">
     <g id="line2d_5">
      <g>
       <use xlink:href="#mfd4d6fc260" x="394.566641" y="359.517188" style="stroke: #000000; stroke-width: 1.875"/>
      </g>
     </g>
     <g id="text_5">
      <!-- 2 -->
      <g transform="translate(389.317578 384.554609) scale(0.165 -0.165)">
       <use xlink:href="#DejaVuSans-32"/>
      </g>
     </g>
    </g>
   </g>
   <g id="matplotlib.axis_2">
    <g id="ytick_1">
     <g id="line2d_6">
      <defs>
       <path id="mddfb07bfec" d="M 0 0 
L -9 0 
" style="stroke: #000000; stroke-width: 1.875"/>
      </defs>
      <g>
       <use xlink:href="#mddfb07bfec" x="59.766641" y="359.517188" style="stroke: #000000; stroke-width: 1.875"/>
      </g>
     </g>
     <g id="text_6">
      <!-- −2.0 -->
      <g transform="translate(7.2 365.785898) scale(0.165 -0.165)">
       <defs>
        <path id="DejaVuSans-2e" d="M 684 794 
L 1344 794 
L 1344 0 
L 684 0 
L 684 794 
z
" transform="scale(0.015625)"/>
       </defs>
       <use xlink:href="#DejaVuSans-2212"/>
       <use xlink:href="#DejaVuSans-32" x="83.789062"/>
       <use xlink:href="#DejaVuSans-2e" x="147.412109"/>
       <use xlink:href="#DejaVuSans-30" x="179.199219"/>
      </g>
     </g>
    </g>
    <g id="ytick_2">
     <g id="line2d_7">
      <g>
       <use xlink:href="#mddfb07bfec" x="59.766641" y="317.937188" style="stroke: #000000; stroke-width: 1.875"/>
      </g>
     </g>
     <g id="text_7">
      <!-- −1.5 -->
      <g transform="translate(7.2 324.205898) scale(0.165 -0.165)">
       <defs>
        <path id="DejaVuSans-35" d="M 691 4666 
L 3169 4666 
L 3169 4134 
L 1269 4134 
L 1269 2991 
Q 1406 3038 1543 3061 
Q 1681 3084 1819 3084 
Q 2600 3084 3056 2656 
Q 3513 2228 3513 1497 
Q 3513 744 3044 326 
Q 2575 -91 1722 -91 
Q 1428 -91 1123 -41 
Q 819 9 494 109 
L 494 744 
Q 775 591 1075 516 
Q 1375 441 1709 441 
Q 2250 441 2565 725 
Q 2881 1009 2881 1497 
Q 2881 1984 2565 2268 
Q 2250 2553 1709 2553 
Q 1456 2553 1204 2497 
Q 953 2441 691 2322 
L 691 4666 
z
" transform="scale(0.015625)"/>
       </defs>
       <use xlink:href="#DejaVuSans-2212"/>
       <use xlink:href="#DejaVuSans-31" x="83.789062"/>
       <use xlink:href="#DejaVuSans-2e" x="147.412109"/>
       <use xlink:href="#DejaVuSans-35" x="179.199219"/>
      </g>
     </g>
    </g>
    <g id="ytick_3">
     <g id="line2d_8">
      <g>
       <use xlink:href="#mddfb07bfec" x="59.766641" y="276.357188" style="stroke: #000000; stroke-width: 1.875"/>
      </g>
     </g>
     <g id="text_8">
      <!-- −1.0 -->
      <g transform="translate(7.2 282.625898) scale(0.165 -0.165)">
       <use xlink:href="#DejaVuSans-2212"/>
       <use xlink:href="#DejaVuSans-31" x="83.789062"/>
       <use xlink:href="#DejaVuSans-2e" x="147.412109"/>
       <use xlink:href="#DejaVuSans-30" x="179.199219"/>
      </g>
     </g>
    </g>
    <g id="ytick_4">
     <g id="line2d_9">
      <g>
       <use xlink:href="#mddfb07bfec" x="59.766641" y="234.777188" style="stroke: #000000; stroke-width: 1.875"/>
      </g>
     </g>
     <g id="text_9">
      <!-- −0.5 -->
      <g transform="translate(7.2 241.045898) scale(0.165 -0.165)">
       <use xlink:href="#DejaVuSans-2212"/>
       <use xlink:href="#DejaVuSans-30" x="83.789062"/>
       <use xlink:href="#DejaVuSans-2e" x="147.412109"/>
       <use xlink:href="#DejaVuSans-35" x="179.199219"/>
      </g>
     </g>
    </g>
    <g id="ytick_5">
     <g id="line2d_10">
      <g>
       <use xlink:href="#mddfb07bfec" x="59.766641" y="193.197188" style="stroke: #000000; stroke-width: 1.875"/>
      </g>
     </g>
     <g id="text_10">
      <!-- 0.0 -->
      <g transform="translate(21.026484 199.465898) scale(0.165 -0.165)">
       <use xlink:href="#DejaVuSans-30"/>
       <use xlink:href="#DejaVuSans-2e" x="63.623047"/>
       <use xlink:href="#DejaVuSans-30" x="95.410156"/>
      </g>
     </g>
    </g>
    <g id="ytick_6">
     <g id="line2d_11">
      <g>
       <use xlink:href="#mddfb07bfec" x="59.766641" y="151.617188" style="stroke: #000000; stroke-width: 1.875"/>
      </g>
     </g>
     <g id="text_11">
      <!-- 0.5 -->
      <g transform="translate(21.026484 157.885898) scale(0.165 -0.165)">
       <use xlink:href="#DejaVuSans-30"/>
       <use xlink:href="#DejaVuSans-2e" x="63.623047"/>
       <use xlink:href="#DejaVuSans-35" x="95.410156"/>
      </g>
     </g>
    </g>
    <g id="ytick_7">
     <g id="line2d_12">
      <g>
       <use xlink:href="#mddfb07bfec" x="59.766641" y="110.037188" style="stroke: #000000; stroke-width: 1.875"/>
      </g>
     </g>
     <g id="text_12">
      <!-- 1.0 -->
      <g transform="translate(21.026484 116.305898) scale(0.165 -0.165)">
       <use xlink:href="#DejaVuSans-31"/>
       <use xlink:href="#DejaVuSans-2e" x="63.623047"/>
       <use xlink:href="#DejaVuSans-30" x="95.410156"/>
      </g>
     </g>
    </g>
    <g id="ytick_8">
     <g id="line2d_13">
      <g>
       <use xlink:href="#mddfb07bfec" x="59.766641" y="68.457188" style="stroke: #000000; stroke-width: 1.875"/>
      </g>
     </g>
     <g id="text_13">
      <!-- 1.5 -->
      <g transform="translate(21.026484 74.725898) scale(0.165 -0.165)">
       <use xlink:href="#DejaVuSans-31"/>
       <use xlink:href="#DejaVuSans-2e" x="63.623047"/>
       <use xlink:href="#DejaVuSans-35" x="95.410156"/>
      </g>
     </g>
    </g>
    <g id="ytick_9">
     <g id="line2d_14">
      <g>
       <use xlink:href="#mddfb07bfec" x="59.766641" y="26.877188" style="stroke: #000000; stroke-width: 1.875"/>
      </g>
     </g>
     <g id="text_14">
      <!-- 2.0 -->
      <g transform="translate(21.026484 33.145898) scale(0.165 -0.165)">
       <use xlink:href="#DejaVuSans-32"/>
       <use xlink:href="#DejaVuSans-2e" x="63.623047"/>
       <use xlink:href="#DejaVuSans-30" x="95.410156"/>
      </g>
     </g>
    </g>
   </g>
   <g id="QuadContourSet_1">
    <path d="M 348.15119 26.877188 
L 344.797773 36.533404 
L 341.586251 45.523674 
L 332.77072 68.831782 
L 328.613539 79.153944 
L 325.834779 85.813404 
L 318.802758 101.796106 
L 312.311974 115.447998 
L 308.772046 122.460292 
L 302.691807 133.761512 
L 298.047722 141.776476 
L 292.865758 150.077188 
L 289.527633 155.071782 
L 286.229213 159.733404 
L 282.717822 164.395025 
L 279.502795 168.390701 
L 276.054784 172.386377 
L 272.638819 176.049079 
L 269.561235 179.094467 
L 266.209884 182.134248 
L 262.858533 184.885477 
L 259.507181 187.347698 
L 256.396939 189.367998 
L 253.139614 191.208867 
L 250.458533 192.5112 
L 247.567911 193.696647 
L 244.761235 194.621453 
L 242.080154 195.293155 
L 239.399073 195.747859 
L 236.717992 195.970044 
L 234.372046 195.9536 
L 231.939455 195.694485 
L 230.015289 195.246111 
L 228.581318 194.695566 
L 227.589556 194.02962 
L 227.183649 193.363674 
L 227.183515 193.030701 
L 227.334208 192.677073 
L 228.004478 192.017142 
L 229.345019 191.262268 
L 231.690965 190.261575 
L 239.520586 187.037188 
L 242.750424 185.484342 
L 247.188998 183.041512 
L 250.458533 181.00223 
L 254.145019 178.443714 
L 258.166641 175.330264 
L 261.989153 172.053404 
L 265.54332 168.723674 
L 269.469932 164.727998 
L 273.10044 160.732323 
L 277.036796 156.070701 
L 281.290965 150.645618 
L 283.761418 147.310238 
M 291.4285 136.09169 
L 296.036911 128.711268 
L 299.547643 122.773404 
L 305.293106 112.451242 
L 311.453127 100.553209 
L 314.606997 94.137728 
L 320.676186 81.151782 
L 328.086697 64.17016 
L 337.09757 41.860971 
L 342.773012 26.877188 
L 342.773012 26.877188 
" clip-path="url(#p1cb9cb469e)" style="fill: none; stroke: #fde725; stroke-width: 2.25"/>
    <path d="M 350.843389 26.877188 
L 346.378103 39.863133 
L 342.95583 49.48866 
L 335.095877 70.496647 
L 330.880308 81.151782 
L 324.188262 97.168214 
L 317.793286 111.452323 
L 312.210649 123.106377 
L 308.673317 130.098809 
L 304.415289 138.114269 
L 299.34357 147.080431 
L 294.909336 154.405836 
L 291.266818 160.066377 
L 287.323397 165.830017 
L 282.966641 171.756165 
L 278.750838 177.047998 
L 275.258533 181.105381 
L 271.572046 185.064375 
L 267.873964 188.702052 
L 264.199073 191.985407 
L 260.843577 194.695566 
L 257.49637 197.123375 
L 254.145019 199.28012 
L 251.060459 201.022052 
L 247.777451 202.619201 
L 244.761235 203.853164 
L 241.745019 204.863903 
L 238.583477 205.683674 
L 235.712587 206.213759 
L 232.69637 206.552339 
L 229.680154 206.667068 
L 226.663938 206.555251 
L 223.647722 206.218868 
L 220.631505 205.657443 
L 217.615289 204.868338 
L 214.599073 203.853223 
L 211.582857 202.611123 
L 208.341444 201.022052 
L 205.215289 199.238329 
L 202.199073 197.284242 
L 198.847722 194.841742 
L 195.790324 192.364755 
L 192.433631 189.367998 
L 189.036836 186.038269 
L 185.611742 182.375566 
L 182.090965 178.288168 
L 178.404478 173.6506 
L 174.543824 168.390701 
L 171.353518 163.729079 
L 167.32244 157.402593 
L 163.210959 150.41016 
L 160.292693 145.082593 
L 156.437147 137.424215 
L 154.754773 133.761512 
L 153.494333 130.764755 
L 152.538744 128.100971 
L 152.224032 126.769079 
L 152.263938 126.14264 
L 152.599073 126.072028 
L 153.604478 126.869983 
L 155.819874 129.432863 
L 157.961235 132.134959 
L 163.658533 139.437438 
L 167.970316 144.74962 
L 173.377451 150.984705 
L 177.203731 155.071782 
L 181.238251 159.067458 
L 185.107181 162.586806 
L 188.893993 165.726917 
L 192.480154 168.418984 
L 195.890793 170.721512 
L 199.211325 172.71935 
L 202.534208 174.476905 
L 206.00327 176.049079 
L 208.901776 177.159201 
L 212.253127 178.207572 
L 215.604478 179.003205 
L 218.95583 179.547169 
L 221.972046 179.819204 
L 224.988262 179.885551 
L 228.004478 179.744708 
L 231.141964 179.378809 
L 234.036911 178.844224 
L 237.388262 177.984835 
L 240.404478 176.99232 
L 243.593239 175.716106 
L 246.436911 174.382454 
L 249.533081 172.71935 
L 252.807179 170.721512 
L 256.201146 168.390701 
L 259.680029 165.726917 
L 262.858533 163.049519 
L 266.545019 159.653584 
L 270.231505 155.944289 
L 274.076058 151.742052 
L 277.939614 147.175641 
L 281.68605 142.418809 
L 285.845858 136.758269 
L 290.004478 130.698476 
L 293.831338 124.771242 
L 298.480911 117.112863 
L 303.074749 109.054388 
L 306.994295 101.796106 
L 312.265131 91.473944 
L 314.173113 87.577278 
M 319.91066 75.357635 
L 323.860659 66.500971 
L 327.717739 57.510701 
L 334.104783 41.860971 
L 339.887362 26.877188 
L 339.887362 26.877188 
" clip-path="url(#p1cb9cb469e)" style="fill: none; stroke: #b5de2b; stroke-width: 2.25"/>
    <path d="M 121.768369 38.090259 
L 125.879626 47.854485 
L 130.815289 59.057425 
L 134.865854 67.832863 
L 139.210503 76.823133 
L 143.434962 85.147458 
L 148.43864 94.470701 
L 153.269343 102.919967 
L 157.290965 109.541823 
L 161.312587 115.787833 
L 165.334208 121.658867 
L 169.35583 127.153258 
L 173.234677 132.096647 
L 177.173943 136.758269 
L 180.822819 140.753944 
L 184.448076 144.416647 
L 188.123397 147.817855 
L 191.809884 150.912978 
L 195.49637 153.690842 
L 199.053544 156.070701 
L 202.199073 157.930132 
L 205.713866 159.733404 
L 208.901776 161.120709 
L 211.917992 162.214646 
L 215.269343 163.180726 
L 218.28556 163.825931 
L 221.301776 164.258754 
L 224.317992 164.478876 
L 227.334208 164.486562 
L 230.350424 164.281682 
L 233.366641 163.864162 
L 236.382857 163.233976 
L 239.399073 162.390654 
L 242.415289 161.335326 
L 245.432259 160.066377 
L 248.447722 158.586128 
L 251.799073 156.690711 
L 255.150424 154.533048 
L 258.550234 152.075025 
L 261.873794 149.411242 
L 265.27846 146.414485 
L 268.890965 142.938589 
L 272.577451 139.075866 
L 276.378731 134.760431 
L 280.28556 129.972707 
L 284.233671 124.771242 
L 288.246595 119.110701 
L 292.350424 112.931928 
L 296.394216 106.457728 
L 300.516253 99.465296 
L 305.143411 91.140971 
L 309.514919 82.816647 
L 313.992755 73.826377 
L 319.172944 62.838269 
L 323.517992 53.138301 
L 327.781346 43.192863 
L 333.489767 29.207998 
L 334.412248 26.877188 
M 355.622116 26.877188 
L 349.56893 44.986585 
M 342.962314 63.746968 
L 338.934208 74.668193 
L 332.564565 91.140971 
L 326.534208 105.835742 
L 320.748085 119.110701 
L 315.985986 129.432863 
L 311.78403 138.09016 
L 306.653778 148.07935 
L 302.294674 156.070701 
L 298.047722 163.417919 
L 293.35583 171.028413 
L 288.934802 177.713944 
L 284.922812 183.374485 
L 280.95583 188.590595 
L 276.934208 193.491523 
L 273.201152 197.692323 
L 269.561235 201.465217 
L 265.812093 205.017728 
L 262.188262 208.129832 
L 258.836911 210.726604 
L 255.48556 213.052675 
L 252.134208 215.10799 
L 248.782857 216.892889 
L 245.602114 218.336647 
L 242.415289 219.53867 
L 239.399073 220.450945 
L 236.382857 221.143905 
L 233.366641 221.617844 
L 230.350424 221.872024 
L 227.334208 221.907145 
L 224.317992 221.72294 
L 221.301776 221.319412 
L 218.168755 220.667458 
L 215.269343 219.853218 
L 212.253127 218.791109 
L 209.236911 217.509387 
L 206.215558 216.005836 
L 202.869343 214.082592 
L 199.517992 211.885591 
L 196.075333 209.346377 
L 192.815289 206.678389 
L 189.463938 203.667403 
L 185.75933 200.023133 
L 182.037469 196.027458 
L 178.317313 191.698809 
L 174.598595 187.037188 
L 170.881122 182.042593 
L 167.164753 176.715025 
L 163.323397 170.85764 
L 158.936071 163.729079 
L 154.514011 156.070701 
L 150.253127 148.244551 
L 145.216133 138.423133 
L 140.078694 127.767998 
L 135.669132 118.111782 
L 131.603052 108.788539 
L 127.702167 99.465296 
L 122.768779 87.145296 
L 116.404478 70.36921 
L 109.663389 51.517188 
L 103.138306 32.204755 
L 101.397226 26.877188 
L 101.397226 26.877188 
" clip-path="url(#p1cb9cb469e)" style="fill: none; stroke: #6ece58; stroke-width: 2.25"/>
    <path d="M 129.772739 26.877188 
L 134.874924 38.198269 
L 139.528803 47.990185 
L 143.962399 56.844755 
L 148.540632 65.502052 
L 153.018974 73.493404 
L 157.378396 80.818809 
L 161.647722 87.559082 
L 165.669343 93.515752 
L 169.721406 99.132323 
L 173.712587 104.28679 
L 177.463461 108.788539 
L 181.362586 113.117188 
L 184.946332 116.77989 
L 188.495959 120.10962 
L 192.145019 123.223509 
L 195.49637 125.806664 
L 198.847722 128.125359 
L 202.199073 130.17963 
L 205.550424 131.96926 
L 208.901776 133.494178 
L 212.253127 134.754443 
L 215.604478 135.75026 
L 218.648439 136.425296 
L 221.636911 136.87611 
L 224.653127 137.117276 
L 227.669343 137.144317 
L 230.68556 136.957057 
L 233.701776 136.55534 
L 236.717992 135.939282 
L 239.782559 135.093404 
L 242.750424 134.063912 
L 245.858841 132.762593 
L 249.117992 131.154354 
L 252.469343 129.239333 
L 255.820695 127.059425 
L 259.172046 124.615122 
L 262.677736 121.774485 
L 266.040728 118.777728 
L 269.561235 115.355362 
L 273.252944 111.452323 
L 277.032696 107.123674 
L 280.95583 102.274961 
L 284.977451 96.92781 
L 289.038749 91.140971 
L 293.196432 84.814485 
L 297.377451 78.041429 
L 301.573784 70.82962 
L 306.090965 62.602129 
L 310.463118 54.180971 
L 314.591417 45.816548 
M 322.906395 27.749054 
L 323.289802 26.877188 
M 364.145641 26.877188 
L 359.471047 41.860971 
L 354.843558 56.178809 
L 349.813261 71.162593 
L 344.924035 85.147458 
L 339.197925 100.797188 
L 333.819788 114.782052 
L 328.707126 127.435025 
L 324.188262 138.100015 
L 318.8261 150.119569 
L 313.651626 161.065296 
L 309.327391 169.722593 
L 304.941172 178.046917 
L 300.673451 185.705296 
L 296.34302 193.030701 
L 291.936953 200.023133 
L 287.904087 206.016647 
L 283.972046 211.486257 
L 279.950424 216.697722 
L 275.928803 221.522047 
L 272.188268 225.662052 
L 268.55583 229.362483 
L 264.869343 232.794949 
L 261.496078 235.651242 
L 258.012232 238.315025 
L 254.59567 240.645836 
L 251.463938 242.537213 
L 248.097782 244.308539 
L 244.761235 245.796509 
L 241.564767 246.972323 
L 238.728803 247.811148 
L 235.712587 248.492063 
L 232.568143 248.97016 
L 229.680154 249.201086 
L 226.663938 249.229197 
L 223.647722 249.039655 
L 220.631505 248.632632 
L 217.467303 247.971242 
L 214.599073 247.165163 
L 211.582857 246.105094 
L 208.566641 244.827369 
L 205.508248 243.30962 
L 202.199073 241.41525 
L 198.847722 239.229774 
L 195.334811 236.65016 
L 192.067633 233.986377 
L 188.717519 230.98962 
L 185.107181 227.459608 
L 181.420695 223.533161 
L 177.734208 219.281613 
L 173.765712 214.340971 
L 170.0261 209.340996 
L 165.844795 203.352863 
L 161.924346 197.35935 
L 157.826056 190.69989 
L 153.766562 183.707458 
L 149.739971 176.382052 
L 145.561235 168.370697 
L 140.642039 158.401512 
L 136.432313 149.411242 
L 131.681907 138.756106 
L 127.017242 127.767998 
L 122.101776 115.626623 
L 116.392737 100.797188 
L 110.551532 84.814485 
L 105.668338 70.82962 
L 105.507953 70.358588 
M 99.221807 51.488298 
L 93.514991 33.536647 
L 91.458862 26.877188 
L 91.458862 26.877188 
" clip-path="url(#p1cb9cb469e)" style="fill: none; stroke: #35b779; stroke-width: 2.25"/>
    <path d="M 156.057948 26.877188 
L 160.366703 33.86962 
L 164.521266 40.196106 
L 168.488692 45.856647 
L 172.486625 51.184215 
L 176.393668 56.025754 
L 180.302199 60.507458 
L 183.766641 64.178353 
L 187.517971 67.832863 
L 191.139614 71.045715 
L 194.601579 73.826377 
L 197.842316 76.173087 
L 201.193668 78.338533 
L 204.545019 80.238248 
L 207.89637 81.872367 
L 211.247722 83.240947 
L 214.263938 84.245557 
L 217.280154 85.035035 
L 220.29637 85.609375 
L 223.312587 85.968576 
L 226.328803 86.112552 
L 229.345019 86.041535 
L 232.361235 85.755277 
L 235.377451 85.253955 
L 238.595127 84.481512 
L 241.409884 83.605822 
L 244.4261 82.458955 
L 247.777451 80.932507 
L 251.128803 79.140275 
L 254.480154 77.082599 
L 257.831505 74.759239 
L 261.19351 72.161512 
L 264.702825 69.164755 
L 268.220695 65.868863 
L 271.907181 62.100707 
L 275.738478 57.843674 
L 279.34861 53.515025 
L 283.301776 48.42165 
L 285.658224 45.209518 
M 378.960711 26.877188 
L 377.754807 31.214042 
M 370.525718 56.479994 
L 365.039177 74.825296 
L 359.016153 94.137728 
L 353.009884 112.535637 
L 347.111112 129.765836 
L 342.222795 143.417728 
L 336.861352 157.735566 
L 331.561235 171.216813 
L 326.199073 184.17398 
L 321.024424 196.027458 
L 316.430752 206.016647 
L 311.586097 216.005836 
L 307.324848 224.33016 
L 303.00823 232.321512 
L 298.625929 239.97989 
L 294.361235 246.993923 
L 290.004478 253.711166 
L 285.900017 259.625296 
L 281.938851 264.952863 
L 277.939614 269.9521 
L 274.204909 274.276106 
L 270.466295 278.271782 
L 266.880154 281.791902 
L 263.193668 285.090755 
L 259.686791 287.927998 
L 256.490965 290.258994 
L 253.139614 292.4414 
L 249.788262 294.35627 
L 246.436911 296.003451 
L 243.08556 297.382912 
L 240.069343 298.395577 
L 236.79618 299.249079 
L 234.036911 299.770442 
L 231.020695 300.132647 
L 228.004478 300.278092 
L 224.988262 300.206622 
L 221.947184 299.915025 
L 218.95583 299.413156 
L 215.939614 298.691234 
L 212.923397 297.752452 
L 209.879565 296.585296 
L 206.55583 295.058559 
L 203.204478 293.252687 
L 199.853127 291.178912 
L 196.501776 288.837525 
L 193.150424 286.228504 
L 189.704517 283.266377 
L 186.112587 279.878069 
L 182.4261 276.080465 
L 178.727775 271.945296 
L 174.869794 267.283674 
L 171.275565 262.622052 
L 167.345019 257.171997 
L 163.16296 250.967998 
L 159.16112 244.641512 
L 154.994412 237.649079 
L 150.923397 230.417529 
L 146.269626 221.666377 
L 142.077985 213.342052 
L 137.517992 203.811848 
L 132.476559 192.697728 
L 127.462682 181.043674 
L 122.156881 168.057728 
L 117.6132 156.403674 
L 112.640029 143.084755 
L 107.291004 128.100971 
L 101.725054 111.785296 
L 96.822345 96.801512 
L 91.479231 79.81989 
L 85.907181 61.387246 
L 79.478139 39.197188 
L 76.026571 26.877188 
L 76.026571 26.877188 
" clip-path="url(#p1cb9cb469e)" style="fill: none; stroke: #1f9e89; stroke-width: 2.25"/>
    <path d="M 171.472388 359.517188 
L 167.680154 354.306602 
L 163.519942 348.196106 
L 159.480644 341.86962 
L 155.473601 335.21016 
L 151.258533 327.79322 
L 146.66467 319.227458 
L 142.43794 310.903133 
L 137.853127 301.393562 
L 132.915421 290.591782 
L 128.426733 280.26962 
L 123.442316 268.245882 
L 118.200914 254.963674 
L 113.30881 241.977728 
L 108.0261 227.316035 
L 102.413908 211.011242 
L 97.301776 195.508402 
L 91.465563 177.047998 
L 85.907181 158.714938 
L 79.809881 137.757188 
L 73.766867 116.113944 
L 67.601998 93.138809 
L 65.877504 86.550595 
M 390.434989 80.231851 
L 384.155755 104.126917 
L 377.778206 127.435025 
L 371.603789 149.078269 
L 365.963406 168.057728 
L 360.2943 186.371242 
L 354.68556 203.737936 
L 348.853638 221.000431 
L 343.554909 235.984215 
L 338.255506 250.302052 
L 332.901776 264.08779 
L 327.653354 276.93989 
L 322.93819 287.927998 
L 318.440203 297.917188 
L 313.708113 307.906377 
L 309.044749 317.22962 
L 304.415289 325.973542 
L 299.783394 334.211242 
L 295.701776 341.047737 
L 291.345019 347.907553 
L 287.076865 354.18962 
L 283.202467 359.517188 
L 283.202467 359.517188 
" clip-path="url(#p1cb9cb469e)" style="fill: none; stroke: #26828e; stroke-width: 2.25"/>
    <path d="M 91.32056 359.517188 
L 85.963675 341.86962 
L 80.515828 323.223133 
L 74.435919 301.57989 
L 68.412219 279.270701 
L 66.156213 270.693815 
M 389.395877 266.704263 
L 383.343123 289.592863 
L 377.474749 310.953729 
L 371.299465 332.546377 
L 365.543091 351.858809 
L 363.19291 359.517188 
L 363.19291 359.517188 
" clip-path="url(#p1cb9cb469e)" style="fill: none; stroke: #31688e; stroke-width: 2.25"/>
    <path clip-path="url(#p1cb9cb469e)" style="fill: none; stroke: #3e4989; stroke-width: 2.25"/>
    <path clip-path="url(#p1cb9cb469e)" style="fill: none; stroke: #482878; stroke-width: 2.25"/>
    <path clip-path="url(#p1cb9cb469e)" style="fill: none; stroke: #440154; stroke-width: 2.25"/>
   </g>
   <g id="PathCollection_1">
    <defs>
     <path id="me388bc565e" d="M 0 4.5 
C 1.193414 4.5 2.338109 4.025852 3.181981 3.181981 
C 4.025852 2.338109 4.5 1.193414 4.5 0 
C 4.5 -1.193414 4.025852 -2.338109 3.181981 -3.181981 
C 2.338109 -4.025852 1.193414 -4.5 0 -4.5 
C -1.193414 -4.5 -2.338109 -4.025852 -3.181981 -3.181981 
C -4.025852 -2.338109 -4.5 -1.193414 -4.5 0 
C -4.5 1.193414 -4.025852 2.338109 -3.181981 3.181981 
C -2.338109 4.025852 -1.193414 4.5 0 4.5 
z
" style="stroke: #000000; stroke-width: 1.5"/>
    </defs>
    <g clip-path="url(#p1cb9cb469e)">
     <use xlink:href="#me388bc565e" x="280.530419" y="159.176868" style="stroke: #000000; stroke-width: 1.5"/>
     <use xlink:href="#me388bc565e" x="281.187292" y="158.331356" style="stroke: #000000; stroke-width: 1.5"/>
     <use xlink:href="#me388bc565e" x="281.240509" y="157.968467" style="stroke: #000000; stroke-width: 1.5"/>
     <use xlink:href="#me388bc565e" x="282.429303" y="156.52149" style="stroke: #000000; stroke-width: 1.5"/>
     <use xlink:href="#me388bc565e" x="279.847398" y="161.057849" style="stroke: #000000; stroke-width: 1.5"/>
     <use xlink:href="#me388bc565e" x="283.907501" y="154.560982" style="stroke: #000000; stroke-width: 1.5"/>
     <use xlink:href="#me388bc565e" x="286.998564" y="151.810115" style="stroke: #000000; stroke-width: 1.5"/>
     <use xlink:href="#me388bc565e" x="284.655677" y="154.089191" style="stroke: #000000; stroke-width: 1.5"/>
     <use xlink:href="#me388bc565e" x="280.622177" y="158.643459" style="stroke: #000000; stroke-width: 1.5"/>
     <use xlink:href="#me388bc565e" x="283.203448" y="155.881998" style="stroke: #000000; stroke-width: 1.5"/>
     <use xlink:href="#me388bc565e" x="279.376549" y="160.971594" style="stroke: #000000; stroke-width: 1.5"/>
     <use xlink:href="#me388bc565e" x="277.996935" y="162.219807" style="stroke: #000000; stroke-width: 1.5"/>
     <use xlink:href="#me388bc565e" x="283.809006" y="155.443248" style="stroke: #000000; stroke-width: 1.5"/>
     <use xlink:href="#me388bc565e" x="283.673484" y="156.309495" style="stroke: #000000; stroke-width: 1.5"/>
     <use xlink:href="#me388bc565e" x="279.84519" y="160.679112" style="stroke: #000000; stroke-width: 1.5"/>
     <use xlink:href="#me388bc565e" x="280.119694" y="160.95707" style="stroke: #000000; stroke-width: 1.5"/>
     <use xlink:href="#me388bc565e" x="283.092436" y="155.750285" style="stroke: #000000; stroke-width: 1.5"/>
     <use xlink:href="#me388bc565e" x="280.166245" y="159.658836" style="stroke: #000000; stroke-width: 1.5"/>
     <use xlink:href="#me388bc565e" x="283.082615" y="155.191929" style="stroke: #000000; stroke-width: 1.5"/>
     <use xlink:href="#me388bc565e" x="285.407485" y="153.644156" style="stroke: #000000; stroke-width: 1.5"/>
     <use xlink:href="#me388bc565e" x="283.527548" y="155.74852" style="stroke: #000000; stroke-width: 1.5"/>
     <use xlink:href="#me388bc565e" x="281.868163" y="157.298917" style="stroke: #000000; stroke-width: 1.5"/>
     <use xlink:href="#me388bc565e" x="282.729763" y="157.019117" style="stroke: #000000; stroke-width: 1.5"/>
     <use xlink:href="#me388bc565e" x="280.359405" y="159.520658" style="stroke: #000000; stroke-width: 1.5"/>
     <use xlink:href="#me388bc565e" x="283.372541" y="154.838911" style="stroke: #000000; stroke-width: 1.5"/>
     <use xlink:href="#me388bc565e" x="280.036752" y="159.664333" style="stroke: #000000; stroke-width: 1.5"/>
     <use xlink:href="#me388bc565e" x="284.179997" y="154.607884" style="stroke: #000000; stroke-width: 1.5"/>
     <use xlink:href="#me388bc565e" x="282.820219" y="157.748785" style="stroke: #000000; stroke-width: 1.5"/>
     <use xlink:href="#me388bc565e" x="285.98251" y="152.381113" style="stroke: #000000; stroke-width: 1.5"/>
     <use xlink:href="#me388bc565e" x="282.912201" y="156.580822" style="stroke: #000000; stroke-width: 1.5"/>
     <use xlink:href="#me388bc565e" x="285.213525" y="152.648408" style="stroke: #000000; stroke-width: 1.5"/>
     <use xlink:href="#me388bc565e" x="284.698681" y="154.227823" style="stroke: #000000; stroke-width: 1.5"/>
     <use xlink:href="#me388bc565e" x="280.143134" y="158.668431" style="stroke: #000000; stroke-width: 1.5"/>
     <use xlink:href="#me388bc565e" x="283.910025" y="154.309023" style="stroke: #000000; stroke-width: 1.5"/>
     <use xlink:href="#me388bc565e" x="286.090119" y="153.116438" style="stroke: #000000; stroke-width: 1.5"/>
     <use xlink:href="#me388bc565e" x="283.45829" y="155.529955" style="stroke: #000000; stroke-width: 1.5"/>
     <use xlink:href="#me388bc565e" x="281.995815" y="156.981736" style="stroke: #000000; stroke-width: 1.5"/>
     <use xlink:href="#me388bc565e" x="281.820426" y="158.538623" style="stroke: #000000; stroke-width: 1.5"/>
     <use xlink:href="#me388bc565e" x="282.664954" y="155.912949" style="stroke: #000000; stroke-width: 1.5"/>
     <use xlink:href="#me388bc565e" x="283.746484" y="155.981921" style="stroke: #000000; stroke-width: 1.5"/>
     <use xlink:href="#me388bc565e" x="285.344937" y="153.877161" style="stroke: #000000; stroke-width: 1.5"/>
     <use xlink:href="#me388bc565e" x="284.894065" y="154.496736" style="stroke: #000000; stroke-width: 1.5"/>
     <use xlink:href="#me388bc565e" x="282.014183" y="158.172829" style="stroke: #000000; stroke-width: 1.5"/>
     <use xlink:href="#me388bc565e" x="282.563107" y="157.263283" style="stroke: #000000; stroke-width: 1.5"/>
     <use xlink:href="#me388bc565e" x="284.11201" y="154.942649" style="stroke: #000000; stroke-width: 1.5"/>
     <use xlink:href="#me388bc565e" x="279.271321" y="160.758274" style="stroke: #000000; stroke-width: 1.5"/>
     <use xlink:href="#me388bc565e" x="280.104664" y="160.518926" style="stroke: #000000; stroke-width: 1.5"/>
     <use xlink:href="#me388bc565e" x="283.740861" y="155.952355" style="stroke: #000000; stroke-width: 1.5"/>
     <use xlink:href="#me388bc565e" x="280.038489" y="159.984455" style="stroke: #000000; stroke-width: 1.5"/>
     <use xlink:href="#me388bc565e" x="284.834456" y="154.616147" style="stroke: #000000; stroke-width: 1.5"/>
     <use xlink:href="#me388bc565e" x="289.313061" y="148.145849" style="stroke: #000000; stroke-width: 1.5"/>
     <use xlink:href="#me388bc565e" x="281.294043" y="158.414907" style="stroke: #000000; stroke-width: 1.5"/>
     <use xlink:href="#me388bc565e" x="282.497336" y="156.162185" style="stroke: #000000; stroke-width: 1.5"/>
     <use xlink:href="#me388bc565e" x="281.281257" y="158.036163" style="stroke: #000000; stroke-width: 1.5"/>
     <use xlink:href="#me388bc565e" x="283.63003" y="154.592349" style="stroke: #000000; stroke-width: 1.5"/>
     <use xlink:href="#me388bc565e" x="282.148313" y="158.553146" style="stroke: #000000; stroke-width: 1.5"/>
     <use xlink:href="#me388bc565e" x="282.913407" y="156.258467" style="stroke: #000000; stroke-width: 1.5"/>
     <use xlink:href="#me388bc565e" x="285.289646" y="153.401697" style="stroke: #000000; stroke-width: 1.5"/>
     <use xlink:href="#me388bc565e" x="281.612574" y="157.513704" style="stroke: #000000; stroke-width: 1.5"/>
     <use xlink:href="#me388bc565e" x="282.255907" y="157.841866" style="stroke: #000000; stroke-width: 1.5"/>
     <use xlink:href="#me388bc565e" x="283.866951" y="155.847373" style="stroke: #000000; stroke-width: 1.5"/>
     <use xlink:href="#me388bc565e" x="285.157652" y="153.093394" style="stroke: #000000; stroke-width: 1.5"/>
     <use xlink:href="#me388bc565e" x="282.336316" y="156.596758" style="stroke: #000000; stroke-width: 1.5"/>
     <use xlink:href="#me388bc565e" x="280.974975" y="160.267499" style="stroke: #000000; stroke-width: 1.5"/>
     <use xlink:href="#me388bc565e" x="282.018591" y="157.759721" style="stroke: #000000; stroke-width: 1.5"/>
     <use xlink:href="#me388bc565e" x="281.418672" y="157.549106" style="stroke: #000000; stroke-width: 1.5"/>
     <use xlink:href="#me388bc565e" x="280.822533" y="158.82735" style="stroke: #000000; stroke-width: 1.5"/>
     <use xlink:href="#me388bc565e" x="287.536643" y="150.006059" style="stroke: #000000; stroke-width: 1.5"/>
     <use xlink:href="#me388bc565e" x="283.989653" y="155.189687" style="stroke: #000000; stroke-width: 1.5"/>
     <use xlink:href="#me388bc565e" x="285.124563" y="153.693854" style="stroke: #000000; stroke-width: 1.5"/>
     <use xlink:href="#me388bc565e" x="283.557521" y="155.313462" style="stroke: #000000; stroke-width: 1.5"/>
     <use xlink:href="#me388bc565e" x="282.140828" y="156.988276" style="stroke: #000000; stroke-width: 1.5"/>
     <use xlink:href="#me388bc565e" x="286.619341" y="151.966835" style="stroke: #000000; stroke-width: 1.5"/>
     <use xlink:href="#me388bc565e" x="285.167691" y="153.293129" style="stroke: #000000; stroke-width: 1.5"/>
     <use xlink:href="#me388bc565e" x="281.17249" y="159.3199" style="stroke: #000000; stroke-width: 1.5"/>
     <use xlink:href="#me388bc565e" x="283.066426" y="156.08898" style="stroke: #000000; stroke-width: 1.5"/>
     <use xlink:href="#me388bc565e" x="279.936337" y="161.070914" style="stroke: #000000; stroke-width: 1.5"/>
     <use xlink:href="#me388bc565e" x="285.870975" y="152.890392" style="stroke: #000000; stroke-width: 1.5"/>
     <use xlink:href="#me388bc565e" x="285.706654" y="152.420721" style="stroke: #000000; stroke-width: 1.5"/>
     <use xlink:href="#me388bc565e" x="283.249931" y="156.463549" style="stroke: #000000; stroke-width: 1.5"/>
     <use xlink:href="#me388bc565e" x="285.397333" y="153.818516" style="stroke: #000000; stroke-width: 1.5"/>
     <use xlink:href="#me388bc565e" x="283.99435" y="155.643519" style="stroke: #000000; stroke-width: 1.5"/>
     <use xlink:href="#me388bc565e" x="282.80467" y="158.089172" style="stroke: #000000; stroke-width: 1.5"/>
     <use xlink:href="#me388bc565e" x="285.027047" y="154.241884" style="stroke: #000000; stroke-width: 1.5"/>
     <use xlink:href="#me388bc565e" x="283.778724" y="156.251399" style="stroke: #000000; stroke-width: 1.5"/>
     <use xlink:href="#me388bc565e" x="278.942936" y="162.014873" style="stroke: #000000; stroke-width: 1.5"/>
     <use xlink:href="#me388bc565e" x="284.04485" y="155.210381" style="stroke: #000000; stroke-width: 1.5"/>
     <use xlink:href="#me388bc565e" x="285.467451" y="152.951268" style="stroke: #000000; stroke-width: 1.5"/>
     <use xlink:href="#me388bc565e" x="283.226976" y="156.119917" style="stroke: #000000; stroke-width: 1.5"/>
     <use xlink:href="#me388bc565e" x="284.883953" y="152.246934" style="stroke: #000000; stroke-width: 1.5"/>
     <use xlink:href="#me388bc565e" x="282.499532" y="155.549666" style="stroke: #000000; stroke-width: 1.5"/>
     <use xlink:href="#me388bc565e" x="284.453135" y="154.106794" style="stroke: #000000; stroke-width: 1.5"/>
     <use xlink:href="#me388bc565e" x="282.503115" y="157.363527" style="stroke: #000000; stroke-width: 1.5"/>
     <use xlink:href="#me388bc565e" x="282.868883" y="156.832606" style="stroke: #000000; stroke-width: 1.5"/>
     <use xlink:href="#me388bc565e" x="280.864915" y="160.323951" style="stroke: #000000; stroke-width: 1.5"/>
     <use xlink:href="#me388bc565e" x="287.625526" y="151.195458" style="stroke: #000000; stroke-width: 1.5"/>
     <use xlink:href="#me388bc565e" x="282.023183" y="156.806966" style="stroke: #000000; stroke-width: 1.5"/>
     <use xlink:href="#me388bc565e" x="282.896589" y="157.517212" style="stroke: #000000; stroke-width: 1.5"/>
     <use xlink:href="#me388bc565e" x="286.831983" y="150.893756" style="stroke: #000000; stroke-width: 1.5"/>
     <use xlink:href="#me388bc565e" x="283.128219" y="155.938434" style="stroke: #000000; stroke-width: 1.5"/>
    </g>
   </g>
   <g id="PathCollection_2">
    <defs>
     <path id="ma0e2b72e58" d="M 0 4.5 
C 1.193414 4.5 2.338109 4.025852 3.181981 3.181981 
C 4.025852 2.338109 4.5 1.193414 4.5 0 
C 4.5 -1.193414 4.025852 -2.338109 3.181981 -3.181981 
C 2.338109 -4.025852 1.193414 -4.5 0 -4.5 
C -1.193414 -4.5 -2.338109 -4.025852 -3.181981 -3.181981 
C -4.025852 -2.338109 -4.5 -1.193414 -4.5 0 
C -4.5 1.193414 -4.025852 2.338109 -3.181981 3.181981 
C -2.338109 4.025852 -1.193414 4.5 0 4.5 
z
" style="stroke: #ff0000; stroke-width: 1.5"/>
    </defs>
    <g clip-path="url(#p1cb9cb469e)">
     <use xlink:href="#ma0e2b72e58" x="289.313061" y="148.145849" style="fill: #ff0000; stroke: #ff0000; stroke-width: 1.5"/>
     <use xlink:href="#ma0e2b72e58" x="287.536643" y="150.006059" style="fill: #ff0000; stroke: #ff0000; stroke-width: 1.5"/>
     <use xlink:href="#ma0e2b72e58" x="286.831983" y="150.893756" style="fill: #ff0000; stroke: #ff0000; stroke-width: 1.5"/>
     <use xlink:href="#ma0e2b72e58" x="285.98251" y="152.381113" style="fill: #ff0000; stroke: #ff0000; stroke-width: 1.5"/>
     <use xlink:href="#ma0e2b72e58" x="285.706654" y="152.420721" style="fill: #ff0000; stroke: #ff0000; stroke-width: 1.5"/>
     <use xlink:href="#ma0e2b72e58" x="286.619341" y="151.966835" style="fill: #ff0000; stroke: #ff0000; stroke-width: 1.5"/>
     <use xlink:href="#ma0e2b72e58" x="285.467451" y="152.951268" style="fill: #ff0000; stroke: #ff0000; stroke-width: 1.5"/>
     <use xlink:href="#ma0e2b72e58" x="285.167691" y="153.293129" style="fill: #ff0000; stroke: #ff0000; stroke-width: 1.5"/>
     <use xlink:href="#ma0e2b72e58" x="285.870975" y="152.890392" style="fill: #ff0000; stroke: #ff0000; stroke-width: 1.5"/>
     <use xlink:href="#ma0e2b72e58" x="285.289646" y="153.401697" style="fill: #ff0000; stroke: #ff0000; stroke-width: 1.5"/>
     <use xlink:href="#ma0e2b72e58" x="285.157652" y="153.093394" style="fill: #ff0000; stroke: #ff0000; stroke-width: 1.5"/>
     <use xlink:href="#ma0e2b72e58" x="285.124563" y="153.693854" style="fill: #ff0000; stroke: #ff0000; stroke-width: 1.5"/>
     <use xlink:href="#ma0e2b72e58" x="284.655677" y="154.089191" style="fill: #ff0000; stroke: #ff0000; stroke-width: 1.5"/>
     <use xlink:href="#ma0e2b72e58" x="285.213525" y="152.648408" style="fill: #ff0000; stroke: #ff0000; stroke-width: 1.5"/>
     <use xlink:href="#ma0e2b72e58" x="286.998564" y="151.810115" style="fill: #ff0000; stroke: #ff0000; stroke-width: 1.5"/>
     <use xlink:href="#ma0e2b72e58" x="284.698681" y="154.227823" style="fill: #ff0000; stroke: #ff0000; stroke-width: 1.5"/>
     <use xlink:href="#ma0e2b72e58" x="285.407485" y="153.644156" style="fill: #ff0000; stroke: #ff0000; stroke-width: 1.5"/>
     <use xlink:href="#ma0e2b72e58" x="284.453135" y="154.106794" style="fill: #ff0000; stroke: #ff0000; stroke-width: 1.5"/>
     <use xlink:href="#ma0e2b72e58" x="284.179997" y="154.607884" style="fill: #ff0000; stroke: #ff0000; stroke-width: 1.5"/>
     <use xlink:href="#ma0e2b72e58" x="284.11201" y="154.942649" style="fill: #ff0000; stroke: #ff0000; stroke-width: 1.5"/>
    </g>
   </g>
   <g id="QuadContourSet_2">
    <path d="M 279.615289 160.907504 
L 279.926501 160.732323 
L 279.950424 160.727695 
L 280.28556 160.553378 
L 280.443735 160.39935 
L 280.620695 160.293787 
L 280.850948 160.066377 
L 280.95583 159.993417 
L 281.217065 159.733404 
L 281.290965 159.67389 
L 281.564634 159.400431 
L 281.6261 159.343381 
L 281.901773 159.067458 
L 281.961235 159.004024 
L 282.230428 158.734485 
L 282.29637 158.653764 
L 282.548381 158.401512 
L 282.631505 158.284872 
L 282.847779 158.068539 
L 282.966641 157.87746 
L 283.108613 157.735566 
L 283.301465 157.402593 
L 283.301776 157.402142 
L 283.632958 157.06962 
L 283.636911 157.063057 
L 283.962445 156.736647 
L 283.972046 156.718397 
L 284.286348 156.403674 
L 284.307181 156.358338 
L 284.594793 156.070701 
L 284.642316 155.952314 
L 284.857123 155.737728 
L 284.977386 155.404755 
L 284.977451 155.404608 
L 285.309085 155.071782 
L 285.312587 155.062774 
L 285.635953 154.738809 
L 285.647722 154.704161 
L 285.945942 154.405836 
L 285.982857 154.28146 
L 286.191645 154.072863 
L 286.31731 153.73989 
L 286.317992 153.737816 
L 286.647589 153.406917 
L 286.653127 153.387644 
L 286.966203 153.073944 
L 286.988262 152.986117 
L 287.233318 152.740971 
L 287.323054 152.407998 
L 287.323397 152.406764 
L 287.653011 152.075025 
L 287.658533 152.052301 
L 287.967563 151.742052 
L 287.993668 151.6192 
L 288.203391 151.409079 
L 288.327283 151.076106 
L 288.328803 151.069632 
L 288.652253 150.743133 
L 288.663938 150.686249 
L 288.938307 150.41016 
L 288.99904 150.077188 
L 288.999073 150.07704 
L 289.326055 149.744215 
L 289.334208 149.70307 
L 289.622299 149.411242 
L 289.669343 149.14021 
L 289.730731 149.078269 
L 289.994933 148.745296 
L 290.004478 148.695189 
L 290.280895 148.412323 
L 290.339362 148.07935 
L 290.339614 148.078132 
L 290.655075 147.746377 
L 290.674749 147.638408 
L 290.891204 147.413404 
L 291.001713 147.080431 
L 291.009884 147.038487 
L 291.278155 146.747458 
L 291.342743 146.414485 
L 291.345019 146.4031 
L 291.616509 146.081512 
L 291.678429 145.748539 
L 291.680154 145.739211 
L 291.903564 145.415566 
L 291.960658 145.082593 
L 291.939062 144.74962 
L 291.680154 144.628392 
L 291.526945 144.74962 
L 291.345019 144.80732 
L 291.033555 145.082593 
L 291.009884 145.092318 
L 290.674749 145.366513 
L 290.625428 145.415566 
L 290.339614 145.642854 
L 290.233727 145.748539 
L 290.004478 145.958504 
L 289.881427 146.081512 
L 289.669343 146.30469 
L 289.559554 146.414485 
L 289.334208 146.686543 
L 289.273283 146.747458 
L 289.000272 147.080431 
L 288.999073 147.081732 
L 288.668719 147.413404 
L 288.663938 147.419361 
L 288.338046 147.746377 
L 288.328803 147.759582 
L 288.009826 148.07935 
L 287.993668 148.105795 
L 287.687554 148.412323 
L 287.658533 148.466714 
L 287.380011 148.745296 
L 287.323397 148.866781 
L 287.11173 149.078269 
L 286.988262 149.381598 
L 286.958566 149.411242 
L 286.656089 149.744215 
L 286.653127 149.750779 
L 286.327421 150.077188 
L 286.317992 150.101102 
L 286.00914 150.41016 
L 285.982857 150.486459 
L 285.726025 150.743133 
L 285.647722 151.003307 
L 285.574799 151.076106 
L 285.315156 151.409079 
L 285.312587 151.416783 
L 284.988121 151.742052 
L 284.977451 151.778657 
L 284.681321 152.075025 
L 284.642316 152.228146 
L 284.462358 152.407998 
L 284.308593 152.740971 
L 284.307181 152.74598 
L 283.980726 153.073944 
L 283.972046 153.10915 
L 283.675017 153.406917 
L 283.636911 153.583696 
L 283.48083 153.73989 
L 283.304176 154.072863 
L 283.301776 154.082935 
L 282.981177 154.405836 
L 282.966641 154.475557 
L 282.704563 154.738809 
L 282.63189 155.071782 
L 282.631505 155.073455 
L 282.304912 155.404755 
L 282.29637 155.447188 
L 282.008773 155.737728 
L 281.961235 156.007448 
L 281.898413 156.070701 
L 281.634256 156.403674 
L 281.6261 156.445756 
L 281.340659 156.736647 
L 281.290965 157.029041 
L 281.250941 157.06962 
L 280.969526 157.402593 
L 280.95583 157.476323 
L 280.704832 157.735566 
L 280.623905 158.068539 
L 280.620695 158.084608 
L 280.324812 158.401512 
L 280.28556 158.623504 
L 280.180316 158.734485 
L 279.979549 159.067458 
L 279.950424 159.223639 
L 279.792117 159.400431 
L 279.654297 159.733404 
L 279.615289 159.943816 
L 279.518143 160.066377 
L 279.397734 160.39935 
L 279.413853 160.732323 
L 279.615289 160.907504 
z
" clip-path="url(#p1cb9cb469e)" style="fill: none; stroke-dasharray: 2.25,3.7125; stroke-dashoffset: 0; stroke: #ff0000; stroke-width: 2.25"/>
    <path d="M 279.950424 160.430699 
L 279.991833 160.39935 
L 280.28556 160.309904 
L 280.566364 160.066377 
L 280.620695 160.044337 
L 280.954813 159.733404 
L 280.95583 159.732891 
L 281.290965 159.459886 
L 281.350466 159.400431 
L 281.6261 159.144599 
L 281.703171 159.067458 
L 281.961235 158.792155 
L 282.018832 158.734485 
L 282.296076 158.401512 
L 282.29637 158.40123 
L 282.627173 158.068539 
L 282.631505 158.063769 
L 282.957762 157.735566 
L 282.966641 157.724343 
L 283.286714 157.402593 
L 283.301776 157.380767 
L 283.611668 157.06962 
L 283.636911 157.027716 
L 283.927199 156.736647 
L 283.972046 156.6514 
L 284.21944 156.403674 
L 284.307181 156.212738 
L 284.449205 156.070701 
L 284.640924 155.737728 
L 284.642316 155.734992 
L 284.970723 155.404755 
L 284.977451 155.389627 
L 285.294158 155.071782 
L 285.312587 155.024369 
L 285.597619 154.738809 
L 285.647722 154.591303 
L 285.833124 154.405836 
L 285.98175 154.072863 
L 285.982857 154.069919 
L 286.310826 153.73989 
L 286.317992 153.718087 
L 286.627938 153.406917 
L 286.653127 153.319251 
L 286.897947 153.073944 
L 286.98809 152.740971 
L 286.988262 152.740429 
L 287.317571 152.407998 
L 287.323397 152.387023 
L 287.633397 152.075025 
L 287.658533 151.971582 
L 287.88716 151.742052 
L 287.992577 151.409079 
L 287.993668 151.405011 
L 288.318254 151.076106 
L 288.328803 151.031157 
L 288.614138 150.743133 
L 288.663938 150.500698 
L 288.753912 150.41016 
L 288.99238 150.077188 
L 288.999073 150.047578 
L 289.29711 149.744215 
L 289.334208 149.556995 
L 289.478094 149.411242 
L 289.662057 149.078269 
L 289.669343 149.044664 
L 289.959712 148.745296 
L 290.004478 148.510314 
L 290.100236 148.412323 
L 290.324437 148.07935 
L 290.339614 148.005894 
L 290.586386 147.746377 
L 290.670304 147.413404 
L 290.674749 147.393082 
L 290.956314 147.080431 
L 291.009884 146.80545 
L 291.063341 146.747458 
L 291.290218 146.414485 
L 291.345019 146.140354 
L 291.394694 146.081512 
L 291.570304 145.748539 
L 291.611421 145.415566 
L 291.345019 145.118807 
L 291.009884 145.254516 
L 290.838167 145.415566 
L 290.674749 145.497908 
L 290.416176 145.748539 
L 290.339614 145.794514 
L 290.048875 146.081512 
L 290.004478 146.112768 
L 289.701804 146.414485 
L 289.669343 146.441021 
L 289.363418 146.747458 
L 289.334208 146.775023 
L 289.02991 147.080431 
L 288.999073 147.113907 
L 288.700766 147.413404 
L 288.663938 147.459297 
L 288.377844 147.746377 
L 288.328803 147.816438 
L 288.066541 148.07935 
L 287.993668 148.198616 
L 287.78025 148.412323 
L 287.658533 148.640445 
L 287.553705 148.745296 
L 287.325336 149.078269 
L 287.323397 149.081548 
L 286.995556 149.411242 
L 286.988262 149.425365 
L 286.670629 149.744215 
L 286.653127 149.783002 
L 286.359574 150.077188 
L 286.317992 150.182654 
L 286.090638 150.41016 
L 285.982857 150.723039 
L 285.96275 150.743133 
L 285.651751 151.076106 
L 285.647722 151.086669 
L 285.326744 151.409079 
L 285.312587 151.451534 
L 285.022786 151.742052 
L 284.977451 151.897587 
L 284.800155 152.075025 
L 284.643938 152.407998 
L 284.642316 152.413031 
L 284.316725 152.740971 
L 284.307181 152.77482 
L 284.009434 153.073944 
L 283.972046 153.225582 
L 283.79116 153.406917 
L 283.639081 153.73989 
L 283.636911 153.747861 
L 283.315285 154.072863 
L 283.301776 154.129553 
L 283.027463 154.405836 
L 282.966641 154.697553 
L 282.925568 154.738809 
L 282.638777 155.071782 
L 282.631505 155.103429 
L 282.33446 155.404755 
L 282.29637 155.593973 
L 282.154071 155.737728 
L 281.967553 156.070701 
L 281.961235 156.099318 
L 281.664477 156.403674 
L 281.6261 156.601696 
L 281.493678 156.736647 
L 281.301374 157.06962 
L 281.290965 157.118964 
L 281.019062 157.402593 
L 280.95602 157.735566 
L 280.95583 157.736413 
L 280.65176 158.068539 
L 280.620695 158.224033 
L 280.454988 158.401512 
L 280.308806 158.734485 
L 280.28556 158.846394 
L 280.093835 159.067458 
L 279.984342 159.400431 
L 279.950424 159.570749 
L 279.830614 159.733404 
L 279.747983 160.066377 
L 279.896844 160.39935 
L 279.950424 160.430699 
z
" clip-path="url(#p1cb9cb469e)" style="fill: none; stroke-dasharray: 2.25,3.7125; stroke-dashoffset: 0; stroke: #ff0000; stroke-width: 2.25"/>
    <path d="M 280.28556 160.070977 
L 280.290864 160.066377 
L 280.620695 159.932577 
L 280.834719 159.733404 
L 280.95583 159.672357 
L 281.237057 159.400431 
L 281.290965 159.367832 
L 281.595196 159.067458 
L 281.6261 159.045469 
L 281.937625 158.734485 
L 281.961235 158.714941 
L 282.273535 158.401512 
L 282.29637 158.379669 
L 282.605733 158.068539 
L 282.631505 158.040166 
L 282.934299 157.735566 
L 282.966641 157.694687 
L 283.257213 157.402593 
L 283.301776 157.338016 
L 283.569089 157.06962 
L 283.636911 156.957034 
L 283.856706 156.736647 
L 283.972046 156.517404 
L 284.085624 156.403674 
L 284.30513 156.070701 
L 284.307181 156.06718 
L 284.634104 155.737728 
L 284.642316 155.721592 
L 284.957397 155.404755 
L 284.977451 155.359665 
L 285.264303 155.071782 
L 285.312587 154.947559 
L 285.520951 154.738809 
L 285.647342 154.405836 
L 285.647722 154.404954 
L 285.976846 154.072863 
L 285.982857 154.056869 
L 286.297858 153.73989 
L 286.317992 153.678628 
L 286.588634 153.406917 
L 286.653127 153.182466 
L 286.761433 153.073944 
L 286.984575 152.740971 
L 286.988262 152.729358 
L 287.306603 152.407998 
L 287.323397 152.347542 
L 287.594168 152.075025 
L 287.658533 151.810143 
L 287.726355 151.742052 
L 287.987674 151.409079 
L 287.993668 151.386713 
L 288.300196 151.076106 
L 288.328803 150.954209 
L 288.537908 150.743133 
L 288.661281 150.41016 
L 288.663938 150.39985 
L 288.97906 150.077188 
L 288.999073 149.988653 
L 289.23922 149.744215 
L 289.332185 149.411242 
L 289.334208 149.403031 
L 289.646311 149.078269 
L 289.669343 148.97204 
L 289.889272 148.745296 
L 289.999007 148.412323 
L 290.004478 148.388913 
L 290.294587 148.07935 
L 290.339614 147.86142 
L 290.449007 147.746377 
L 290.648255 147.413404 
L 290.674749 147.29226 
L 290.865516 147.080431 
L 290.984761 146.747458 
L 291.009884 146.632863 
L 291.185167 146.414485 
L 291.285099 146.081512 
L 291.345019 145.763504 
L 291.354056 145.748539 
L 291.345019 145.669819 
L 291.009884 145.473763 
L 290.674749 145.672188 
L 290.595978 145.748539 
L 290.339614 145.902481 
L 290.15825 146.081512 
L 290.004478 146.18977 
L 289.779051 146.414485 
L 289.669343 146.504169 
L 289.42646 146.747458 
L 289.334208 146.834517 
L 289.089188 147.080431 
L 288.999073 147.178258 
L 288.764861 147.413404 
L 288.663938 147.539167 
L 288.457441 147.746377 
L 288.328803 147.930149 
L 288.179972 148.07935 
L 287.993668 148.384259 
L 287.965642 148.412323 
L 287.662803 148.745296 
L 287.658533 148.751601 
L 287.3343 149.078269 
L 287.323397 149.096708 
L 287.010631 149.411242 
L 286.988262 149.454555 
L 286.699708 149.744215 
L 286.653127 149.847446 
L 286.42388 150.077188 
L 286.317992 150.345759 
L 286.253634 150.41016 
L 285.986592 150.743133 
L 285.982857 150.751694 
L 285.660631 151.076106 
L 285.647722 151.109949 
L 285.34992 151.409079 
L 285.312587 151.521036 
L 285.092116 151.742052 
L 284.977951 152.075025 
L 284.977451 152.07638 
L 284.649218 152.407998 
L 284.642316 152.429411 
L 284.332987 152.740971 
L 284.307181 152.8325 
L 284.066848 153.073944 
L 283.972473 153.406917 
L 283.972046 153.408289 
L 283.645193 153.73989 
L 283.636911 153.770312 
L 283.337502 154.072863 
L 283.301776 154.22279 
L 283.120035 154.405836 
L 282.96998 154.738809 
L 282.966641 154.751548 
L 282.652552 155.071782 
L 282.631505 155.163377 
L 282.393556 155.404755 
L 282.298184 155.737728 
L 282.29637 155.744948 
L 281.98124 156.070701 
L 281.961235 156.161308 
L 281.72492 156.403674 
L 281.629223 156.736647 
L 281.6261 156.749708 
L 281.323176 157.06962 
L 281.290965 157.222309 
L 281.118135 157.402593 
L 280.969713 157.735566 
L 280.95583 157.797264 
L 280.70747 158.068539 
L 280.626188 158.401512 
L 280.620695 158.425431 
L 280.363552 158.734485 
L 280.290387 159.067458 
L 280.28556 159.090588 
L 280.079681 159.400431 
L 280.025006 159.733404 
L 280.267369 160.066377 
L 280.28556 160.070977 
z
" clip-path="url(#p1cb9cb469e)" style="fill: none; stroke-dasharray: 2.25,3.7125; stroke-dashoffset: 0; stroke: #ff0000; stroke-width: 2.25"/>
    <path d="M 280.95583 159.215172 
L 281.141199 159.067458 
L 281.290965 159.011603 
L 281.598567 158.734485 
L 281.6261 158.720927 
L 281.95964 158.401512 
L 281.961235 158.400542 
L 282.29637 158.074212 
L 282.302012 158.068539 
L 282.628638 157.735566 
L 282.631505 157.733127 
L 282.958385 157.402593 
L 282.966641 157.394447 
L 283.287093 157.06962 
L 283.301776 157.052916 
L 283.613828 156.736647 
L 283.636911 156.706475 
L 283.93611 156.403674 
L 283.972046 156.349816 
L 284.248405 156.070701 
L 284.307181 155.969812 
L 284.537483 155.737728 
L 284.642316 155.531754 
L 284.768611 155.404755 
L 284.974697 155.071782 
L 284.977451 155.066883 
L 285.300473 154.738809 
L 285.312587 154.714161 
L 285.61721 154.405836 
L 285.647722 154.334844 
L 285.907362 154.072863 
L 285.982857 153.872 
L 286.114142 153.73989 
L 286.314029 153.406917 
L 286.317992 153.39735 
L 286.635856 153.073944 
L 286.653127 153.026325 
L 286.934784 152.740971 
L 286.988262 152.572515 
L 287.151234 152.407998 
L 287.319436 152.075025 
L 287.323397 152.063671 
L 287.637548 151.742052 
L 287.658533 151.673438 
L 287.918207 151.409079 
L 287.993668 151.127485 
L 288.044372 151.076106 
L 288.316655 150.743133 
L 288.328803 150.701732 
L 288.611501 150.41016 
L 288.663938 150.206642 
L 288.790367 150.077188 
L 288.987166 149.744215 
L 288.999073 149.701638 
L 289.274982 149.411242 
L 289.334208 149.170911 
L 289.423239 149.078269 
L 289.645778 148.745296 
L 289.669343 148.655943 
L 289.893535 148.412323 
L 289.995645 148.07935 
L 290.004478 148.046777 
L 290.257228 147.746377 
L 290.339049 147.413404 
L 290.339614 147.411158 
L 290.565284 147.080431 
L 290.638109 146.747458 
L 290.674749 146.49277 
L 290.700345 146.414485 
L 290.674749 146.36888 
L 290.339614 146.351448 
L 290.270525 146.414485 
L 290.004478 146.546571 
L 289.795398 146.747458 
L 289.669343 146.823795 
L 289.409419 147.080431 
L 289.334208 147.134486 
L 289.05564 147.413404 
L 288.999073 147.460918 
L 288.715835 147.746377 
L 288.663938 147.796872 
L 288.384324 148.07935 
L 288.328803 148.141596 
L 288.060842 148.412323 
L 287.993668 148.49883 
L 287.749447 148.745296 
L 287.658533 148.879539 
L 287.461284 149.078269 
L 287.323397 149.311482 
L 287.224198 149.411242 
L 286.991464 149.744215 
L 286.988262 149.749111 
L 286.665173 150.077188 
L 286.653127 150.098281 
L 286.345058 150.41016 
L 286.317992 150.464389 
L 286.041854 150.743133 
L 285.982857 150.87835 
L 285.786433 151.076106 
L 285.648263 151.409079 
L 285.647722 151.410205 
L 285.321804 151.742052 
L 285.312587 151.763945 
L 285.005791 152.075025 
L 284.977451 152.151949 
L 284.724016 152.407998 
L 284.642316 152.661462 
L 284.563377 152.740971 
L 284.31414 153.073944 
L 284.307181 153.093556 
L 283.99978 153.406917 
L 283.972046 153.496131 
L 283.731777 153.73989 
L 283.637185 154.072863 
L 283.636911 154.073668 
L 283.315544 154.405836 
L 283.301776 154.45192 
L 283.022128 154.738809 
L 282.966641 154.950507 
L 282.847693 155.071782 
L 282.642247 155.404755 
L 282.631505 155.442374 
L 282.348538 155.737728 
L 282.29637 155.945372 
L 282.175128 156.070701 
L 281.977615 156.403674 
L 281.961235 156.464234 
L 281.707219 156.736647 
L 281.626443 157.06962 
L 281.6261 157.070836 
L 281.339042 157.402593 
L 281.290965 157.593046 
L 281.163685 157.735566 
L 281.002635 158.068539 
L 280.95583 158.254783 
L 280.840254 158.401512 
L 280.725012 158.734485 
L 280.717552 159.067458 
L 280.95583 159.215172 
z
" clip-path="url(#p1cb9cb469e)" style="fill: none; stroke-dasharray: 2.25,3.7125; stroke-dashoffset: 0; stroke: #ff0000; stroke-width: 2.25"/>
   </g>
   <g id="patch_3">
    <path d="M 59.766641 359.517188 
L 59.766641 26.877188 
" style="fill: none; stroke: #000000; stroke-width: 1.875; stroke-linejoin: miter; stroke-linecap: square"/>
   </g>
   <g id="patch_4">
    <path d="M 394.566641 359.517188 
L 394.566641 26.877188 
" style="fill: none; stroke: #000000; stroke-width: 1.875; stroke-linejoin: miter; stroke-linecap: square"/>
   </g>
   <g id="patch_5">
    <path d="M 59.766641 359.517188 
L 394.566641 359.517188 
" style="fill: none; stroke: #000000; stroke-width: 1.875; stroke-linejoin: miter; stroke-linecap: square"/>
   </g>
   <g id="patch_6">
    <path d="M 59.766641 26.877187 
L 394.566641 26.877187 
" style="fill: none; stroke: #000000; stroke-width: 1.875; stroke-linejoin: miter; stroke-linecap: square"/>
   </g>
   <g id="text_15">
    <!-- Iteration 7 -->
    <g transform="translate(180.404609 20.877187) scale(0.18 -0.18)">
     <defs>
      <path id="DejaVuSans-49" d="M 628 4666 
L 1259 4666 
L 1259 0 
L 628 0 
L 628 4666 
z
" transform="scale(0.015625)"/>
      <path id="DejaVuSans-74" d="M 1172 4494 
L 1172 3500 
L 2356 3500 
L 2356 3053 
L 1172 3053 
L 1172 1153 
Q 1172 725 1289 603 
Q 1406 481 1766 481 
L 2356 481 
L 2356 0 
L 1766 0 
Q 1100 0 847 248 
Q 594 497 594 1153 
L 594 3053 
L 172 3053 
L 172 3500 
L 594 3500 
L 594 4494 
L 1172 4494 
z
" transform="scale(0.015625)"/>
      <path id="DejaVuSans-65" d="M 3597 1894 
L 3597 1613 
L 953 1613 
Q 991 1019 1311 708 
Q 1631 397 2203 397 
Q 2534 397 2845 478 
Q 3156 559 3463 722 
L 3463 178 
Q 3153 47 2828 -22 
Q 2503 -91 2169 -91 
Q 1331 -91 842 396 
Q 353 884 353 1716 
Q 353 2575 817 3079 
Q 1281 3584 2069 3584 
Q 2775 3584 3186 3129 
Q 3597 2675 3597 1894 
z
M 3022 2063 
Q 3016 2534 2758 2815 
Q 2500 3097 2075 3097 
Q 1594 3097 1305 2825 
Q 1016 2553 972 2059 
L 3022 2063 
z
" transform="scale(0.015625)"/>
      <path id="DejaVuSans-72" d="M 2631 2963 
Q 2534 3019 2420 3045 
Q 2306 3072 2169 3072 
Q 1681 3072 1420 2755 
Q 1159 2438 1159 1844 
L 1159 0 
L 581 0 
L 581 3500 
L 1159 3500 
L 1159 2956 
Q 1341 3275 1631 3429 
Q 1922 3584 2338 3584 
Q 2397 3584 2469 3576 
Q 2541 3569 2628 3553 
L 2631 2963 
z
" transform="scale(0.015625)"/>
      <path id="DejaVuSans-61" d="M 2194 1759 
Q 1497 1759 1228 1600 
Q 959 1441 959 1056 
Q 959 750 1161 570 
Q 1363 391 1709 391 
Q 2188 391 2477 730 
Q 2766 1069 2766 1631 
L 2766 1759 
L 2194 1759 
z
M 3341 1997 
L 3341 0 
L 2766 0 
L 2766 531 
Q 2569 213 2275 61 
Q 1981 -91 1556 -91 
Q 1019 -91 701 211 
Q 384 513 384 1019 
Q 384 1609 779 1909 
Q 1175 2209 1959 2209 
L 2766 2209 
L 2766 2266 
Q 2766 2663 2505 2880 
Q 2244 3097 1772 3097 
Q 1472 3097 1187 3025 
Q 903 2953 641 2809 
L 641 3341 
Q 956 3463 1253 3523 
Q 1550 3584 1831 3584 
Q 2591 3584 2966 3190 
Q 3341 2797 3341 1997 
z
" transform="scale(0.015625)"/>
      <path id="DejaVuSans-69" d="M 603 3500 
L 1178 3500 
L 1178 0 
L 603 0 
L 603 3500 
z
M 603 4863 
L 1178 4863 
L 1178 4134 
L 603 4134 
L 603 4863 
z
" transform="scale(0.015625)"/>
      <path id="DejaVuSans-6f" d="M 1959 3097 
Q 1497 3097 1228 2736 
Q 959 2375 959 1747 
Q 959 1119 1226 758 
Q 1494 397 1959 397 
Q 2419 397 2687 759 
Q 2956 1122 2956 1747 
Q 2956 2369 2687 2733 
Q 2419 3097 1959 3097 
z
M 1959 3584 
Q 2709 3584 3137 3096 
Q 3566 2609 3566 1747 
Q 3566 888 3137 398 
Q 2709 -91 1959 -91 
Q 1206 -91 779 398 
Q 353 888 353 1747 
Q 353 2609 779 3096 
Q 1206 3584 1959 3584 
z
" transform="scale(0.015625)"/>
      <path id="DejaVuSans-6e" d="M 3513 2113 
L 3513 0 
L 2938 0 
L 2938 2094 
Q 2938 2591 2744 2837 
Q 2550 3084 2163 3084 
Q 1697 3084 1428 2787 
Q 1159 2491 1159 1978 
L 1159 0 
L 581 0 
L 581 3500 
L 1159 3500 
L 1159 2956 
Q 1366 3272 1645 3428 
Q 1925 3584 2291 3584 
Q 2894 3584 3203 3211 
Q 3513 2838 3513 2113 
z
" transform="scale(0.015625)"/>
      <path id="DejaVuSans-20" transform="scale(0.015625)"/>
      <path id="DejaVuSans-37" d="M 525 4666 
L 3525 4666 
L 3525 4397 
L 1831 0 
L 1172 0 
L 2766 4134 
L 525 4134 
L 525 4666 
z
" transform="scale(0.015625)"/>
     </defs>
     <use xlink:href="#DejaVuSans-49"/>
     <use xlink:href="#DejaVuSans-74" x="29.492188"/>
     <use xlink:href="#DejaVuSans-65" x="68.701172"/>
     <use xlink:href="#DejaVuSans-72" x="130.224609"/>
     <use xlink:href="#DejaVuSans-61" x="171.337891"/>
     <use xlink:href="#DejaVuSans-74" x="232.617188"/>
     <use xlink:href="#DejaVuSans-69" x="271.826172"/>
     <use xlink:href="#DejaVuSans-6f" x="299.609375"/>
     <use xlink:href="#DejaVuSans-6e" x="360.791016"/>
     <use xlink:href="#DejaVuSans-20" x="424.169922"/>
     <use xlink:href="#DejaVuSans-37" x="455.957031"/>
    </g>
   </g>
   <g id="text_16">
    <g clip-path="url(#p1cb9cb469e)">
     <!-- 1 -->
     <g style="fill: #fde725" transform="translate(288.155885 145.936074) rotate(-55.675721) scale(0.1 -0.1)">
      <use xlink:href="#DejaVuSans-31"/>
     </g>
    </g>
   </g>
   <g id="text_17">
    <g clip-path="url(#p1cb9cb469e)">
     <!-- 4 -->
     <g style="fill: #b5de2b" transform="translate(318.224892 85.537014) rotate(-64.855421) scale(0.1 -0.1)">
      <defs>
       <path id="DejaVuSans-34" d="M 2419 4116 
L 825 1625 
L 2419 1625 
L 2419 4116 
z
M 2253 4666 
L 3047 4666 
L 3047 1625 
L 3713 1625 
L 3713 1100 
L 3047 1100 
L 3047 0 
L 2419 0 
L 2419 1100 
L 313 1100 
L 313 1709 
L 2253 4666 
z
" transform="scale(0.015625)"/>
      </defs>
      <use xlink:href="#DejaVuSans-34"/>
     </g>
    </g>
   </g>
   <g id="text_18">
    <g clip-path="url(#p1cb9cb469e)">
     <!-- 13 -->
     <g style="fill: #6ece58" transform="translate(113.096851 23.999967) rotate(-291.889393) scale(0.1 -0.1)">
      <defs>
       <path id="DejaVuSans-33" d="M 2597 2516 
Q 3050 2419 3304 2112 
Q 3559 1806 3559 1356 
Q 3559 666 3084 287 
Q 2609 -91 1734 -91 
Q 1441 -91 1130 -33 
Q 819 25 488 141 
L 488 750 
Q 750 597 1062 519 
Q 1375 441 1716 441 
Q 2309 441 2620 675 
Q 2931 909 2931 1356 
Q 2931 1769 2642 2001 
Q 2353 2234 1838 2234 
L 1294 2234 
L 1294 2753 
L 1863 2753 
Q 2328 2753 2575 2939 
Q 2822 3125 2822 3475 
Q 2822 3834 2567 4026 
Q 2313 4219 1838 4219 
Q 1578 4219 1281 4162 
Q 984 4106 628 3988 
L 628 4550 
Q 988 4650 1302 4700 
Q 1616 4750 1894 4750 
Q 2613 4750 3031 4423 
Q 3450 4097 3450 3541 
Q 3450 3153 3228 2886 
Q 3006 2619 2597 2516 
z
" transform="scale(0.015625)"/>
      </defs>
      <use xlink:href="#DejaVuSans-31"/>
      <use xlink:href="#DejaVuSans-33" x="63.623047"/>
     </g>
    </g>
   </g>
   <g id="text_19">
    <g clip-path="url(#p1cb9cb469e)">
     <!-- 13 -->
     <g style="fill: #6ece58" transform="translate(346.796573 61.299219) rotate(-70.600511) scale(0.1 -0.1)">
      <use xlink:href="#DejaVuSans-31"/>
      <use xlink:href="#DejaVuSans-33" x="63.623047"/>
     </g>
    </g>
   </g>
   <g id="text_20">
    <g clip-path="url(#p1cb9cb469e)">
     <!-- 46 -->
     <g style="fill: #35b779" transform="translate(318.674001 43.751769) rotate(-65.297236) scale(0.1 -0.1)">
      <defs>
       <path id="DejaVuSans-36" d="M 2113 2584 
Q 1688 2584 1439 2293 
Q 1191 2003 1191 1497 
Q 1191 994 1439 701 
Q 1688 409 2113 409 
Q 2538 409 2786 701 
Q 3034 994 3034 1497 
Q 3034 2003 2786 2293 
Q 2538 2584 2113 2584 
z
M 3366 4563 
L 3366 3988 
Q 3128 4100 2886 4159 
Q 2644 4219 2406 4219 
Q 1781 4219 1451 3797 
Q 1122 3375 1075 2522 
Q 1259 2794 1537 2939 
Q 1816 3084 2150 3084 
Q 2853 3084 3261 2657 
Q 3669 2231 3669 1497 
Q 3669 778 3244 343 
Q 2819 -91 2113 -91 
Q 1303 -91 875 529 
Q 447 1150 447 2328 
Q 447 3434 972 4092 
Q 1497 4750 2381 4750 
Q 2619 4750 2861 4703 
Q 3103 4656 3366 4563 
z
" transform="scale(0.015625)"/>
      </defs>
      <use xlink:href="#DejaVuSans-34"/>
      <use xlink:href="#DejaVuSans-36" x="63.623047"/>
     </g>
    </g>
   </g>
   <g id="text_21">
    <g clip-path="url(#p1cb9cb469e)">
     <!-- 46 -->
     <g style="fill: #35b779" transform="translate(97.700294 55.770923) rotate(-288.420927) scale(0.1 -0.1)">
      <use xlink:href="#DejaVuSans-34"/>
      <use xlink:href="#DejaVuSans-36" x="63.623047"/>
     </g>
    </g>
   </g>
   <g id="text_22">
    <g clip-path="url(#p1cb9cb469e)">
     <!-- 167 -->
     <g style="fill: #1f9e89" transform="translate(290.184875 43.849168) rotate(-57.288295) scale(0.1 -0.1)">
      <use xlink:href="#DejaVuSans-31"/>
      <use xlink:href="#DejaVuSans-36" x="63.623047"/>
      <use xlink:href="#DejaVuSans-37" x="127.246094"/>
     </g>
    </g>
   </g>
   <g id="text_23">
    <g clip-path="url(#p1cb9cb469e)">
     <!-- 167 -->
     <g style="fill: #1f9e89" transform="translate(374.209329 53.793422) rotate(-74.03457) scale(0.1 -0.1)">
      <use xlink:href="#DejaVuSans-31"/>
      <use xlink:href="#DejaVuSans-36" x="63.623047"/>
      <use xlink:href="#DejaVuSans-37" x="127.246094"/>
     </g>
    </g>
   </g>
   <g id="text_24">
    <g clip-path="url(#p1cb9cb469e)">
     <!-- 599 -->
     <g style="fill: #26828e" transform="translate(57.564768 65.261256) rotate(-284.315487) scale(0.1 -0.1)">
      <defs>
       <path id="DejaVuSans-39" d="M 703 97 
L 703 672 
Q 941 559 1184 500 
Q 1428 441 1663 441 
Q 2288 441 2617 861 
Q 2947 1281 2994 2138 
Q 2813 1869 2534 1725 
Q 2256 1581 1919 1581 
Q 1219 1581 811 2004 
Q 403 2428 403 3163 
Q 403 3881 828 4315 
Q 1253 4750 1959 4750 
Q 2769 4750 3195 4129 
Q 3622 3509 3622 2328 
Q 3622 1225 3098 567 
Q 2575 -91 1691 -91 
Q 1453 -91 1209 -44 
Q 966 3 703 97 
z
M 1959 2075 
Q 2384 2075 2632 2365 
Q 2881 2656 2881 3163 
Q 2881 3666 2632 3958 
Q 2384 4250 1959 4250 
Q 1534 4250 1286 3958 
Q 1038 3666 1038 3163 
Q 1038 2656 1286 2365 
Q 1534 2075 1959 2075 
z
" transform="scale(0.015625)"/>
      </defs>
      <use xlink:href="#DejaVuSans-35"/>
      <use xlink:href="#DejaVuSans-39" x="63.623047"/>
      <use xlink:href="#DejaVuSans-39" x="127.246094"/>
     </g>
    </g>
   </g>
   <g id="text_25">
    <g clip-path="url(#p1cb9cb469e)">
     <!-- 599 -->
     <g style="fill: #26828e" transform="translate(394.010444 77.429179) rotate(-75.756627) scale(0.1 -0.1)">
      <use xlink:href="#DejaVuSans-35"/>
      <use xlink:href="#DejaVuSans-39" x="63.623047"/>
      <use xlink:href="#DejaVuSans-39" x="127.246094"/>
     </g>
    </g>
   </g>
   <g id="text_26">
    <g clip-path="url(#p1cb9cb469e)">
     <!-- 2154 -->
     <g style="fill: #31688e" transform="translate(56.276387 243.317291) rotate(-284.327359) scale(0.1 -0.1)">
      <use xlink:href="#DejaVuSans-32"/>
      <use xlink:href="#DejaVuSans-31" x="63.623047"/>
      <use xlink:href="#DejaVuSans-35" x="127.246094"/>
      <use xlink:href="#DejaVuSans-34" x="190.869141"/>
     </g>
    </g>
   </g>
   <g id="text_27">
    <g clip-path="url(#p1cb9cb469e)">
     <!-- 2154 -->
     <g style="fill: #31688e" transform="translate(392.962031 263.980352) rotate(-75.708056) scale(0.1 -0.1)">
      <use xlink:href="#DejaVuSans-32"/>
      <use xlink:href="#DejaVuSans-31" x="63.623047"/>
      <use xlink:href="#DejaVuSans-35" x="127.246094"/>
      <use xlink:href="#DejaVuSans-34" x="190.869141"/>
     </g>
    </g>
   </g>
  </g>
 </g>
 <defs>
  <clipPath id="p1cb9cb469e">
   <rect x="59.766641" y="26.877187" width="334.8" height="332.64"/>
  </clipPath>
 </defs>
</svg>
