<?xml version="1.0" encoding="utf-8" standalone="no"?>
<!DOCTYPE svg PUBLIC "-//W3C//DTD SVG 1.1//EN"
  "http://www.w3.org/Graphics/SVG/1.1/DTD/svg11.dtd">
<svg xmlns:xlink="http://www.w3.org/1999/xlink" width="407.015703pt" height="395.186094pt" viewBox="0 0 407.015703 395.186094" xmlns="http://www.w3.org/2000/svg" version="1.1">
 <metadata>
  <rdf:RDF xmlns:dc="http://purl.org/dc/elements/1.1/" xmlns:cc="http://creativecommons.org/ns#" xmlns:rdf="http://www.w3.org/1999/02/22-rdf-syntax-ns#">
   <cc:Work>
    <dc:type rdf:resource="http://purl.org/dc/dcmitype/StillImage"/>
    <dc:date>2024-02-25T21:28:45.450188</dc:date>
    <dc:format>image/svg+xml</dc:format>
    <dc:creator>
     <cc:Agent>
      <dc:title>Matplotlib v3.8.2, https://matplotlib.org/</dc:title>
     </cc:Agent>
    </dc:creator>
   </cc:Work>
  </rdf:RDF>
 </metadata>
 <defs>
  <style type="text/css">*{stroke-linejoin: round; stroke-linecap: butt}</style>
 </defs>
 <g id="figure_1">
  <g id="patch_1">
   <path d="M 0 395.186094 
L 407.015703 395.186094 
L 407.015703 0 
L 0 0 
z
" style="fill: #ffffff"/>
  </g>
  <g id="axes_1">
   <g id="patch_2">
    <path d="M 59.766641 359.517188 
L 394.566641 359.517188 
L 394.566641 26.877187 
L 59.766641 26.877187 
z
" style="fill: #ffffff"/>
   </g>
   <g id="matplotlib.axis_1">
    <g id="xtick_1">
     <g id="line2d_1">
      <defs>
       <path id="m062faf4a33" d="M 0 0 
L 0 9 
" style="stroke: #000000; stroke-width: 1.875"/>
      </defs>
      <g>
       <use xlink:href="#m062faf4a33" x="59.766641" y="359.517188" style="stroke: #000000; stroke-width: 1.875"/>
      </g>
     </g>
     <g id="text_1">
      <!-- −2 -->
      <g transform="translate(47.604336 384.554609) scale(0.165 -0.165)">
       <defs>
        <path id="DejaVuSans-2212" d="M 678 2272 
L 4684 2272 
L 4684 1741 
L 678 1741 
L 678 2272 
z
" transform="scale(0.015625)"/>
        <path id="DejaVuSans-32" d="M 1228 531 
L 3431 531 
L 3431 0 
L 469 0 
L 469 531 
Q 828 903 1448 1529 
Q 2069 2156 2228 2338 
Q 2531 2678 2651 2914 
Q 2772 3150 2772 3378 
Q 2772 3750 2511 3984 
Q 2250 4219 1831 4219 
Q 1534 4219 1204 4116 
Q 875 4013 500 3803 
L 500 4441 
Q 881 4594 1212 4672 
Q 1544 4750 1819 4750 
Q 2544 4750 2975 4387 
Q 3406 4025 3406 3419 
Q 3406 3131 3298 2873 
Q 3191 2616 2906 2266 
Q 2828 2175 2409 1742 
Q 1991 1309 1228 531 
z
" transform="scale(0.015625)"/>
       </defs>
       <use xlink:href="#DejaVuSans-2212"/>
       <use xlink:href="#DejaVuSans-32" x="83.789062"/>
      </g>
     </g>
    </g>
    <g id="xtick_2">
     <g id="line2d_2">
      <g>
       <use xlink:href="#m062faf4a33" x="143.466641" y="359.517188" style="stroke: #000000; stroke-width: 1.875"/>
      </g>
     </g>
     <g id="text_2">
      <!-- −1 -->
      <g transform="translate(131.304336 384.554609) scale(0.165 -0.165)">
       <defs>
        <path id="DejaVuSans-31" d="M 794 531 
L 1825 531 
L 1825 4091 
L 703 3866 
L 703 4441 
L 1819 4666 
L 2450 4666 
L 2450 531 
L 3481 531 
L 3481 0 
L 794 0 
L 794 531 
z
" transform="scale(0.015625)"/>
       </defs>
       <use xlink:href="#DejaVuSans-2212"/>
       <use xlink:href="#DejaVuSans-31" x="83.789062"/>
      </g>
     </g>
    </g>
    <g id="xtick_3">
     <g id="line2d_3">
      <g>
       <use xlink:href="#m062faf4a33" x="227.166641" y="359.517188" style="stroke: #000000; stroke-width: 1.875"/>
      </g>
     </g>
     <g id="text_3">
      <!-- 0 -->
      <g transform="translate(221.917578 384.554609) scale(0.165 -0.165)">
       <defs>
        <path id="DejaVuSans-30" d="M 2034 4250 
Q 1547 4250 1301 3770 
Q 1056 3291 1056 2328 
Q 1056 1369 1301 889 
Q 1547 409 2034 409 
Q 2525 409 2770 889 
Q 3016 1369 3016 2328 
Q 3016 3291 2770 3770 
Q 2525 4250 2034 4250 
z
M 2034 4750 
Q 2819 4750 3233 4129 
Q 3647 3509 3647 2328 
Q 3647 1150 3233 529 
Q 2819 -91 2034 -91 
Q 1250 -91 836 529 
Q 422 1150 422 2328 
Q 422 3509 836 4129 
Q 1250 4750 2034 4750 
z
" transform="scale(0.015625)"/>
       </defs>
       <use xlink:href="#DejaVuSans-30"/>
      </g>
     </g>
    </g>
    <g id="xtick_4">
     <g id="line2d_4">
      <g>
       <use xlink:href="#m062faf4a33" x="310.866641" y="359.517188" style="stroke: #000000; stroke-width: 1.875"/>
      </g>
     </g>
     <g id="text_4">
      <!-- 1 -->
      <g transform="translate(305.617578 384.554609) scale(0.165 -0.165)">
       <use xlink:href="#DejaVuSans-31"/>
      </g>
     </g>
    </g>
    <g id="xtick_5">
     <g id="line2d_5">
      <g>
       <use xlink:href="#m062faf4a33" x="394.566641" y="359.517188" style="stroke: #000000; stroke-width: 1.875"/>
      </g>
     </g>
     <g id="text_5">
      <!-- 2 -->
      <g transform="translate(389.317578 384.554609) scale(0.165 -0.165)">
       <use xlink:href="#DejaVuSans-32"/>
      </g>
     </g>
    </g>
   </g>
   <g id="matplotlib.axis_2">
    <g id="ytick_1">
     <g id="line2d_6">
      <defs>
       <path id="m953b8bb9df" d="M 0 0 
L -9 0 
" style="stroke: #000000; stroke-width: 1.875"/>
      </defs>
      <g>
       <use xlink:href="#m953b8bb9df" x="59.766641" y="359.517188" style="stroke: #000000; stroke-width: 1.875"/>
      </g>
     </g>
     <g id="text_6">
      <!-- −2.0 -->
      <g transform="translate(7.2 365.785898) scale(0.165 -0.165)">
       <defs>
        <path id="DejaVuSans-2e" d="M 684 794 
L 1344 794 
L 1344 0 
L 684 0 
L 684 794 
z
" transform="scale(0.015625)"/>
       </defs>
       <use xlink:href="#DejaVuSans-2212"/>
       <use xlink:href="#DejaVuSans-32" x="83.789062"/>
       <use xlink:href="#DejaVuSans-2e" x="147.412109"/>
       <use xlink:href="#DejaVuSans-30" x="179.199219"/>
      </g>
     </g>
    </g>
    <g id="ytick_2">
     <g id="line2d_7">
      <g>
       <use xlink:href="#m953b8bb9df" x="59.766641" y="317.937188" style="stroke: #000000; stroke-width: 1.875"/>
      </g>
     </g>
     <g id="text_7">
      <!-- −1.5 -->
      <g transform="translate(7.2 324.205898) scale(0.165 -0.165)">
       <defs>
        <path id="DejaVuSans-35" d="M 691 4666 
L 3169 4666 
L 3169 4134 
L 1269 4134 
L 1269 2991 
Q 1406 3038 1543 3061 
Q 1681 3084 1819 3084 
Q 2600 3084 3056 2656 
Q 3513 2228 3513 1497 
Q 3513 744 3044 326 
Q 2575 -91 1722 -91 
Q 1428 -91 1123 -41 
Q 819 9 494 109 
L 494 744 
Q 775 591 1075 516 
Q 1375 441 1709 441 
Q 2250 441 2565 725 
Q 2881 1009 2881 1497 
Q 2881 1984 2565 2268 
Q 2250 2553 1709 2553 
Q 1456 2553 1204 2497 
Q 953 2441 691 2322 
L 691 4666 
z
" transform="scale(0.015625)"/>
       </defs>
       <use xlink:href="#DejaVuSans-2212"/>
       <use xlink:href="#DejaVuSans-31" x="83.789062"/>
       <use xlink:href="#DejaVuSans-2e" x="147.412109"/>
       <use xlink:href="#DejaVuSans-35" x="179.199219"/>
      </g>
     </g>
    </g>
    <g id="ytick_3">
     <g id="line2d_8">
      <g>
       <use xlink:href="#m953b8bb9df" x="59.766641" y="276.357188" style="stroke: #000000; stroke-width: 1.875"/>
      </g>
     </g>
     <g id="text_8">
      <!-- −1.0 -->
      <g transform="translate(7.2 282.625898) scale(0.165 -0.165)">
       <use xlink:href="#DejaVuSans-2212"/>
       <use xlink:href="#DejaVuSans-31" x="83.789062"/>
       <use xlink:href="#DejaVuSans-2e" x="147.412109"/>
       <use xlink:href="#DejaVuSans-30" x="179.199219"/>
      </g>
     </g>
    </g>
    <g id="ytick_4">
     <g id="line2d_9">
      <g>
       <use xlink:href="#m953b8bb9df" x="59.766641" y="234.777188" style="stroke: #000000; stroke-width: 1.875"/>
      </g>
     </g>
     <g id="text_9">
      <!-- −0.5 -->
      <g transform="translate(7.2 241.045898) scale(0.165 -0.165)">
       <use xlink:href="#DejaVuSans-2212"/>
       <use xlink:href="#DejaVuSans-30" x="83.789062"/>
       <use xlink:href="#DejaVuSans-2e" x="147.412109"/>
       <use xlink:href="#DejaVuSans-35" x="179.199219"/>
      </g>
     </g>
    </g>
    <g id="ytick_5">
     <g id="line2d_10">
      <g>
       <use xlink:href="#m953b8bb9df" x="59.766641" y="193.197188" style="stroke: #000000; stroke-width: 1.875"/>
      </g>
     </g>
     <g id="text_10">
      <!-- 0.0 -->
      <g transform="translate(21.026484 199.465898) scale(0.165 -0.165)">
       <use xlink:href="#DejaVuSans-30"/>
       <use xlink:href="#DejaVuSans-2e" x="63.623047"/>
       <use xlink:href="#DejaVuSans-30" x="95.410156"/>
      </g>
     </g>
    </g>
    <g id="ytick_6">
     <g id="line2d_11">
      <g>
       <use xlink:href="#m953b8bb9df" x="59.766641" y="151.617188" style="stroke: #000000; stroke-width: 1.875"/>
      </g>
     </g>
     <g id="text_11">
      <!-- 0.5 -->
      <g transform="translate(21.026484 157.885898) scale(0.165 -0.165)">
       <use xlink:href="#DejaVuSans-30"/>
       <use xlink:href="#DejaVuSans-2e" x="63.623047"/>
       <use xlink:href="#DejaVuSans-35" x="95.410156"/>
      </g>
     </g>
    </g>
    <g id="ytick_7">
     <g id="line2d_12">
      <g>
       <use xlink:href="#m953b8bb9df" x="59.766641" y="110.037188" style="stroke: #000000; stroke-width: 1.875"/>
      </g>
     </g>
     <g id="text_12">
      <!-- 1.0 -->
      <g transform="translate(21.026484 116.305898) scale(0.165 -0.165)">
       <use xlink:href="#DejaVuSans-31"/>
       <use xlink:href="#DejaVuSans-2e" x="63.623047"/>
       <use xlink:href="#DejaVuSans-30" x="95.410156"/>
      </g>
     </g>
    </g>
    <g id="ytick_8">
     <g id="line2d_13">
      <g>
       <use xlink:href="#m953b8bb9df" x="59.766641" y="68.457188" style="stroke: #000000; stroke-width: 1.875"/>
      </g>
     </g>
     <g id="text_13">
      <!-- 1.5 -->
      <g transform="translate(21.026484 74.725898) scale(0.165 -0.165)">
       <use xlink:href="#DejaVuSans-31"/>
       <use xlink:href="#DejaVuSans-2e" x="63.623047"/>
       <use xlink:href="#DejaVuSans-35" x="95.410156"/>
      </g>
     </g>
    </g>
    <g id="ytick_9">
     <g id="line2d_14">
      <g>
       <use xlink:href="#m953b8bb9df" x="59.766641" y="26.877188" style="stroke: #000000; stroke-width: 1.875"/>
      </g>
     </g>
     <g id="text_14">
      <!-- 2.0 -->
      <g transform="translate(21.026484 33.145898) scale(0.165 -0.165)">
       <use xlink:href="#DejaVuSans-32"/>
       <use xlink:href="#DejaVuSans-2e" x="63.623047"/>
       <use xlink:href="#DejaVuSans-30" x="95.410156"/>
      </g>
     </g>
    </g>
   </g>
   <g id="QuadContourSet_1">
    <path d="M 348.15119 26.877188 
L 344.797773 36.533404 
L 341.586251 45.523674 
L 332.77072 68.831782 
L 328.613539 79.153944 
L 325.834779 85.813404 
L 318.802758 101.796106 
L 312.311974 115.447998 
L 308.772046 122.460292 
L 302.691807 133.761512 
L 298.047722 141.776476 
L 292.865758 150.077188 
L 289.527633 155.071782 
L 286.229213 159.733404 
L 282.717822 164.395025 
L 279.502795 168.390701 
L 276.054784 172.386377 
L 272.638819 176.049079 
L 269.561235 179.094467 
L 266.209884 182.134248 
L 262.858533 184.885477 
L 259.507181 187.347698 
L 256.396939 189.367998 
L 253.139614 191.208867 
L 250.458533 192.5112 
L 247.567911 193.696647 
L 244.761235 194.621453 
L 242.080154 195.293155 
L 239.399073 195.747859 
L 236.717992 195.970044 
L 234.372046 195.9536 
L 231.939455 195.694485 
L 230.015289 195.246111 
L 228.581318 194.695566 
L 227.589556 194.02962 
L 227.183649 193.363674 
L 227.183515 193.030701 
L 227.334208 192.677073 
L 228.004478 192.017142 
L 229.345019 191.262268 
L 231.690965 190.261575 
L 239.520586 187.037188 
L 242.750424 185.484342 
L 247.188998 183.041512 
L 250.458533 181.00223 
L 254.145019 178.443714 
L 258.166641 175.330264 
L 261.989153 172.053404 
L 265.54332 168.723674 
L 269.469932 164.727998 
L 273.10044 160.732323 
L 277.036796 156.070701 
L 281.290965 150.645618 
L 283.761418 147.310238 
M 291.4285 136.09169 
L 296.036911 128.711268 
L 299.547643 122.773404 
L 305.293106 112.451242 
L 311.453127 100.553209 
L 314.606997 94.137728 
L 320.676186 81.151782 
L 328.086697 64.17016 
L 337.09757 41.860971 
L 342.773012 26.877188 
L 342.773012 26.877188 
" clip-path="url(#p5ab2117aed)" style="fill: none; stroke: #fde725; stroke-width: 2.25"/>
    <path d="M 350.843389 26.877188 
L 346.378103 39.863133 
L 342.95583 49.48866 
L 335.095877 70.496647 
L 330.880308 81.151782 
L 324.188262 97.168214 
L 317.793286 111.452323 
L 312.210649 123.106377 
L 308.673317 130.098809 
L 304.415289 138.114269 
L 299.34357 147.080431 
L 294.909336 154.405836 
L 291.266818 160.066377 
L 287.323397 165.830017 
L 282.966641 171.756165 
L 278.750838 177.047998 
L 275.258533 181.105381 
L 271.572046 185.064375 
L 267.873964 188.702052 
L 264.199073 191.985407 
L 260.843577 194.695566 
L 257.49637 197.123375 
L 254.145019 199.28012 
L 251.060459 201.022052 
L 247.777451 202.619201 
L 244.761235 203.853164 
L 241.745019 204.863903 
L 238.583477 205.683674 
L 235.712587 206.213759 
L 232.69637 206.552339 
L 229.680154 206.667068 
L 226.663938 206.555251 
L 223.647722 206.218868 
L 220.631505 205.657443 
L 217.615289 204.868338 
L 214.599073 203.853223 
L 211.582857 202.611123 
L 208.341444 201.022052 
L 205.215289 199.238329 
L 202.199073 197.284242 
L 198.847722 194.841742 
L 195.790324 192.364755 
L 192.433631 189.367998 
L 189.036836 186.038269 
L 185.611742 182.375566 
L 182.090965 178.288168 
L 178.404478 173.6506 
L 174.543824 168.390701 
L 171.353518 163.729079 
L 167.32244 157.402593 
L 163.210959 150.41016 
L 160.292693 145.082593 
L 156.437147 137.424215 
L 154.754773 133.761512 
L 153.494333 130.764755 
L 152.538744 128.100971 
L 152.224032 126.769079 
L 152.263938 126.14264 
L 152.599073 126.072028 
L 153.604478 126.869983 
L 155.819874 129.432863 
L 157.961235 132.134959 
L 163.658533 139.437438 
L 167.970316 144.74962 
L 173.377451 150.984705 
L 177.203731 155.071782 
L 181.238251 159.067458 
L 185.107181 162.586806 
L 188.893993 165.726917 
L 192.480154 168.418984 
L 195.890793 170.721512 
L 199.211325 172.71935 
L 202.534208 174.476905 
L 206.00327 176.049079 
L 208.901776 177.159201 
L 212.253127 178.207572 
L 215.604478 179.003205 
L 218.95583 179.547169 
L 221.972046 179.819204 
L 224.988262 179.885551 
L 228.004478 179.744708 
L 231.141964 179.378809 
L 234.036911 178.844224 
L 237.388262 177.984835 
L 240.404478 176.99232 
L 243.593239 175.716106 
L 246.436911 174.382454 
L 249.533081 172.71935 
L 252.807179 170.721512 
L 256.201146 168.390701 
L 259.680029 165.726917 
L 262.858533 163.049519 
L 266.545019 159.653584 
L 270.231505 155.944289 
L 274.076058 151.742052 
L 277.939614 147.175641 
L 281.68605 142.418809 
L 285.845858 136.758269 
L 290.004478 130.698476 
L 293.831338 124.771242 
L 298.480911 117.112863 
L 303.074749 109.054388 
L 306.994295 101.796106 
L 312.265131 91.473944 
L 314.173113 87.577278 
M 319.91066 75.357635 
L 323.860659 66.500971 
L 327.717739 57.510701 
L 334.104783 41.860971 
L 339.887362 26.877188 
L 339.887362 26.877188 
" clip-path="url(#p5ab2117aed)" style="fill: none; stroke: #b5de2b; stroke-width: 2.25"/>
    <path d="M 121.768369 38.090259 
L 125.879626 47.854485 
L 130.815289 59.057425 
L 134.865854 67.832863 
L 139.210503 76.823133 
L 143.434962 85.147458 
L 148.43864 94.470701 
L 153.269343 102.919967 
L 157.290965 109.541823 
L 161.312587 115.787833 
L 165.334208 121.658867 
L 169.35583 127.153258 
L 173.234677 132.096647 
L 177.173943 136.758269 
L 180.822819 140.753944 
L 184.448076 144.416647 
L 188.123397 147.817855 
L 191.809884 150.912978 
L 195.49637 153.690842 
L 199.053544 156.070701 
L 202.199073 157.930132 
L 205.713866 159.733404 
L 208.901776 161.120709 
L 211.917992 162.214646 
L 215.269343 163.180726 
L 218.28556 163.825931 
L 221.301776 164.258754 
L 224.317992 164.478876 
L 227.334208 164.486562 
L 230.350424 164.281682 
L 233.366641 163.864162 
L 236.382857 163.233976 
L 239.399073 162.390654 
L 242.415289 161.335326 
L 245.432259 160.066377 
L 248.447722 158.586128 
L 251.799073 156.690711 
L 255.150424 154.533048 
L 258.550234 152.075025 
L 261.873794 149.411242 
L 265.27846 146.414485 
L 268.890965 142.938589 
L 272.577451 139.075866 
L 276.378731 134.760431 
L 280.28556 129.972707 
L 284.233671 124.771242 
L 288.246595 119.110701 
L 292.350424 112.931928 
L 296.394216 106.457728 
L 300.516253 99.465296 
L 305.143411 91.140971 
L 309.514919 82.816647 
L 313.992755 73.826377 
L 319.172944 62.838269 
L 323.517992 53.138301 
L 327.781346 43.192863 
L 333.489767 29.207998 
L 334.412248 26.877188 
M 355.622116 26.877188 
L 349.56893 44.986585 
M 342.962314 63.746968 
L 338.934208 74.668193 
L 332.564565 91.140971 
L 326.534208 105.835742 
L 320.748085 119.110701 
L 315.985986 129.432863 
L 311.78403 138.09016 
L 306.653778 148.07935 
L 302.294674 156.070701 
L 298.047722 163.417919 
L 293.35583 171.028413 
L 288.934802 177.713944 
L 284.922812 183.374485 
L 280.95583 188.590595 
L 276.934208 193.491523 
L 273.201152 197.692323 
L 269.561235 201.465217 
L 265.812093 205.017728 
L 262.188262 208.129832 
L 258.836911 210.726604 
L 255.48556 213.052675 
L 252.134208 215.10799 
L 248.782857 216.892889 
L 245.602114 218.336647 
L 242.415289 219.53867 
L 239.399073 220.450945 
L 236.382857 221.143905 
L 233.366641 221.617844 
L 230.350424 221.872024 
L 227.334208 221.907145 
L 224.317992 221.72294 
L 221.301776 221.319412 
L 218.168755 220.667458 
L 215.269343 219.853218 
L 212.253127 218.791109 
L 209.236911 217.509387 
L 206.215558 216.005836 
L 202.869343 214.082592 
L 199.517992 211.885591 
L 196.075333 209.346377 
L 192.815289 206.678389 
L 189.463938 203.667403 
L 185.75933 200.023133 
L 182.037469 196.027458 
L 178.317313 191.698809 
L 174.598595 187.037188 
L 170.881122 182.042593 
L 167.164753 176.715025 
L 163.323397 170.85764 
L 158.936071 163.729079 
L 154.514011 156.070701 
L 150.253127 148.244551 
L 145.216133 138.423133 
L 140.078694 127.767998 
L 135.669132 118.111782 
L 131.603052 108.788539 
L 127.702167 99.465296 
L 122.768779 87.145296 
L 116.404478 70.36921 
L 109.663389 51.517188 
L 103.138306 32.204755 
L 101.397226 26.877188 
L 101.397226 26.877188 
" clip-path="url(#p5ab2117aed)" style="fill: none; stroke: #6ece58; stroke-width: 2.25"/>
    <path d="M 129.772739 26.877188 
L 134.874924 38.198269 
L 139.528803 47.990185 
L 143.962399 56.844755 
L 148.540632 65.502052 
L 153.018974 73.493404 
L 157.378396 80.818809 
L 161.647722 87.559082 
L 165.669343 93.515752 
L 169.721406 99.132323 
L 173.712587 104.28679 
L 177.463461 108.788539 
L 181.362586 113.117188 
L 184.946332 116.77989 
L 188.495959 120.10962 
L 192.145019 123.223509 
L 195.49637 125.806664 
L 198.847722 128.125359 
L 202.199073 130.17963 
L 205.550424 131.96926 
L 208.901776 133.494178 
L 212.253127 134.754443 
L 215.604478 135.75026 
L 218.648439 136.425296 
L 221.636911 136.87611 
L 224.653127 137.117276 
L 227.669343 137.144317 
L 230.68556 136.957057 
L 233.701776 136.55534 
L 236.717992 135.939282 
L 239.782559 135.093404 
L 242.750424 134.063912 
L 245.858841 132.762593 
L 249.117992 131.154354 
L 252.469343 129.239333 
L 255.820695 127.059425 
L 259.172046 124.615122 
L 262.677736 121.774485 
L 266.040728 118.777728 
L 269.561235 115.355362 
L 273.252944 111.452323 
L 277.032696 107.123674 
L 280.95583 102.274961 
L 284.977451 96.92781 
L 289.038749 91.140971 
L 293.196432 84.814485 
L 297.377451 78.041429 
L 301.573784 70.82962 
L 306.090965 62.602129 
L 310.463118 54.180971 
L 314.591417 45.816548 
M 322.906395 27.749054 
L 323.289802 26.877188 
M 364.145641 26.877188 
L 359.471047 41.860971 
L 354.843558 56.178809 
L 349.813261 71.162593 
L 344.924035 85.147458 
L 339.197925 100.797188 
L 333.819788 114.782052 
L 328.707126 127.435025 
L 324.188262 138.100015 
L 318.8261 150.119569 
L 313.651626 161.065296 
L 309.327391 169.722593 
L 304.941172 178.046917 
L 300.673451 185.705296 
L 296.34302 193.030701 
L 291.936953 200.023133 
L 287.904087 206.016647 
L 283.972046 211.486257 
L 279.950424 216.697722 
L 275.928803 221.522047 
L 272.188268 225.662052 
L 268.55583 229.362483 
L 264.869343 232.794949 
L 261.496078 235.651242 
L 258.012232 238.315025 
L 254.59567 240.645836 
L 251.463938 242.537213 
L 248.097782 244.308539 
L 244.761235 245.796509 
L 241.564767 246.972323 
L 238.728803 247.811148 
L 235.712587 248.492063 
L 232.568143 248.97016 
L 229.680154 249.201086 
L 226.663938 249.229197 
L 223.647722 249.039655 
L 220.631505 248.632632 
L 217.467303 247.971242 
L 214.599073 247.165163 
L 211.582857 246.105094 
L 208.566641 244.827369 
L 205.508248 243.30962 
L 202.199073 241.41525 
L 198.847722 239.229774 
L 195.334811 236.65016 
L 192.067633 233.986377 
L 188.717519 230.98962 
L 185.107181 227.459608 
L 181.420695 223.533161 
L 177.734208 219.281613 
L 173.765712 214.340971 
L 170.0261 209.340996 
L 165.844795 203.352863 
L 161.924346 197.35935 
L 157.826056 190.69989 
L 153.766562 183.707458 
L 149.739971 176.382052 
L 145.561235 168.370697 
L 140.642039 158.401512 
L 136.432313 149.411242 
L 131.681907 138.756106 
L 127.017242 127.767998 
L 122.101776 115.626623 
L 116.392737 100.797188 
L 110.551532 84.814485 
L 105.668338 70.82962 
L 105.507953 70.358588 
M 99.221807 51.488298 
L 93.514991 33.536647 
L 91.458862 26.877188 
L 91.458862 26.877188 
" clip-path="url(#p5ab2117aed)" style="fill: none; stroke: #35b779; stroke-width: 2.25"/>
    <path d="M 156.057948 26.877188 
L 160.366703 33.86962 
L 164.521266 40.196106 
L 168.488692 45.856647 
L 172.486625 51.184215 
L 176.393668 56.025754 
L 180.302199 60.507458 
L 183.766641 64.178353 
L 187.517971 67.832863 
L 191.139614 71.045715 
L 194.601579 73.826377 
L 197.842316 76.173087 
L 201.193668 78.338533 
L 204.545019 80.238248 
L 207.89637 81.872367 
L 211.247722 83.240947 
L 214.263938 84.245557 
L 217.280154 85.035035 
L 220.29637 85.609375 
L 223.312587 85.968576 
L 226.328803 86.112552 
L 229.345019 86.041535 
L 232.361235 85.755277 
L 235.377451 85.253955 
L 238.595127 84.481512 
L 241.409884 83.605822 
L 244.4261 82.458955 
L 247.777451 80.932507 
L 251.128803 79.140275 
L 254.480154 77.082599 
L 257.831505 74.759239 
L 261.19351 72.161512 
L 264.702825 69.164755 
L 268.220695 65.868863 
L 271.907181 62.100707 
L 275.738478 57.843674 
L 279.34861 53.515025 
L 283.301776 48.42165 
L 285.658224 45.209518 
M 378.960711 26.877188 
L 377.754807 31.214042 
M 370.525718 56.479994 
L 365.039177 74.825296 
L 359.016153 94.137728 
L 353.009884 112.535637 
L 347.111112 129.765836 
L 342.222795 143.417728 
L 336.861352 157.735566 
L 331.561235 171.216813 
L 326.199073 184.17398 
L 321.024424 196.027458 
L 316.430752 206.016647 
L 311.586097 216.005836 
L 307.324848 224.33016 
L 303.00823 232.321512 
L 298.625929 239.97989 
L 294.361235 246.993923 
L 290.004478 253.711166 
L 285.900017 259.625296 
L 281.938851 264.952863 
L 277.939614 269.9521 
L 274.204909 274.276106 
L 270.466295 278.271782 
L 266.880154 281.791902 
L 263.193668 285.090755 
L 259.686791 287.927998 
L 256.490965 290.258994 
L 253.139614 292.4414 
L 249.788262 294.35627 
L 246.436911 296.003451 
L 243.08556 297.382912 
L 240.069343 298.395577 
L 236.79618 299.249079 
L 234.036911 299.770442 
L 231.020695 300.132647 
L 228.004478 300.278092 
L 224.988262 300.206622 
L 221.947184 299.915025 
L 218.95583 299.413156 
L 215.939614 298.691234 
L 212.923397 297.752452 
L 209.879565 296.585296 
L 206.55583 295.058559 
L 203.204478 293.252687 
L 199.853127 291.178912 
L 196.501776 288.837525 
L 193.150424 286.228504 
L 189.704517 283.266377 
L 186.112587 279.878069 
L 182.4261 276.080465 
L 178.727775 271.945296 
L 174.869794 267.283674 
L 171.275565 262.622052 
L 167.345019 257.171997 
L 163.16296 250.967998 
L 159.16112 244.641512 
L 154.994412 237.649079 
L 150.923397 230.417529 
L 146.269626 221.666377 
L 142.077985 213.342052 
L 137.517992 203.811848 
L 132.476559 192.697728 
L 127.462682 181.043674 
L 122.156881 168.057728 
L 117.6132 156.403674 
L 112.640029 143.084755 
L 107.291004 128.100971 
L 101.725054 111.785296 
L 96.822345 96.801512 
L 91.479231 79.81989 
L 85.907181 61.387246 
L 79.478139 39.197188 
L 76.026571 26.877188 
L 76.026571 26.877188 
" clip-path="url(#p5ab2117aed)" style="fill: none; stroke: #1f9e89; stroke-width: 2.25"/>
    <path d="M 171.472388 359.517188 
L 167.680154 354.306602 
L 163.519942 348.196106 
L 159.480644 341.86962 
L 155.473601 335.21016 
L 151.258533 327.79322 
L 146.66467 319.227458 
L 142.43794 310.903133 
L 137.853127 301.393562 
L 132.915421 290.591782 
L 128.426733 280.26962 
L 123.442316 268.245882 
L 118.200914 254.963674 
L 113.30881 241.977728 
L 108.0261 227.316035 
L 102.413908 211.011242 
L 97.301776 195.508402 
L 91.465563 177.047998 
L 85.907181 158.714938 
L 79.809881 137.757188 
L 73.766867 116.113944 
L 67.601998 93.138809 
L 65.877504 86.550595 
M 390.434989 80.231851 
L 384.155755 104.126917 
L 377.778206 127.435025 
L 371.603789 149.078269 
L 365.963406 168.057728 
L 360.2943 186.371242 
L 354.68556 203.737936 
L 348.853638 221.000431 
L 343.554909 235.984215 
L 338.255506 250.302052 
L 332.901776 264.08779 
L 327.653354 276.93989 
L 322.93819 287.927998 
L 318.440203 297.917188 
L 313.708113 307.906377 
L 309.044749 317.22962 
L 304.415289 325.973542 
L 299.783394 334.211242 
L 295.701776 341.047737 
L 291.345019 347.907553 
L 287.076865 354.18962 
L 283.202467 359.517188 
L 283.202467 359.517188 
" clip-path="url(#p5ab2117aed)" style="fill: none; stroke: #26828e; stroke-width: 2.25"/>
    <path d="M 91.32056 359.517188 
L 85.963675 341.86962 
L 80.515828 323.223133 
L 74.435919 301.57989 
L 68.412219 279.270701 
L 66.156213 270.693815 
M 389.395877 266.704263 
L 383.343123 289.592863 
L 377.474749 310.953729 
L 371.299465 332.546377 
L 365.543091 351.858809 
L 363.19291 359.517188 
L 363.19291 359.517188 
" clip-path="url(#p5ab2117aed)" style="fill: none; stroke: #31688e; stroke-width: 2.25"/>
    <path clip-path="url(#p5ab2117aed)" style="fill: none; stroke: #3e4989; stroke-width: 2.25"/>
    <path clip-path="url(#p5ab2117aed)" style="fill: none; stroke: #482878; stroke-width: 2.25"/>
    <path clip-path="url(#p5ab2117aed)" style="fill: none; stroke: #440154; stroke-width: 2.25"/>
   </g>
   <g id="PathCollection_1">
    <defs>
     <path id="me990923865" d="M 0 4.5 
C 1.193414 4.5 2.338109 4.025852 3.181981 3.181981 
C 4.025852 2.338109 4.5 1.193414 4.5 0 
C 4.5 -1.193414 4.025852 -2.338109 3.181981 -3.181981 
C 2.338109 -4.025852 1.193414 -4.5 0 -4.5 
C -1.193414 -4.5 -2.338109 -4.025852 -3.181981 -3.181981 
C -4.025852 -2.338109 -4.5 -1.193414 -4.5 0 
C -4.5 1.193414 -4.025852 2.338109 -3.181981 3.181981 
C -2.338109 4.025852 -1.193414 4.5 0 4.5 
z
" style="stroke: #000000; stroke-width: 1.5"/>
    </defs>
    <g clip-path="url(#p5ab2117aed)">
     <use xlink:href="#me990923865" x="287.093753" y="150.819665" style="stroke: #000000; stroke-width: 1.5"/>
     <use xlink:href="#me990923865" x="287.38061" y="151.067853" style="stroke: #000000; stroke-width: 1.5"/>
     <use xlink:href="#me990923865" x="286.367107" y="151.659788" style="stroke: #000000; stroke-width: 1.5"/>
     <use xlink:href="#me990923865" x="286.963403" y="150.948811" style="stroke: #000000; stroke-width: 1.5"/>
     <use xlink:href="#me990923865" x="288.214074" y="149.37035" style="stroke: #000000; stroke-width: 1.5"/>
     <use xlink:href="#me990923865" x="287.724123" y="149.86695" style="stroke: #000000; stroke-width: 1.5"/>
     <use xlink:href="#me990923865" x="287.131288" y="151.349654" style="stroke: #000000; stroke-width: 1.5"/>
     <use xlink:href="#me990923865" x="287.686669" y="149.769024" style="stroke: #000000; stroke-width: 1.5"/>
     <use xlink:href="#me990923865" x="286.715346" y="151.265884" style="stroke: #000000; stroke-width: 1.5"/>
     <use xlink:href="#me990923865" x="288.175966" y="149.679862" style="stroke: #000000; stroke-width: 1.5"/>
     <use xlink:href="#me990923865" x="286.952401" y="150.971408" style="stroke: #000000; stroke-width: 1.5"/>
     <use xlink:href="#me990923865" x="286.388384" y="151.55561" style="stroke: #000000; stroke-width: 1.5"/>
     <use xlink:href="#me990923865" x="287.171742" y="150.612577" style="stroke: #000000; stroke-width: 1.5"/>
     <use xlink:href="#me990923865" x="286.462418" y="151.236009" style="stroke: #000000; stroke-width: 1.5"/>
     <use xlink:href="#me990923865" x="287.30307" y="150.121711" style="stroke: #000000; stroke-width: 1.5"/>
     <use xlink:href="#me990923865" x="286.997066" y="150.577287" style="stroke: #000000; stroke-width: 1.5"/>
     <use xlink:href="#me990923865" x="286.834447" y="151.291354" style="stroke: #000000; stroke-width: 1.5"/>
     <use xlink:href="#me990923865" x="287.321035" y="150.140643" style="stroke: #000000; stroke-width: 1.5"/>
     <use xlink:href="#me990923865" x="288.119224" y="149.615904" style="stroke: #000000; stroke-width: 1.5"/>
     <use xlink:href="#me990923865" x="287.1035" y="150.244369" style="stroke: #000000; stroke-width: 1.5"/>
     <use xlink:href="#me990923865" x="288.633128" y="149.177057" style="stroke: #000000; stroke-width: 1.5"/>
     <use xlink:href="#me990923865" x="287.78547" y="150.409842" style="stroke: #000000; stroke-width: 1.5"/>
     <use xlink:href="#me990923865" x="287.535957" y="149.94064" style="stroke: #000000; stroke-width: 1.5"/>
     <use xlink:href="#me990923865" x="288.60065" y="148.772389" style="stroke: #000000; stroke-width: 1.5"/>
     <use xlink:href="#me990923865" x="286.449394" y="151.758127" style="stroke: #000000; stroke-width: 1.5"/>
     <use xlink:href="#me990923865" x="286.737108" y="150.88021" style="stroke: #000000; stroke-width: 1.5"/>
     <use xlink:href="#me990923865" x="287.788094" y="150.072651" style="stroke: #000000; stroke-width: 1.5"/>
     <use xlink:href="#me990923865" x="287.921681" y="150.304327" style="stroke: #000000; stroke-width: 1.5"/>
     <use xlink:href="#me990923865" x="287.283499" y="150.441535" style="stroke: #000000; stroke-width: 1.5"/>
     <use xlink:href="#me990923865" x="287.478275" y="150.560261" style="stroke: #000000; stroke-width: 1.5"/>
     <use xlink:href="#me990923865" x="288.438744" y="148.87896" style="stroke: #000000; stroke-width: 1.5"/>
     <use xlink:href="#me990923865" x="287.444393" y="150.860169" style="stroke: #000000; stroke-width: 1.5"/>
     <use xlink:href="#me990923865" x="286.524708" y="151.895674" style="stroke: #000000; stroke-width: 1.5"/>
     <use xlink:href="#me990923865" x="287.197932" y="150.316457" style="stroke: #000000; stroke-width: 1.5"/>
     <use xlink:href="#me990923865" x="287.383943" y="149.878035" style="stroke: #000000; stroke-width: 1.5"/>
     <use xlink:href="#me990923865" x="288.299487" y="148.701452" style="stroke: #000000; stroke-width: 1.5"/>
     <use xlink:href="#me990923865" x="286.431331" y="151.32566" style="stroke: #000000; stroke-width: 1.5"/>
     <use xlink:href="#me990923865" x="286.631433" y="151.812847" style="stroke: #000000; stroke-width: 1.5"/>
     <use xlink:href="#me990923865" x="288.727765" y="148.65444" style="stroke: #000000; stroke-width: 1.5"/>
     <use xlink:href="#me990923865" x="287.662151" y="149.866518" style="stroke: #000000; stroke-width: 1.5"/>
     <use xlink:href="#me990923865" x="287.98851" y="149.502182" style="stroke: #000000; stroke-width: 1.5"/>
     <use xlink:href="#me990923865" x="287.391646" y="149.836438" style="stroke: #000000; stroke-width: 1.5"/>
     <use xlink:href="#me990923865" x="286.827602" y="150.925598" style="stroke: #000000; stroke-width: 1.5"/>
     <use xlink:href="#me990923865" x="288.849188" y="148.230568" style="stroke: #000000; stroke-width: 1.5"/>
     <use xlink:href="#me990923865" x="286.918693" y="150.860342" style="stroke: #000000; stroke-width: 1.5"/>
     <use xlink:href="#me990923865" x="286.869968" y="151.355142" style="stroke: #000000; stroke-width: 1.5"/>
     <use xlink:href="#me990923865" x="287.196167" y="150.352625" style="stroke: #000000; stroke-width: 1.5"/>
     <use xlink:href="#me990923865" x="287.623718" y="150.239194" style="stroke: #000000; stroke-width: 1.5"/>
     <use xlink:href="#me990923865" x="287.340429" y="151.024013" style="stroke: #000000; stroke-width: 1.5"/>
     <use xlink:href="#me990923865" x="286.981586" y="151.142951" style="stroke: #000000; stroke-width: 1.5"/>
     <use xlink:href="#me990923865" x="287.268433" y="150.770006" style="stroke: #000000; stroke-width: 1.5"/>
     <use xlink:href="#me990923865" x="286.877932" y="150.623674" style="stroke: #000000; stroke-width: 1.5"/>
     <use xlink:href="#me990923865" x="287.191098" y="150.668436" style="stroke: #000000; stroke-width: 1.5"/>
     <use xlink:href="#me990923865" x="288.110523" y="149.940507" style="stroke: #000000; stroke-width: 1.5"/>
     <use xlink:href="#me990923865" x="286.276264" y="152.254855" style="stroke: #000000; stroke-width: 1.5"/>
     <use xlink:href="#me990923865" x="285.706223" y="152.16928" style="stroke: #000000; stroke-width: 1.5"/>
     <use xlink:href="#me990923865" x="286.483363" y="151.377563" style="stroke: #000000; stroke-width: 1.5"/>
     <use xlink:href="#me990923865" x="287.905893" y="150.239124" style="stroke: #000000; stroke-width: 1.5"/>
     <use xlink:href="#me990923865" x="286.371047" y="151.435898" style="stroke: #000000; stroke-width: 1.5"/>
     <use xlink:href="#me990923865" x="287.936975" y="149.931356" style="stroke: #000000; stroke-width: 1.5"/>
     <use xlink:href="#me990923865" x="286.948643" y="150.92107" style="stroke: #000000; stroke-width: 1.5"/>
     <use xlink:href="#me990923865" x="287.023663" y="150.877671" style="stroke: #000000; stroke-width: 1.5"/>
     <use xlink:href="#me990923865" x="287.666556" y="150.011759" style="stroke: #000000; stroke-width: 1.5"/>
     <use xlink:href="#me990923865" x="287.769734" y="150.042805" style="stroke: #000000; stroke-width: 1.5"/>
     <use xlink:href="#me990923865" x="286.899286" y="150.902801" style="stroke: #000000; stroke-width: 1.5"/>
     <use xlink:href="#me990923865" x="287.892447" y="150.047939" style="stroke: #000000; stroke-width: 1.5"/>
     <use xlink:href="#me990923865" x="289.003206" y="148.441724" style="stroke: #000000; stroke-width: 1.5"/>
     <use xlink:href="#me990923865" x="286.799646" y="150.871026" style="stroke: #000000; stroke-width: 1.5"/>
     <use xlink:href="#me990923865" x="287.491884" y="149.78059" style="stroke: #000000; stroke-width: 1.5"/>
     <use xlink:href="#me990923865" x="287.492336" y="150.078114" style="stroke: #000000; stroke-width: 1.5"/>
     <use xlink:href="#me990923865" x="287.136307" y="150.646148" style="stroke: #000000; stroke-width: 1.5"/>
     <use xlink:href="#me990923865" x="286.303583" y="151.521947" style="stroke: #000000; stroke-width: 1.5"/>
     <use xlink:href="#me990923865" x="287.965802" y="149.843118" style="stroke: #000000; stroke-width: 1.5"/>
     <use xlink:href="#me990923865" x="287.760039" y="149.377661" style="stroke: #000000; stroke-width: 1.5"/>
     <use xlink:href="#me990923865" x="286.896707" y="151.183926" style="stroke: #000000; stroke-width: 1.5"/>
     <use xlink:href="#me990923865" x="286.333458" y="151.637205" style="stroke: #000000; stroke-width: 1.5"/>
     <use xlink:href="#me990923865" x="287.632767" y="150.237998" style="stroke: #000000; stroke-width: 1.5"/>
     <use xlink:href="#me990923865" x="287.404484" y="150.31022" style="stroke: #000000; stroke-width: 1.5"/>
     <use xlink:href="#me990923865" x="286.85607" y="151.545115" style="stroke: #000000; stroke-width: 1.5"/>
     <use xlink:href="#me990923865" x="288.168383" y="149.808378" style="stroke: #000000; stroke-width: 1.5"/>
     <use xlink:href="#me990923865" x="287.980904" y="150.143198" style="stroke: #000000; stroke-width: 1.5"/>
     <use xlink:href="#me990923865" x="287.806285" y="149.792509" style="stroke: #000000; stroke-width: 1.5"/>
     <use xlink:href="#me990923865" x="287.026202" y="151.056454" style="stroke: #000000; stroke-width: 1.5"/>
     <use xlink:href="#me990923865" x="285.605648" y="152.374905" style="stroke: #000000; stroke-width: 1.5"/>
     <use xlink:href="#me990923865" x="288.078904" y="149.536072" style="stroke: #000000; stroke-width: 1.5"/>
     <use xlink:href="#me990923865" x="287.404889" y="150.033335" style="stroke: #000000; stroke-width: 1.5"/>
     <use xlink:href="#me990923865" x="287.744993" y="149.550775" style="stroke: #000000; stroke-width: 1.5"/>
     <use xlink:href="#me990923865" x="286.613275" y="151.164615" style="stroke: #000000; stroke-width: 1.5"/>
     <use xlink:href="#me990923865" x="287.249029" y="150.329346" style="stroke: #000000; stroke-width: 1.5"/>
     <use xlink:href="#me990923865" x="286.878071" y="151.27901" style="stroke: #000000; stroke-width: 1.5"/>
     <use xlink:href="#me990923865" x="288.200671" y="149.430122" style="stroke: #000000; stroke-width: 1.5"/>
     <use xlink:href="#me990923865" x="286.74971" y="151.729962" style="stroke: #000000; stroke-width: 1.5"/>
     <use xlink:href="#me990923865" x="288.020648" y="149.751894" style="stroke: #000000; stroke-width: 1.5"/>
     <use xlink:href="#me990923865" x="287.53023" y="150.264275" style="stroke: #000000; stroke-width: 1.5"/>
     <use xlink:href="#me990923865" x="286.890111" y="150.80663" style="stroke: #000000; stroke-width: 1.5"/>
     <use xlink:href="#me990923865" x="287.015229" y="150.963774" style="stroke: #000000; stroke-width: 1.5"/>
     <use xlink:href="#me990923865" x="287.649287" y="149.68067" style="stroke: #000000; stroke-width: 1.5"/>
     <use xlink:href="#me990923865" x="287.748468" y="150.019747" style="stroke: #000000; stroke-width: 1.5"/>
     <use xlink:href="#me990923865" x="287.642288" y="149.510111" style="stroke: #000000; stroke-width: 1.5"/>
     <use xlink:href="#me990923865" x="287.172855" y="150.689172" style="stroke: #000000; stroke-width: 1.5"/>
    </g>
   </g>
   <g id="PathCollection_2">
    <defs>
     <path id="me1809e7ee2" d="M 0 4.5 
C 1.193414 4.5 2.338109 4.025852 3.181981 3.181981 
C 4.025852 2.338109 4.5 1.193414 4.5 0 
C 4.5 -1.193414 4.025852 -2.338109 3.181981 -3.181981 
C 2.338109 -4.025852 1.193414 -4.5 0 -4.5 
C -1.193414 -4.5 -2.338109 -4.025852 -3.181981 -3.181981 
C -4.025852 -2.338109 -4.5 -1.193414 -4.5 0 
C -4.5 1.193414 -4.025852 2.338109 -3.181981 3.181981 
C -2.338109 4.025852 -1.193414 4.5 0 4.5 
z
" style="stroke: #ff0000; stroke-width: 1.5"/>
    </defs>
    <g clip-path="url(#p5ab2117aed)">
     <use xlink:href="#me1809e7ee2" x="288.849188" y="148.230568" style="fill: #ff0000; stroke: #ff0000; stroke-width: 1.5"/>
     <use xlink:href="#me1809e7ee2" x="288.438744" y="148.87896" style="fill: #ff0000; stroke: #ff0000; stroke-width: 1.5"/>
     <use xlink:href="#me1809e7ee2" x="288.727765" y="148.65444" style="fill: #ff0000; stroke: #ff0000; stroke-width: 1.5"/>
     <use xlink:href="#me1809e7ee2" x="288.60065" y="148.772389" style="fill: #ff0000; stroke: #ff0000; stroke-width: 1.5"/>
     <use xlink:href="#me1809e7ee2" x="288.299487" y="148.701452" style="fill: #ff0000; stroke: #ff0000; stroke-width: 1.5"/>
     <use xlink:href="#me1809e7ee2" x="289.003206" y="148.441724" style="fill: #ff0000; stroke: #ff0000; stroke-width: 1.5"/>
     <use xlink:href="#me1809e7ee2" x="287.98851" y="149.502182" style="fill: #ff0000; stroke: #ff0000; stroke-width: 1.5"/>
     <use xlink:href="#me1809e7ee2" x="288.214074" y="149.37035" style="fill: #ff0000; stroke: #ff0000; stroke-width: 1.5"/>
     <use xlink:href="#me1809e7ee2" x="288.078904" y="149.536072" style="fill: #ff0000; stroke: #ff0000; stroke-width: 1.5"/>
     <use xlink:href="#me1809e7ee2" x="288.200671" y="149.430122" style="fill: #ff0000; stroke: #ff0000; stroke-width: 1.5"/>
     <use xlink:href="#me1809e7ee2" x="287.744993" y="149.550775" style="fill: #ff0000; stroke: #ff0000; stroke-width: 1.5"/>
     <use xlink:href="#me1809e7ee2" x="287.686669" y="149.769024" style="fill: #ff0000; stroke: #ff0000; stroke-width: 1.5"/>
     <use xlink:href="#me1809e7ee2" x="287.806285" y="149.792509" style="fill: #ff0000; stroke: #ff0000; stroke-width: 1.5"/>
     <use xlink:href="#me1809e7ee2" x="287.760039" y="149.377661" style="fill: #ff0000; stroke: #ff0000; stroke-width: 1.5"/>
     <use xlink:href="#me1809e7ee2" x="287.724123" y="149.86695" style="fill: #ff0000; stroke: #ff0000; stroke-width: 1.5"/>
     <use xlink:href="#me1809e7ee2" x="287.662151" y="149.866518" style="fill: #ff0000; stroke: #ff0000; stroke-width: 1.5"/>
     <use xlink:href="#me1809e7ee2" x="287.649287" y="149.68067" style="fill: #ff0000; stroke: #ff0000; stroke-width: 1.5"/>
     <use xlink:href="#me1809e7ee2" x="287.535957" y="149.94064" style="fill: #ff0000; stroke: #ff0000; stroke-width: 1.5"/>
     <use xlink:href="#me1809e7ee2" x="288.119224" y="149.615904" style="fill: #ff0000; stroke: #ff0000; stroke-width: 1.5"/>
     <use xlink:href="#me1809e7ee2" x="287.666556" y="150.011759" style="fill: #ff0000; stroke: #ff0000; stroke-width: 1.5"/>
    </g>
   </g>
   <g id="QuadContourSet_2">
    <path d="M 285.982857 152.318542 
L 286.255379 152.075025 
L 286.317992 152.071712 
L 286.653127 151.931561 
L 286.843906 151.742052 
L 286.988262 151.695987 
L 287.277036 151.409079 
L 287.323397 151.381309 
L 287.630571 151.076106 
L 287.658533 151.044673 
L 287.962019 150.743133 
L 287.993668 150.676366 
L 288.261593 150.41016 
L 288.328803 150.14408 
L 288.396128 150.077188 
L 288.663827 149.744215 
L 288.663938 149.743677 
L 288.998431 149.411242 
L 288.999073 149.405408 
L 289.32827 149.078269 
L 289.334208 148.977032 
L 289.567418 148.745296 
L 289.669081 148.412323 
L 289.669343 148.40685 
L 289.998366 148.07935 
L 290.004478 147.840002 
L 290.098599 147.746377 
L 290.333634 147.413404 
L 290.339614 147.122809 
L 290.38157 147.080431 
L 290.575242 146.747458 
L 290.339614 146.476136 
L 290.004478 146.447946 
L 289.694684 146.747458 
L 289.669343 146.749705 
L 289.334208 147.042535 
L 289.296066 147.080431 
L 288.999073 147.226981 
L 288.811444 147.413404 
L 288.663938 147.550004 
L 288.466295 147.746377 
L 288.328803 147.985326 
L 288.234171 148.07935 
L 287.993739 148.412323 
L 287.993668 148.412475 
L 287.65878 148.745296 
L 287.658533 148.746282 
L 287.324457 149.078269 
L 287.323397 149.086196 
L 286.996286 149.411242 
L 286.988262 149.523922 
L 286.766559 149.744215 
L 286.653322 150.077188 
L 286.653127 150.080538 
L 286.321774 150.41016 
L 286.317992 150.532113 
L 286.105774 150.743133 
L 285.984862 151.076106 
L 285.982857 151.155932 
L 285.730875 151.409079 
L 285.665971 151.742052 
L 285.713485 152.075025 
L 285.982857 152.318542 
z
" clip-path="url(#p5ab2117aed)" style="fill: none; stroke-dasharray: 2.25,3.7125; stroke-dashoffset: 0; stroke: #ff0000; stroke-width: 2.25"/>
    <path d="M 285.982857 152.065942 
L 286.317992 152.05522 
L 286.643529 151.742052 
L 286.653127 151.741025 
L 286.988262 151.557656 
L 287.137806 151.409079 
L 287.323397 151.297912 
L 287.546635 151.076106 
L 287.658533 150.950318 
L 287.867054 150.743133 
L 287.993668 150.476026 
L 288.059959 150.41016 
L 288.328662 150.077188 
L 288.328803 150.076823 
L 288.663427 149.744215 
L 288.663938 149.741739 
L 288.996481 149.411242 
L 288.999073 149.387696 
L 289.310446 149.078269 
L 289.33419 148.745296 
L 289.334208 148.745089 
L 289.668205 148.412323 
L 289.669343 148.388565 
L 289.979996 148.07935 
L 290.003858 147.746377 
L 290.004478 147.730172 
L 290.31535 147.413404 
L 290.330363 147.080431 
L 290.304036 146.747458 
L 290.004478 146.552744 
L 289.80308 146.747458 
L 289.669343 146.759319 
L 289.343545 147.080431 
L 289.334208 147.082016 
L 289.000035 147.413404 
L 288.999073 147.413712 
L 288.664219 147.746377 
L 288.663938 147.746546 
L 288.329087 148.07935 
L 288.328803 148.079671 
L 287.994112 148.412323 
L 287.993668 148.413266 
L 287.659576 148.745296 
L 287.658533 148.749459 
L 287.327654 149.078269 
L 287.323397 149.110122 
L 287.020364 149.411242 
L 286.988287 149.744215 
L 286.988262 149.744443 
L 286.65398 150.077188 
L 286.653127 150.091851 
L 286.333147 150.41016 
L 286.318119 150.743133 
L 286.317992 150.745834 
L 285.991158 151.076106 
L 285.982857 151.406644 
L 285.980432 151.409079 
L 285.723853 151.742052 
L 285.982857 152.065942 
z
" clip-path="url(#p5ab2117aed)" style="fill: none; stroke-dasharray: 2.25,3.7125; stroke-dashoffset: 0; stroke: #ff0000; stroke-width: 2.25"/>
    <path d="M 285.982857 151.921177 
L 286.317992 152.022238 
L 286.609244 151.742052 
L 286.653127 151.737355 
L 286.986536 151.409079 
L 286.988262 151.408724 
L 287.323397 151.131118 
L 287.378765 151.076106 
L 287.658533 150.761606 
L 287.677125 150.743133 
L 287.993481 150.41016 
L 287.993668 150.409904 
L 288.328353 150.077188 
L 288.328803 150.076027 
L 288.662626 149.744215 
L 288.663938 149.737864 
L 288.992582 149.411242 
L 288.999073 149.352272 
L 289.274799 149.078269 
L 289.334033 148.745296 
L 289.334208 148.743343 
L 289.666454 148.412323 
L 289.669343 148.351995 
L 289.943256 148.07935 
L 290.002431 147.746377 
L 290.004478 147.692911 
L 290.278784 147.413404 
L 290.310937 147.080431 
L 290.004478 146.74895 
L 289.669343 146.778548 
L 289.363054 147.080431 
L 289.334208 147.085328 
L 289.003375 147.413404 
L 288.999073 147.414783 
L 288.665297 147.746377 
L 288.663938 147.747196 
L 288.329741 148.07935 
L 288.328803 148.080412 
L 287.994857 148.412323 
L 287.993668 148.41485 
L 287.66117 148.745296 
L 287.658533 148.755813 
L 287.334048 149.078269 
L 287.323397 149.157974 
L 287.06852 149.411242 
L 286.98843 149.744215 
L 286.988262 149.745753 
L 286.655297 150.077188 
L 286.653127 150.114477 
L 286.355891 150.41016 
L 286.318715 150.743133 
L 286.317992 150.758559 
L 286.00375 151.076106 
L 285.987344 151.409079 
L 285.982857 151.557504 
L 285.839617 151.742052 
L 285.982857 151.921177 
z
" clip-path="url(#p5ab2117aed)" style="fill: none; stroke-dasharray: 2.25,3.7125; stroke-dashoffset: 0; stroke: #ff0000; stroke-width: 2.25"/>
    <path d="M 286.317992 151.712927 
L 286.653127 151.68536 
L 286.933728 151.409079 
L 286.988262 151.397858 
L 287.312695 151.076106 
L 287.323397 151.071942 
L 287.654271 150.743133 
L 287.658533 150.740014 
L 287.990322 150.41016 
L 287.993668 150.405561 
L 288.323984 150.077188 
L 288.328803 150.064756 
L 288.651286 149.744215 
L 288.663938 149.682963 
L 288.937342 149.411242 
L 288.998904 149.078269 
L 288.999073 149.077263 
L 289.331812 148.745296 
L 289.334208 148.718619 
L 289.641638 148.412323 
L 289.668641 148.07935 
L 289.669343 148.069461 
L 289.982217 147.746377 
L 289.996563 147.413404 
L 290.004478 147.145157 
L 290.035722 147.080431 
L 290.004478 147.046636 
L 289.669343 147.050948 
L 289.63943 147.080431 
L 289.334208 147.13225 
L 289.050691 147.413404 
L 288.999073 147.429956 
L 288.68057 147.746377 
L 288.663938 147.756406 
L 288.339007 148.07935 
L 288.328803 148.090904 
L 288.005413 148.412323 
L 287.993668 148.437283 
L 287.683742 148.745296 
L 287.658533 148.845831 
L 287.424633 149.078269 
L 287.323656 149.411242 
L 287.323397 149.412506 
L 286.990456 149.744215 
L 286.988262 149.764316 
L 286.673945 150.077188 
L 286.653185 150.41016 
L 286.653127 150.410828 
L 286.327164 150.743133 
L 286.317992 150.938825 
L 286.18214 151.076106 
L 286.051217 151.409079 
L 286.317992 151.712927 
z
" clip-path="url(#p5ab2117aed)" style="fill: none; stroke-dasharray: 2.25,3.7125; stroke-dashoffset: 0; stroke: #ff0000; stroke-width: 2.25"/>
   </g>
   <g id="patch_3">
    <path d="M 59.766641 359.517188 
L 59.766641 26.877188 
" style="fill: none; stroke: #000000; stroke-width: 1.875; stroke-linejoin: miter; stroke-linecap: square"/>
   </g>
   <g id="patch_4">
    <path d="M 394.566641 359.517188 
L 394.566641 26.877188 
" style="fill: none; stroke: #000000; stroke-width: 1.875; stroke-linejoin: miter; stroke-linecap: square"/>
   </g>
   <g id="patch_5">
    <path d="M 59.766641 359.517188 
L 394.566641 359.517188 
" style="fill: none; stroke: #000000; stroke-width: 1.875; stroke-linejoin: miter; stroke-linecap: square"/>
   </g>
   <g id="patch_6">
    <path d="M 59.766641 26.877187 
L 394.566641 26.877187 
" style="fill: none; stroke: #000000; stroke-width: 1.875; stroke-linejoin: miter; stroke-linecap: square"/>
   </g>
   <g id="text_15">
    <!-- Iteration 9 -->
    <g transform="translate(180.404609 20.877187) scale(0.18 -0.18)">
     <defs>
      <path id="DejaVuSans-49" d="M 628 4666 
L 1259 4666 
L 1259 0 
L 628 0 
L 628 4666 
z
" transform="scale(0.015625)"/>
      <path id="DejaVuSans-74" d="M 1172 4494 
L 1172 3500 
L 2356 3500 
L 2356 3053 
L 1172 3053 
L 1172 1153 
Q 1172 725 1289 603 
Q 1406 481 1766 481 
L 2356 481 
L 2356 0 
L 1766 0 
Q 1100 0 847 248 
Q 594 497 594 1153 
L 594 3053 
L 172 3053 
L 172 3500 
L 594 3500 
L 594 4494 
L 1172 4494 
z
" transform="scale(0.015625)"/>
      <path id="DejaVuSans-65" d="M 3597 1894 
L 3597 1613 
L 953 1613 
Q 991 1019 1311 708 
Q 1631 397 2203 397 
Q 2534 397 2845 478 
Q 3156 559 3463 722 
L 3463 178 
Q 3153 47 2828 -22 
Q 2503 -91 2169 -91 
Q 1331 -91 842 396 
Q 353 884 353 1716 
Q 353 2575 817 3079 
Q 1281 3584 2069 3584 
Q 2775 3584 3186 3129 
Q 3597 2675 3597 1894 
z
M 3022 2063 
Q 3016 2534 2758 2815 
Q 2500 3097 2075 3097 
Q 1594 3097 1305 2825 
Q 1016 2553 972 2059 
L 3022 2063 
z
" transform="scale(0.015625)"/>
      <path id="DejaVuSans-72" d="M 2631 2963 
Q 2534 3019 2420 3045 
Q 2306 3072 2169 3072 
Q 1681 3072 1420 2755 
Q 1159 2438 1159 1844 
L 1159 0 
L 581 0 
L 581 3500 
L 1159 3500 
L 1159 2956 
Q 1341 3275 1631 3429 
Q 1922 3584 2338 3584 
Q 2397 3584 2469 3576 
Q 2541 3569 2628 3553 
L 2631 2963 
z
" transform="scale(0.015625)"/>
      <path id="DejaVuSans-61" d="M 2194 1759 
Q 1497 1759 1228 1600 
Q 959 1441 959 1056 
Q 959 750 1161 570 
Q 1363 391 1709 391 
Q 2188 391 2477 730 
Q 2766 1069 2766 1631 
L 2766 1759 
L 2194 1759 
z
M 3341 1997 
L 3341 0 
L 2766 0 
L 2766 531 
Q 2569 213 2275 61 
Q 1981 -91 1556 -91 
Q 1019 -91 701 211 
Q 384 513 384 1019 
Q 384 1609 779 1909 
Q 1175 2209 1959 2209 
L 2766 2209 
L 2766 2266 
Q 2766 2663 2505 2880 
Q 2244 3097 1772 3097 
Q 1472 3097 1187 3025 
Q 903 2953 641 2809 
L 641 3341 
Q 956 3463 1253 3523 
Q 1550 3584 1831 3584 
Q 2591 3584 2966 3190 
Q 3341 2797 3341 1997 
z
" transform="scale(0.015625)"/>
      <path id="DejaVuSans-69" d="M 603 3500 
L 1178 3500 
L 1178 0 
L 603 0 
L 603 3500 
z
M 603 4863 
L 1178 4863 
L 1178 4134 
L 603 4134 
L 603 4863 
z
" transform="scale(0.015625)"/>
      <path id="DejaVuSans-6f" d="M 1959 3097 
Q 1497 3097 1228 2736 
Q 959 2375 959 1747 
Q 959 1119 1226 758 
Q 1494 397 1959 397 
Q 2419 397 2687 759 
Q 2956 1122 2956 1747 
Q 2956 2369 2687 2733 
Q 2419 3097 1959 3097 
z
M 1959 3584 
Q 2709 3584 3137 3096 
Q 3566 2609 3566 1747 
Q 3566 888 3137 398 
Q 2709 -91 1959 -91 
Q 1206 -91 779 398 
Q 353 888 353 1747 
Q 353 2609 779 3096 
Q 1206 3584 1959 3584 
z
" transform="scale(0.015625)"/>
      <path id="DejaVuSans-6e" d="M 3513 2113 
L 3513 0 
L 2938 0 
L 2938 2094 
Q 2938 2591 2744 2837 
Q 2550 3084 2163 3084 
Q 1697 3084 1428 2787 
Q 1159 2491 1159 1978 
L 1159 0 
L 581 0 
L 581 3500 
L 1159 3500 
L 1159 2956 
Q 1366 3272 1645 3428 
Q 1925 3584 2291 3584 
Q 2894 3584 3203 3211 
Q 3513 2838 3513 2113 
z
" transform="scale(0.015625)"/>
      <path id="DejaVuSans-20" transform="scale(0.015625)"/>
      <path id="DejaVuSans-39" d="M 703 97 
L 703 672 
Q 941 559 1184 500 
Q 1428 441 1663 441 
Q 2288 441 2617 861 
Q 2947 1281 2994 2138 
Q 2813 1869 2534 1725 
Q 2256 1581 1919 1581 
Q 1219 1581 811 2004 
Q 403 2428 403 3163 
Q 403 3881 828 4315 
Q 1253 4750 1959 4750 
Q 2769 4750 3195 4129 
Q 3622 3509 3622 2328 
Q 3622 1225 3098 567 
Q 2575 -91 1691 -91 
Q 1453 -91 1209 -44 
Q 966 3 703 97 
z
M 1959 2075 
Q 2384 2075 2632 2365 
Q 2881 2656 2881 3163 
Q 2881 3666 2632 3958 
Q 2384 4250 1959 4250 
Q 1534 4250 1286 3958 
Q 1038 3666 1038 3163 
Q 1038 2656 1286 2365 
Q 1534 2075 1959 2075 
z
" transform="scale(0.015625)"/>
     </defs>
     <use xlink:href="#DejaVuSans-49"/>
     <use xlink:href="#DejaVuSans-74" x="29.492188"/>
     <use xlink:href="#DejaVuSans-65" x="68.701172"/>
     <use xlink:href="#DejaVuSans-72" x="130.224609"/>
     <use xlink:href="#DejaVuSans-61" x="171.337891"/>
     <use xlink:href="#DejaVuSans-74" x="232.617188"/>
     <use xlink:href="#DejaVuSans-69" x="271.826172"/>
     <use xlink:href="#DejaVuSans-6f" x="299.609375"/>
     <use xlink:href="#DejaVuSans-6e" x="360.791016"/>
     <use xlink:href="#DejaVuSans-20" x="424.169922"/>
     <use xlink:href="#DejaVuSans-39" x="455.957031"/>
    </g>
   </g>
   <g id="text_16">
    <g clip-path="url(#p5ab2117aed)">
     <!-- 1 -->
     <g style="fill: #fde725" transform="translate(288.155885 145.936074) rotate(-55.675721) scale(0.1 -0.1)">
      <use xlink:href="#DejaVuSans-31"/>
     </g>
    </g>
   </g>
   <g id="text_17">
    <g clip-path="url(#p5ab2117aed)">
     <!-- 4 -->
     <g style="fill: #b5de2b" transform="translate(318.224892 85.537014) rotate(-64.855421) scale(0.1 -0.1)">
      <defs>
       <path id="DejaVuSans-34" d="M 2419 4116 
L 825 1625 
L 2419 1625 
L 2419 4116 
z
M 2253 4666 
L 3047 4666 
L 3047 1625 
L 3713 1625 
L 3713 1100 
L 3047 1100 
L 3047 0 
L 2419 0 
L 2419 1100 
L 313 1100 
L 313 1709 
L 2253 4666 
z
" transform="scale(0.015625)"/>
      </defs>
      <use xlink:href="#DejaVuSans-34"/>
     </g>
    </g>
   </g>
   <g id="text_18">
    <g clip-path="url(#p5ab2117aed)">
     <!-- 13 -->
     <g style="fill: #6ece58" transform="translate(113.096851 23.999967) rotate(-291.889393) scale(0.1 -0.1)">
      <defs>
       <path id="DejaVuSans-33" d="M 2597 2516 
Q 3050 2419 3304 2112 
Q 3559 1806 3559 1356 
Q 3559 666 3084 287 
Q 2609 -91 1734 -91 
Q 1441 -91 1130 -33 
Q 819 25 488 141 
L 488 750 
Q 750 597 1062 519 
Q 1375 441 1716 441 
Q 2309 441 2620 675 
Q 2931 909 2931 1356 
Q 2931 1769 2642 2001 
Q 2353 2234 1838 2234 
L 1294 2234 
L 1294 2753 
L 1863 2753 
Q 2328 2753 2575 2939 
Q 2822 3125 2822 3475 
Q 2822 3834 2567 4026 
Q 2313 4219 1838 4219 
Q 1578 4219 1281 4162 
Q 984 4106 628 3988 
L 628 4550 
Q 988 4650 1302 4700 
Q 1616 4750 1894 4750 
Q 2613 4750 3031 4423 
Q 3450 4097 3450 3541 
Q 3450 3153 3228 2886 
Q 3006 2619 2597 2516 
z
" transform="scale(0.015625)"/>
      </defs>
      <use xlink:href="#DejaVuSans-31"/>
      <use xlink:href="#DejaVuSans-33" x="63.623047"/>
     </g>
    </g>
   </g>
   <g id="text_19">
    <g clip-path="url(#p5ab2117aed)">
     <!-- 13 -->
     <g style="fill: #6ece58" transform="translate(346.796573 61.299219) rotate(-70.600511) scale(0.1 -0.1)">
      <use xlink:href="#DejaVuSans-31"/>
      <use xlink:href="#DejaVuSans-33" x="63.623047"/>
     </g>
    </g>
   </g>
   <g id="text_20">
    <g clip-path="url(#p5ab2117aed)">
     <!-- 46 -->
     <g style="fill: #35b779" transform="translate(318.674001 43.751769) rotate(-65.297236) scale(0.1 -0.1)">
      <defs>
       <path id="DejaVuSans-36" d="M 2113 2584 
Q 1688 2584 1439 2293 
Q 1191 2003 1191 1497 
Q 1191 994 1439 701 
Q 1688 409 2113 409 
Q 2538 409 2786 701 
Q 3034 994 3034 1497 
Q 3034 2003 2786 2293 
Q 2538 2584 2113 2584 
z
M 3366 4563 
L 3366 3988 
Q 3128 4100 2886 4159 
Q 2644 4219 2406 4219 
Q 1781 4219 1451 3797 
Q 1122 3375 1075 2522 
Q 1259 2794 1537 2939 
Q 1816 3084 2150 3084 
Q 2853 3084 3261 2657 
Q 3669 2231 3669 1497 
Q 3669 778 3244 343 
Q 2819 -91 2113 -91 
Q 1303 -91 875 529 
Q 447 1150 447 2328 
Q 447 3434 972 4092 
Q 1497 4750 2381 4750 
Q 2619 4750 2861 4703 
Q 3103 4656 3366 4563 
z
" transform="scale(0.015625)"/>
      </defs>
      <use xlink:href="#DejaVuSans-34"/>
      <use xlink:href="#DejaVuSans-36" x="63.623047"/>
     </g>
    </g>
   </g>
   <g id="text_21">
    <g clip-path="url(#p5ab2117aed)">
     <!-- 46 -->
     <g style="fill: #35b779" transform="translate(97.700294 55.770923) rotate(-288.420927) scale(0.1 -0.1)">
      <use xlink:href="#DejaVuSans-34"/>
      <use xlink:href="#DejaVuSans-36" x="63.623047"/>
     </g>
    </g>
   </g>
   <g id="text_22">
    <g clip-path="url(#p5ab2117aed)">
     <!-- 167 -->
     <g style="fill: #1f9e89" transform="translate(290.184875 43.849168) rotate(-57.288295) scale(0.1 -0.1)">
      <defs>
       <path id="DejaVuSans-37" d="M 525 4666 
L 3525 4666 
L 3525 4397 
L 1831 0 
L 1172 0 
L 2766 4134 
L 525 4134 
L 525 4666 
z
" transform="scale(0.015625)"/>
      </defs>
      <use xlink:href="#DejaVuSans-31"/>
      <use xlink:href="#DejaVuSans-36" x="63.623047"/>
      <use xlink:href="#DejaVuSans-37" x="127.246094"/>
     </g>
    </g>
   </g>
   <g id="text_23">
    <g clip-path="url(#p5ab2117aed)">
     <!-- 167 -->
     <g style="fill: #1f9e89" transform="translate(374.209329 53.793422) rotate(-74.03457) scale(0.1 -0.1)">
      <use xlink:href="#DejaVuSans-31"/>
      <use xlink:href="#DejaVuSans-36" x="63.623047"/>
      <use xlink:href="#DejaVuSans-37" x="127.246094"/>
     </g>
    </g>
   </g>
   <g id="text_24">
    <g clip-path="url(#p5ab2117aed)">
     <!-- 599 -->
     <g style="fill: #26828e" transform="translate(57.564768 65.261256) rotate(-284.315487) scale(0.1 -0.1)">
      <use xlink:href="#DejaVuSans-35"/>
      <use xlink:href="#DejaVuSans-39" x="63.623047"/>
      <use xlink:href="#DejaVuSans-39" x="127.246094"/>
     </g>
    </g>
   </g>
   <g id="text_25">
    <g clip-path="url(#p5ab2117aed)">
     <!-- 599 -->
     <g style="fill: #26828e" transform="translate(394.010444 77.429179) rotate(-75.756627) scale(0.1 -0.1)">
      <use xlink:href="#DejaVuSans-35"/>
      <use xlink:href="#DejaVuSans-39" x="63.623047"/>
      <use xlink:href="#DejaVuSans-39" x="127.246094"/>
     </g>
    </g>
   </g>
   <g id="text_26">
    <g clip-path="url(#p5ab2117aed)">
     <!-- 2154 -->
     <g style="fill: #31688e" transform="translate(56.276387 243.317291) rotate(-284.327359) scale(0.1 -0.1)">
      <use xlink:href="#DejaVuSans-32"/>
      <use xlink:href="#DejaVuSans-31" x="63.623047"/>
      <use xlink:href="#DejaVuSans-35" x="127.246094"/>
      <use xlink:href="#DejaVuSans-34" x="190.869141"/>
     </g>
    </g>
   </g>
   <g id="text_27">
    <g clip-path="url(#p5ab2117aed)">
     <!-- 2154 -->
     <g style="fill: #31688e" transform="translate(392.962031 263.980352) rotate(-75.708056) scale(0.1 -0.1)">
      <use xlink:href="#DejaVuSans-32"/>
      <use xlink:href="#DejaVuSans-31" x="63.623047"/>
      <use xlink:href="#DejaVuSans-35" x="127.246094"/>
      <use xlink:href="#DejaVuSans-34" x="190.869141"/>
     </g>
    </g>
   </g>
  </g>
 </g>
 <defs>
  <clipPath id="p5ab2117aed">
   <rect x="59.766641" y="26.877187" width="334.8" height="332.64"/>
  </clipPath>
 </defs>
</svg>
